<svg width="243" height="60" viewBox="0 0 243 60" fill="none" xmlns="http://www.w3.org/2000/svg">
<path d="M75.4088 38.896L83.2488 19.072H88.0648L95.8208 38.896H90.9208L89.8288 35.816H81.4008L80.2808 38.896H75.4088ZM82.8288 31.7H88.4008L85.6568 24.028L82.8288 31.7ZM95.9746 38.896L101.099 31.364L96.2546 24.14H101.351L103.983 28.452L106.587 24.14H111.571L106.671 31.448L111.907 38.896H106.755L103.843 34.332L100.903 38.896H95.9746ZM120.207 39.12C118.732 39.12 117.416 38.8213 116.259 38.224C115.12 37.6267 114.224 36.768 113.571 35.648C112.917 34.5093 112.591 33.1467 112.591 31.56C112.591 29.936 112.917 28.5547 113.571 27.416C114.243 26.2587 115.148 25.3813 116.287 24.784C117.425 24.168 118.713 23.86 120.151 23.86C121.607 23.86 122.895 24.1773 124.015 24.812C125.135 25.428 126.021 26.3147 126.675 27.472C127.328 28.6107 127.655 29.992 127.655 31.616C127.655 33.2027 127.337 34.556 126.703 35.676C126.087 36.796 125.219 37.6547 124.099 38.252C122.979 38.8307 121.681 39.12 120.207 39.12ZM120.123 35.004C120.907 35.004 121.532 34.836 121.999 34.5C122.465 34.164 122.792 33.7347 122.979 33.212C123.184 32.6893 123.287 32.148 123.287 31.588C123.287 31.028 123.184 30.468 122.979 29.908C122.792 29.348 122.465 28.8907 121.999 28.536C121.551 28.1627 120.925 27.976 120.123 27.976C119.339 27.976 118.713 28.1627 118.247 28.536C117.78 28.8907 117.444 29.348 117.239 29.908C117.033 30.4493 116.931 31.0093 116.931 31.588C116.931 32.148 117.033 32.6987 117.239 33.24C117.463 33.7627 117.799 34.192 118.247 34.528C118.713 34.8453 119.339 35.004 120.123 35.004ZM129.94 38.896V24.14H134.056L134.308 25.652C134.737 25.1667 135.213 24.7933 135.736 24.532C136.277 24.2707 136.809 24.0933 137.332 24C137.873 23.9067 138.34 23.86 138.732 23.86C140.132 23.86 141.224 24.1773 142.008 24.812C142.81 25.428 143.38 26.2587 143.716 27.304C144.052 28.3493 144.22 29.4973 144.22 30.748V38.896H139.796V31.224C139.796 30.832 139.758 30.4493 139.684 30.076C139.609 29.684 139.478 29.3293 139.292 29.012C139.124 28.676 138.881 28.4147 138.564 28.228C138.246 28.0227 137.836 27.92 137.332 27.92C136.678 27.92 136.128 28.0787 135.68 28.396C135.232 28.7133 134.905 29.1427 134.7 29.684C134.494 30.2067 134.392 30.7947 134.392 31.448V38.896H129.94ZM155.574 38.896V19.072H163.19C165.262 19.072 167.045 19.4547 168.538 20.22C170.031 20.9853 171.179 22.1053 171.982 23.58C172.803 25.0547 173.214 26.884 173.214 29.068C173.214 31.1773 172.822 32.9693 172.038 34.444C171.254 35.9 170.115 37.0107 168.622 37.776C167.147 38.5227 165.346 38.896 163.218 38.896H155.574ZM160.11 34.724H163.246C164.571 34.724 165.617 34.4813 166.382 33.996C167.166 33.5107 167.726 32.8387 168.062 31.98C168.417 31.1213 168.594 30.132 168.594 29.012C168.594 27.9293 168.426 26.9587 168.09 26.1C167.754 25.2227 167.185 24.532 166.382 24.028C165.598 23.524 164.506 23.272 163.106 23.272H160.11V34.724ZM175.576 38.896V24.14H180.028V38.896H175.576ZM177.816 22.908C176.995 22.908 176.332 22.6653 175.828 22.18C175.343 21.6947 175.1 21.06 175.1 20.276C175.1 19.4733 175.362 18.82 175.884 18.316C176.407 17.812 177.06 17.56 177.844 17.56C178.591 17.56 179.226 17.8027 179.748 18.288C180.271 18.7733 180.532 19.4267 180.532 20.248C180.532 21.0507 180.28 21.6947 179.776 22.18C179.272 22.6653 178.619 22.908 177.816 22.908ZM190.213 45.784C189.019 45.784 187.908 45.588 186.881 45.196C185.873 44.8227 185.024 44.2253 184.333 43.404C183.643 42.5827 183.176 41.5187 182.933 40.212H187.441C187.553 40.5293 187.731 40.8 187.973 41.024C188.235 41.248 188.552 41.416 188.925 41.528C189.299 41.6587 189.709 41.724 190.157 41.724C190.997 41.724 191.632 41.5467 192.061 41.192C192.509 40.8373 192.808 40.3613 192.957 39.764C193.125 39.1853 193.209 38.5693 193.209 37.916V37.188C192.855 37.7293 192.425 38.1307 191.921 38.392C191.436 38.6533 190.923 38.8307 190.381 38.924C189.859 39.036 189.373 39.092 188.925 39.092C187.357 39.092 186.079 38.7467 185.089 38.056C184.119 37.3653 183.409 36.46 182.961 35.34C182.532 34.2013 182.317 32.988 182.317 31.7C182.317 30.2627 182.579 28.956 183.101 27.78C183.624 26.5853 184.389 25.6427 185.397 24.952C186.424 24.2427 187.693 23.888 189.205 23.888C190.12 23.888 190.904 24.0373 191.557 24.336C192.229 24.616 192.808 25.008 193.293 25.512L193.685 24.14H197.717V36.432C197.717 38.3733 197.484 40.0347 197.017 41.416C196.569 42.816 195.795 43.8893 194.693 44.636C193.611 45.4013 192.117 45.784 190.213 45.784ZM189.961 35.116C190.727 35.116 191.352 34.948 191.837 34.612C192.323 34.276 192.687 33.828 192.929 33.268C193.172 32.708 193.293 32.1107 193.293 31.476C193.293 30.804 193.172 30.1973 192.929 29.656C192.705 29.1147 192.351 28.6853 191.865 28.368C191.399 28.032 190.792 27.864 190.045 27.864C189.205 27.864 188.543 28.06 188.057 28.452C187.572 28.844 187.227 29.3293 187.021 29.908C186.835 30.468 186.741 31.028 186.741 31.588C186.741 32.1853 186.844 32.7547 187.049 33.296C187.255 33.8373 187.591 34.276 188.057 34.612C188.543 34.948 189.177 35.116 189.961 35.116ZM200.569 38.896V24.14H205.021V38.896H200.569ZM202.809 22.908C201.987 22.908 201.325 22.6653 200.821 22.18C200.335 21.6947 200.093 21.06 200.093 20.276C200.093 19.4733 200.354 18.82 200.877 18.316C201.399 17.812 202.053 17.56 202.837 17.56C203.583 17.56 204.218 17.8027 204.741 18.288C205.263 18.7733 205.525 19.4267 205.525 20.248C205.525 21.0507 205.273 21.6947 204.769 22.18C204.265 22.6653 203.611 22.908 202.809 22.908ZM214.057 39.092C212.359 39.092 211.08 38.616 210.221 37.664C209.363 36.6933 208.933 35.3867 208.933 33.744V28.088H206.805V24.14H208.933V20.304H213.385V24.14H217.837V28.088H213.385V32.764C213.385 33.212 213.451 33.5947 213.581 33.912C213.712 34.2293 213.917 34.4813 214.197 34.668C214.496 34.836 214.879 34.92 215.345 34.92C215.812 34.92 216.195 34.8547 216.493 34.724C216.792 34.5747 217.044 34.416 217.249 34.248L218.509 37.72C218.117 38.056 217.651 38.3267 217.109 38.532C216.587 38.7373 216.064 38.8773 215.541 38.952C215.019 39.0453 214.524 39.092 214.057 39.092ZM224.577 39.12C223.886 39.12 223.233 39.0267 222.617 38.84C222.001 38.6533 221.45 38.3733 220.965 38C220.479 37.6267 220.097 37.16 219.817 36.6C219.537 36.04 219.397 35.3867 219.397 34.64C219.397 33.576 219.611 32.736 220.041 32.12C220.489 31.4853 221.086 31.0187 221.833 30.72C222.598 30.4027 223.466 30.1973 224.437 30.104C225.407 30.0107 226.415 29.964 227.461 29.964H228.861C228.861 29.4973 228.767 29.096 228.581 28.76C228.413 28.4053 228.151 28.1253 227.797 27.92C227.442 27.7147 227.003 27.612 226.481 27.612C226.107 27.612 225.753 27.668 225.417 27.78C225.099 27.8733 224.829 28.0133 224.605 28.2C224.399 28.368 224.259 28.5827 224.185 28.844H219.733C219.863 27.9667 220.134 27.22 220.545 26.604C220.974 25.9693 221.497 25.456 222.113 25.064C222.747 24.672 223.457 24.3827 224.241 24.196C225.025 23.9907 225.827 23.888 226.649 23.888C228.814 23.888 230.429 24.4947 231.493 25.708C232.557 26.9213 233.089 28.676 233.089 30.972V38.896H229.029L229.001 36.964C228.534 37.6733 228.002 38.1773 227.405 38.476C226.807 38.7747 226.247 38.952 225.725 39.008C225.202 39.0827 224.819 39.12 224.577 39.12ZM225.697 35.676C226.257 35.676 226.779 35.5547 227.265 35.312C227.75 35.0507 228.142 34.724 228.441 34.332C228.758 33.9213 228.917 33.4827 228.917 33.016V32.792H226.173C225.874 32.792 225.575 32.8107 225.277 32.848C224.997 32.8853 224.745 32.96 224.521 33.072C224.297 33.1653 224.119 33.3053 223.989 33.492C223.858 33.6787 223.793 33.9213 223.793 34.22C223.793 34.5373 223.877 34.808 224.045 35.032C224.213 35.2373 224.437 35.396 224.717 35.508C225.015 35.62 225.342 35.676 225.697 35.676ZM235.924 38.896V19.072H240.376V38.896H235.924Z" fill="#14202E"/>
<path fill-rule="evenodd" clip-rule="evenodd" d="M29.6872 59.5602C46.0128 59.5602 59.2474 46.3256 59.2474 30C59.2474 13.6744 46.0128 0.439819 29.6872 0.439819C13.3615 0.439819 0.126953 13.6744 0.126953 30C0.126953 46.3256 13.3615 59.5602 29.6872 59.5602ZM38.9089 14.2102C39.3578 12.6157 37.8105 11.6729 36.3973 12.6797L16.6705 26.733C15.1379 27.8248 15.379 30 17.0326 30H22.2272V29.9598H32.3513L24.1021 32.8704L20.4654 45.7898C20.0166 47.3843 21.5637 48.3271 22.977 47.3203L42.7038 33.2671C44.2364 32.1753 43.9952 30 42.3417 30H34.4642L38.9089 14.2102Z" fill="#D8E28C"/>
</svg>
