<svg width="227" height="62" viewBox="0 0 227 62" fill="none" xmlns="http://www.w3.org/2000/svg">
<path d="M86.5155 40.12C85.0968 40.12 83.7808 39.896 82.5675 39.448C81.3541 38.9813 80.3461 38.2627 79.5435 37.292C78.7595 36.3027 78.2741 35.0427 78.0875 33.512H82.6795C82.8288 34.0907 83.0995 34.5573 83.4915 34.912C83.9021 35.2667 84.3968 35.528 84.9755 35.696C85.5541 35.8453 86.1701 35.92 86.8235 35.92C87.2715 35.92 87.7195 35.8733 88.1675 35.78C88.6155 35.668 88.9888 35.4813 89.2875 35.22C89.5861 34.9587 89.7355 34.5947 89.7355 34.128C89.7355 33.7733 89.6515 33.4933 89.4835 33.288C89.3155 33.064 89.0728 32.8867 88.7555 32.756C88.4568 32.6067 88.0835 32.476 87.6355 32.364C87.3555 32.2893 87.0661 32.224 86.7675 32.168C86.4688 32.112 86.1795 32.0467 85.8995 31.972C85.6195 31.8973 85.3395 31.8133 85.0595 31.72C84.2195 31.5147 83.4168 31.2813 82.6515 31.02C81.8861 30.74 81.2048 30.3853 80.6075 29.956C80.0288 29.5267 79.5715 28.9667 79.2355 28.276C78.8995 27.5853 78.7315 26.7267 78.7315 25.7C78.7315 24.7107 78.8995 23.8707 79.2355 23.18C79.5901 22.4707 80.0568 21.9013 80.6355 21.472C81.2328 21.024 81.8768 20.688 82.5675 20.464C83.2768 20.2213 83.9768 20.0533 84.6675 19.96C85.3768 19.8667 86.0301 19.82 86.6275 19.82C87.9528 19.82 89.1288 20.0627 90.1555 20.548C91.2008 21.0333 92.0408 21.752 92.6755 22.704C93.3288 23.6373 93.7208 24.7947 93.8515 26.176H89.4555C89.3808 25.6907 89.1848 25.2893 88.8675 24.972C88.5688 24.6547 88.1768 24.412 87.6915 24.244C87.2248 24.076 86.6835 23.992 86.0675 23.992C85.6941 23.992 85.3301 24.0293 84.9755 24.104C84.6395 24.16 84.3408 24.2533 84.0795 24.384C83.8368 24.5147 83.6315 24.692 83.4635 24.916C83.3141 25.1213 83.2395 25.3827 83.2395 25.7C83.2395 26.036 83.3515 26.3253 83.5755 26.568C83.7995 26.792 84.1168 26.988 84.5275 27.156C84.9568 27.324 85.4795 27.492 86.0955 27.66C86.5248 27.8093 86.9635 27.9307 87.4115 28.024C87.8781 28.0987 88.3261 28.2013 88.7555 28.332C89.5395 28.5187 90.2581 28.7427 90.9115 29.004C91.5835 29.2467 92.1715 29.564 92.6755 29.956C93.1795 30.3293 93.5715 30.8333 93.8515 31.468C94.1501 32.084 94.2995 32.868 94.2995 33.82C94.2995 34.9773 94.0848 35.9573 93.6555 36.76C93.2261 37.544 92.6381 38.188 91.8915 38.692C91.1448 39.196 90.3048 39.56 89.3715 39.784C88.4568 40.008 87.5048 40.12 86.5155 40.12ZM96.9065 39.896V20.072H101.359V30.572H103.039L106.399 25.14H111.383L106.735 32.168L111.747 39.896H106.623L103.179 34.52H101.359V39.896H96.9065ZM119.482 46.784C118.343 46.784 117.223 46.6347 116.122 46.336C115.039 46.0373 114.003 45.552 113.014 44.88L114.414 41.296C114.974 41.7067 115.618 42.0333 116.346 42.276C117.093 42.5187 117.942 42.64 118.894 42.64C120.294 42.64 121.349 42.3413 122.058 41.744C122.767 41.1467 123.122 40.232 123.122 39V38.552C122.805 38.944 122.413 39.252 121.946 39.476C121.479 39.7 120.994 39.8587 120.49 39.952C119.986 40.064 119.482 40.12 118.978 40.12C117.559 40.12 116.421 39.8213 115.562 39.224C114.703 38.6267 114.078 37.8053 113.686 36.76C113.294 35.7147 113.098 34.5387 113.098 33.232V25.14H117.494V32.364C117.494 32.7747 117.522 33.1947 117.578 33.624C117.634 34.0533 117.755 34.464 117.942 34.856C118.129 35.2293 118.409 35.5373 118.782 35.78C119.174 36.004 119.678 36.116 120.294 36.116C121.134 36.116 121.75 35.9107 122.142 35.5C122.534 35.0893 122.786 34.5853 122.898 33.988C123.01 33.372 123.066 32.756 123.066 32.14V25.14H127.518V37.068C127.518 38.5053 127.397 39.812 127.154 40.988C126.911 42.1827 126.491 43.2093 125.894 44.068C125.297 44.9267 124.475 45.5893 123.43 46.056C122.385 46.5413 121.069 46.784 119.482 46.784ZM138.919 39.896V20.072H148.187C149.064 20.072 149.867 20.1653 150.595 20.352C151.342 20.52 151.986 20.8093 152.527 21.22C153.087 21.612 153.526 22.144 153.843 22.816C154.16 23.4693 154.319 24.3 154.319 25.308C154.319 26.0733 154.142 26.8013 153.787 27.492C153.432 28.1827 152.928 28.7147 152.275 29.088C153.152 29.424 153.852 29.9747 154.375 30.74C154.916 31.5053 155.187 32.504 155.187 33.736C155.187 34.8933 154.963 35.864 154.515 36.648C154.086 37.432 153.488 38.0667 152.723 38.552C151.976 39.0373 151.099 39.3827 150.091 39.588C149.083 39.7933 148.01 39.896 146.871 39.896H138.919ZM143.455 35.724H147.543C148.01 35.724 148.43 35.6867 148.803 35.612C149.195 35.5187 149.522 35.3973 149.783 35.248C150.063 35.08 150.268 34.8653 150.399 34.604C150.548 34.324 150.623 34.0067 150.623 33.652C150.623 33.2787 150.558 32.9707 150.427 32.728C150.315 32.4853 150.138 32.2893 149.895 32.14C149.652 31.972 149.363 31.86 149.027 31.804C148.691 31.7293 148.308 31.692 147.879 31.692H143.455V35.724ZM143.455 27.968H147.067C147.515 27.968 147.907 27.9213 148.243 27.828C148.598 27.7347 148.887 27.604 149.111 27.436C149.335 27.2493 149.503 27.0347 149.615 26.792C149.746 26.5307 149.811 26.232 149.811 25.896C149.811 25.448 149.699 25.112 149.475 24.888C149.27 24.6453 148.971 24.4867 148.579 24.412C148.206 24.3187 147.767 24.272 147.263 24.272H143.455V27.968ZM157.528 39.896V25.14H161.448L161.756 26.708C162.129 26.1667 162.54 25.7653 162.988 25.504C163.454 25.2427 163.921 25.0747 164.388 25C164.873 24.9067 165.34 24.86 165.788 24.86C166.068 24.86 166.32 24.8693 166.544 24.888C166.786 24.888 166.945 24.8973 167.02 24.916V29.172H166.096C165.312 29.172 164.602 29.2933 163.968 29.536C163.352 29.7787 162.866 30.18 162.512 30.74C162.157 31.3 161.98 32.084 161.98 33.092V39.896H157.528ZM168.711 39.896V25.14H173.163V39.896H168.711ZM170.951 23.908C170.13 23.908 169.467 23.6653 168.963 23.18C168.478 22.6947 168.235 22.06 168.235 21.276C168.235 20.4733 168.497 19.82 169.019 19.316C169.542 18.812 170.195 18.56 170.979 18.56C171.726 18.56 172.361 18.8027 172.883 19.288C173.406 19.7733 173.667 20.4267 173.667 21.248C173.667 22.0507 173.415 22.6947 172.911 23.18C172.407 23.6653 171.754 23.908 170.951 23.908ZM182.144 40.12C180.632 40.12 179.381 39.7747 178.392 39.084C177.403 38.3747 176.665 37.4507 176.18 36.312C175.695 35.1547 175.452 33.8853 175.452 32.504C175.452 31.0107 175.723 29.6947 176.264 28.556C176.805 27.3987 177.599 26.4933 178.644 25.84C179.689 25.1867 180.977 24.86 182.508 24.86C183.031 24.86 183.525 24.916 183.992 25.028C184.477 25.14 184.925 25.308 185.336 25.532C185.765 25.7373 186.12 26.008 186.4 26.344V20.072H190.852V39.896H186.512V38.412C186.157 38.804 185.747 39.1213 185.28 39.364C184.832 39.6067 184.347 39.7933 183.824 39.924C183.301 40.0547 182.741 40.12 182.144 40.12ZM183.096 36.088C183.88 36.088 184.515 35.92 185 35.584C185.485 35.2293 185.84 34.7813 186.064 34.24C186.307 33.68 186.428 33.1013 186.428 32.504C186.428 31.8693 186.307 31.2813 186.064 30.74C185.84 30.1987 185.485 29.76 185 29.424C184.515 29.088 183.88 28.92 183.096 28.92C182.293 28.92 181.649 29.1067 181.164 29.48C180.697 29.8347 180.361 30.292 180.156 30.852C179.969 31.412 179.876 31.9907 179.876 32.588C179.876 33.036 179.932 33.4747 180.044 33.904C180.156 34.3147 180.333 34.688 180.576 35.024C180.837 35.3413 181.173 35.6027 181.584 35.808C181.995 35.9947 182.499 36.088 183.096 36.088ZM201.039 46.784C199.845 46.784 198.734 46.588 197.707 46.196C196.699 45.8227 195.85 45.2253 195.159 44.404C194.469 43.5827 194.002 42.5187 193.759 41.212H198.267C198.379 41.5293 198.557 41.8 198.799 42.024C199.061 42.248 199.378 42.416 199.751 42.528C200.125 42.6587 200.535 42.724 200.983 42.724C201.823 42.724 202.458 42.5467 202.887 42.192C203.335 41.8373 203.634 41.3613 203.783 40.764C203.951 40.1853 204.035 39.5693 204.035 38.916V38.188C203.681 38.7293 203.251 39.1307 202.747 39.392C202.262 39.6533 201.749 39.8307 201.207 39.924C200.685 40.036 200.199 40.092 199.751 40.092C198.183 40.092 196.905 39.7467 195.915 39.056C194.945 38.3653 194.235 37.46 193.787 36.34C193.358 35.2013 193.143 33.988 193.143 32.7C193.143 31.2627 193.405 29.956 193.927 28.78C194.45 27.5853 195.215 26.6427 196.223 25.952C197.25 25.2427 198.519 24.888 200.031 24.888C200.946 24.888 201.73 25.0373 202.383 25.336C203.055 25.616 203.634 26.008 204.119 26.512L204.511 25.14H208.543V37.432C208.543 39.3733 208.31 41.0347 207.843 42.416C207.395 43.816 206.621 44.8893 205.519 45.636C204.437 46.4013 202.943 46.784 201.039 46.784ZM200.787 36.116C201.553 36.116 202.178 35.948 202.663 35.612C203.149 35.276 203.513 34.828 203.755 34.268C203.998 33.708 204.119 33.1107 204.119 32.476C204.119 31.804 203.998 31.1973 203.755 30.656C203.531 30.1147 203.177 29.6853 202.691 29.368C202.225 29.032 201.618 28.864 200.871 28.864C200.031 28.864 199.369 29.06 198.883 29.452C198.398 29.844 198.053 30.3293 197.847 30.908C197.661 31.468 197.567 32.028 197.567 32.588C197.567 33.1853 197.67 33.7547 197.875 34.296C198.081 34.8373 198.417 35.276 198.883 35.612C199.369 35.948 200.003 36.116 200.787 36.116ZM218.255 40.12C216.724 40.12 215.399 39.812 214.279 39.196C213.177 38.58 212.328 37.712 211.731 36.592C211.133 35.4533 210.835 34.1187 210.835 32.588C210.835 31.0573 211.143 29.7133 211.759 28.556C212.375 27.3987 213.233 26.4933 214.335 25.84C215.455 25.1867 216.771 24.86 218.283 24.86C219.384 24.86 220.355 25.0373 221.195 25.392C222.053 25.7467 222.781 26.2507 223.379 26.904C223.995 27.5573 224.452 28.332 224.751 29.228C225.068 30.124 225.227 31.104 225.227 32.168C225.208 32.448 225.189 32.728 225.171 33.008C225.152 33.2693 225.105 33.54 225.031 33.82H215.231C215.287 34.2867 215.427 34.716 215.651 35.108C215.875 35.5 216.192 35.808 216.603 36.032C217.013 36.256 217.536 36.368 218.171 36.368C218.619 36.368 219.02 36.3213 219.375 36.228C219.748 36.116 220.056 35.9667 220.299 35.78C220.541 35.5747 220.7 35.3507 220.775 35.108H225.143C224.9 36.284 224.433 37.2453 223.743 37.992C223.052 38.72 222.231 39.2613 221.279 39.616C220.327 39.952 219.319 40.12 218.255 40.12ZM215.315 30.824H220.999C220.999 30.432 220.896 30.0493 220.691 29.676C220.504 29.3027 220.205 29.004 219.795 28.78C219.384 28.5373 218.852 28.416 218.199 28.416C217.564 28.416 217.032 28.5373 216.603 28.78C216.173 29.0227 215.856 29.3307 215.651 29.704C215.445 30.0773 215.333 30.4507 215.315 30.824Z" fill="#14202E"/>
<path fill-rule="evenodd" clip-rule="evenodd" d="M13.7208 6.37217C11.5727 7.87422 9.63022 9.65012 7.94395 11.6492C14.8348 11.0095 23.5894 12.0541 33.7533 17.1362C44.6071 22.5629 53.347 22.7464 59.4296 21.5731C58.8777 19.9021 58.1828 18.2961 57.3598 16.7693C50.3969 17.5037 41.4705 16.5317 31.0674 11.3303C24.4614 8.02729 18.6383 6.66668 13.7208 6.37217ZM53.2924 10.98C47.7937 4.83633 39.8029 0.969971 30.9089 0.969971C28.297 0.969971 25.7628 1.30346 23.3469 1.93015C26.6189 2.82295 30.0949 4.12911 33.7533 5.95836C41.3699 9.76656 47.9455 10.9927 53.2924 10.98ZM60.7301 27.4386C53.3817 28.8896 43.2344 28.5916 31.0674 22.5081C19.6927 16.8207 10.6393 16.8923 4.53341 18.2492C4.21825 18.3192 3.9105 18.3928 3.61018 18.4693C2.81077 20.2079 2.17265 22.0362 1.7148 23.9347C2.20381 23.804 2.70913 23.6799 3.2305 23.5639C10.638 21.9178 21.1042 21.9893 33.7533 28.3139C45.1283 34.0013 54.1816 33.9297 60.2876 32.5728C60.4967 32.5264 60.7029 32.4784 60.9056 32.4288C60.9278 31.9554 60.9389 31.479 60.9389 31C60.9389 29.795 60.8681 28.6066 60.7301 27.4386ZM59.9251 38.7662C52.6481 40.0384 42.7963 39.5501 31.0674 33.6859C19.6927 27.9985 10.6393 28.0701 4.53341 29.427C3.17808 29.7281 1.95885 30.0949 0.883306 30.4821C0.880373 30.6543 0.878906 30.827 0.878906 31C0.878906 47.5851 14.3238 61.03 30.9089 61.03C44.8084 61.03 56.5024 51.5869 59.9251 38.7662Z" fill="#D8E28C"/>
</svg>
