<svg width="263" height="62" viewBox="0 0 263 62" fill="none" xmlns="http://www.w3.org/2000/svg">
<path d="M79.1755 40V20.176H87.2115C88.7422 20.176 90.0768 20.4 91.2155 20.848C92.3728 21.296 93.2688 22.024 93.9035 23.032C94.5568 24.04 94.8835 25.4027 94.8835 27.12C94.8835 28.7067 94.5382 30.032 93.8475 31.096C93.1568 32.16 92.2142 32.9533 91.0195 33.476C89.8248 33.98 88.4622 34.232 86.9315 34.232H83.7115V40H79.1755ZM83.7115 30.2H86.9315C87.9955 30.2 88.8355 29.9387 89.4515 29.416C90.0862 28.8933 90.4035 28.128 90.4035 27.12C90.4035 26.224 90.1328 25.5427 89.5915 25.076C89.0688 24.6093 88.2008 24.376 86.9875 24.376H83.7115V30.2ZM103.714 40.224C102.183 40.224 100.858 39.916 99.7378 39.3C98.6364 38.684 97.7871 37.816 97.1898 36.696C96.5924 35.5573 96.2938 34.2227 96.2938 32.692C96.2938 31.1613 96.6018 29.8173 97.2178 28.66C97.8338 27.5027 98.6924 26.5973 99.7938 25.944C100.914 25.2907 102.23 24.964 103.742 24.964C104.843 24.964 105.814 25.1413 106.654 25.496C107.512 25.8507 108.24 26.3547 108.838 27.008C109.454 27.6613 109.911 28.436 110.21 29.332C110.527 30.228 110.686 31.208 110.686 32.272C110.667 32.552 110.648 32.832 110.63 33.112C110.611 33.3733 110.564 33.644 110.49 33.924H100.69C100.746 34.3907 100.886 34.82 101.11 35.212C101.334 35.604 101.651 35.912 102.062 36.136C102.472 36.36 102.995 36.472 103.63 36.472C104.078 36.472 104.479 36.4253 104.834 36.332C105.207 36.22 105.515 36.0707 105.758 35.884C106 35.6787 106.159 35.4547 106.234 35.212H110.602C110.359 36.388 109.892 37.3493 109.202 38.096C108.511 38.824 107.69 39.3653 106.738 39.72C105.786 40.056 104.778 40.224 103.714 40.224ZM100.774 30.928H106.458C106.458 30.536 106.355 30.1533 106.15 29.78C105.963 29.4067 105.664 29.108 105.254 28.884C104.843 28.6413 104.311 28.52 103.658 28.52C103.023 28.52 102.491 28.6413 102.062 28.884C101.632 29.1267 101.315 29.4347 101.11 29.808C100.904 30.1813 100.792 30.5547 100.774 30.928ZM117.635 40.224C116.945 40.224 116.291 40.1307 115.675 39.944C115.059 39.7573 114.509 39.4773 114.023 39.104C113.538 38.7307 113.155 38.264 112.875 37.704C112.595 37.144 112.455 36.4907 112.455 35.744C112.455 34.68 112.67 33.84 113.099 33.224C113.547 32.5893 114.145 32.1227 114.891 31.824C115.657 31.5067 116.525 31.3013 117.495 31.208C118.466 31.1147 119.474 31.068 120.519 31.068H121.919C121.919 30.6013 121.826 30.2 121.639 29.864C121.471 29.5093 121.21 29.2293 120.855 29.024C120.501 28.8187 120.062 28.716 119.539 28.716C119.166 28.716 118.811 28.772 118.475 28.884C118.158 28.9773 117.887 29.1173 117.663 29.304C117.458 29.472 117.318 29.6867 117.243 29.948H112.791C112.922 29.0707 113.193 28.324 113.603 27.708C114.033 27.0733 114.555 26.56 115.171 26.168C115.806 25.776 116.515 25.4867 117.299 25.3C118.083 25.0947 118.886 24.992 119.707 24.992C121.873 24.992 123.487 25.5987 124.551 26.812C125.615 28.0253 126.147 29.78 126.147 32.076V40H122.087L122.059 38.068C121.593 38.7773 121.061 39.2813 120.463 39.58C119.866 39.8787 119.306 40.056 118.783 40.112C118.261 40.1867 117.878 40.224 117.635 40.224ZM118.755 36.78C119.315 36.78 119.838 36.6587 120.323 36.416C120.809 36.1547 121.201 35.828 121.499 35.436C121.817 35.0253 121.975 34.5867 121.975 34.12V33.896H119.231C118.933 33.896 118.634 33.9147 118.335 33.952C118.055 33.9893 117.803 34.064 117.579 34.176C117.355 34.2693 117.178 34.4093 117.047 34.596C116.917 34.7827 116.851 35.0253 116.851 35.324C116.851 35.6413 116.935 35.912 117.103 36.136C117.271 36.3413 117.495 36.5 117.775 36.612C118.074 36.724 118.401 36.78 118.755 36.78ZM128.983 40V20.176H133.435V30.676H135.115L138.475 25.244H143.459L138.811 32.272L143.823 40H138.699L135.255 34.624H133.435V40H128.983ZM153.578 40V20.176H158.114V40H153.578ZM161.522 40V25.244H165.638L165.89 26.756C166.319 26.2707 166.795 25.8973 167.318 25.636C167.859 25.3747 168.391 25.1973 168.914 25.104C169.455 25.0107 169.922 24.964 170.314 24.964C171.714 24.964 172.806 25.2813 173.59 25.916C174.392 26.532 174.962 27.3627 175.298 28.408C175.634 29.4533 175.802 30.6013 175.802 31.852V40H171.378V32.328C171.378 31.936 171.34 31.5533 171.266 31.18C171.191 30.788 171.06 30.4333 170.874 30.116C170.706 29.78 170.463 29.5187 170.146 29.332C169.828 29.1267 169.418 29.024 168.914 29.024C168.26 29.024 167.71 29.1827 167.262 29.5C166.814 29.8173 166.487 30.2467 166.282 30.788C166.076 31.3107 165.974 31.8987 165.974 32.552V40H161.522ZM184.492 40.224C183.783 40.224 183.055 40.14 182.308 39.972C181.58 39.804 180.899 39.5333 180.264 39.16C179.63 38.7867 179.098 38.2733 178.668 37.62C178.239 36.9667 177.95 36.1453 177.8 35.156H182.28C182.392 35.4547 182.56 35.716 182.784 35.94C183.027 36.1453 183.316 36.304 183.652 36.416C184.007 36.5093 184.362 36.556 184.716 36.556C184.959 36.556 185.192 36.5373 185.416 36.5C185.64 36.4627 185.836 36.3973 186.004 36.304C186.191 36.2107 186.331 36.0987 186.424 35.968C186.518 35.8187 186.564 35.6413 186.564 35.436C186.564 35.1373 186.462 34.9227 186.256 34.792C186.07 34.6427 185.799 34.5307 185.444 34.456C185.108 34.3627 184.716 34.2693 184.268 34.176C183.54 34.0267 182.756 33.84 181.916 33.616C181.095 33.392 180.395 33.0933 179.816 32.72C179.536 32.5333 179.294 32.328 179.088 32.104C178.883 31.8613 178.715 31.6093 178.584 31.348C178.472 31.068 178.379 30.7787 178.304 30.48C178.248 30.1627 178.22 29.8267 178.22 29.472C178.22 28.6507 178.398 27.9507 178.752 27.372C179.126 26.7933 179.602 26.3267 180.18 25.972C180.778 25.6173 181.44 25.3653 182.168 25.216C182.896 25.048 183.624 24.964 184.352 24.964C185.379 24.964 186.331 25.132 187.208 25.468C188.086 25.7853 188.814 26.308 189.392 27.036C189.99 27.7453 190.363 28.6787 190.512 29.836H186.228C186.172 29.4627 185.958 29.164 185.584 28.94C185.211 28.716 184.744 28.604 184.184 28.604C183.979 28.604 183.774 28.632 183.568 28.688C183.363 28.7253 183.176 28.7813 183.008 28.856C182.859 28.912 182.728 29.0053 182.616 29.136C182.523 29.2667 182.476 29.4253 182.476 29.612C182.476 29.7427 182.514 29.8733 182.588 30.004C182.682 30.1347 182.812 30.256 182.98 30.368C183.167 30.4613 183.4 30.5547 183.68 30.648C184.315 30.7787 184.931 30.9093 185.528 31.04C186.126 31.152 186.695 31.264 187.236 31.376C187.834 31.5067 188.412 31.7213 188.972 32.02C189.532 32.3 189.99 32.7013 190.344 33.224C190.718 33.7467 190.904 34.456 190.904 35.352C190.904 36.2853 190.708 37.0693 190.316 37.704C189.943 38.3387 189.439 38.8333 188.804 39.188C188.17 39.5427 187.479 39.804 186.732 39.972C185.986 40.14 185.239 40.224 184.492 40.224ZM192.967 40V25.244H197.419V40H192.967ZM195.207 24.012C194.386 24.012 193.723 23.7693 193.219 23.284C192.734 22.7987 192.491 22.164 192.491 21.38C192.491 20.5773 192.752 19.924 193.275 19.42C193.798 18.916 194.451 18.664 195.235 18.664C195.982 18.664 196.616 18.9067 197.139 19.392C197.662 19.8773 197.923 20.5307 197.923 21.352C197.923 22.1547 197.671 22.7987 197.167 23.284C196.663 23.7693 196.01 24.012 195.207 24.012ZM207.604 46.888C206.409 46.888 205.299 46.692 204.272 46.3C203.264 45.9267 202.415 45.3293 201.724 44.508C201.033 43.6867 200.567 42.6227 200.324 41.316H204.832C204.944 41.6333 205.121 41.904 205.364 42.128C205.625 42.352 205.943 42.52 206.316 42.632C206.689 42.7627 207.1 42.828 207.548 42.828C208.388 42.828 209.023 42.6507 209.452 42.296C209.9 41.9413 210.199 41.4653 210.348 40.868C210.516 40.2893 210.6 39.6733 210.6 39.02V38.292C210.245 38.8333 209.816 39.2347 209.312 39.496C208.827 39.7573 208.313 39.9347 207.772 40.028C207.249 40.14 206.764 40.196 206.316 40.196C204.748 40.196 203.469 39.8507 202.48 39.16C201.509 38.4693 200.8 37.564 200.352 36.444C199.923 35.3053 199.708 34.092 199.708 32.804C199.708 31.3667 199.969 30.06 200.492 28.884C201.015 27.6893 201.78 26.7467 202.788 26.056C203.815 25.3467 205.084 24.992 206.596 24.992C207.511 24.992 208.295 25.1413 208.948 25.44C209.62 25.72 210.199 26.112 210.684 26.616L211.076 25.244H215.108V37.536C215.108 39.4773 214.875 41.1387 214.408 42.52C213.96 43.92 213.185 44.9933 212.084 45.74C211.001 46.5053 209.508 46.888 207.604 46.888ZM207.352 36.22C208.117 36.22 208.743 36.052 209.228 35.716C209.713 35.38 210.077 34.932 210.32 34.372C210.563 33.812 210.684 33.2147 210.684 32.58C210.684 31.908 210.563 31.3013 210.32 30.76C210.096 30.2187 209.741 29.7893 209.256 29.472C208.789 29.136 208.183 28.968 207.436 28.968C206.596 28.968 205.933 29.164 205.448 29.556C204.963 29.948 204.617 30.4333 204.412 31.012C204.225 31.572 204.132 32.132 204.132 32.692C204.132 33.2893 204.235 33.8587 204.44 34.4C204.645 34.9413 204.981 35.38 205.448 35.716C205.933 36.052 206.568 36.22 207.352 36.22ZM217.959 40V20.176H222.411V26.784C222.841 26.28 223.326 25.8973 223.867 25.636C224.409 25.3747 224.941 25.1973 225.463 25.104C226.005 25.0107 226.471 24.964 226.863 24.964C228.226 24.964 229.299 25.2813 230.083 25.916C230.867 26.532 231.418 27.3627 231.735 28.408C232.071 29.4533 232.239 30.6013 232.239 31.852V40H227.815V32.328C227.815 31.9733 227.778 31.6 227.703 31.208C227.629 30.816 227.489 30.4613 227.283 30.144C227.097 29.808 226.835 29.5373 226.499 29.332C226.163 29.1267 225.725 29.024 225.183 29.024C224.679 29.024 224.241 29.1267 223.867 29.332C223.513 29.5187 223.223 29.78 222.999 30.116C222.794 30.452 222.645 30.8347 222.551 31.264C222.458 31.6747 222.411 32.0947 222.411 32.524V40H217.959ZM241.21 40.196C239.511 40.196 238.232 39.72 237.374 38.768C236.515 37.7973 236.086 36.4907 236.086 34.848V29.192H233.958V25.244H236.086V21.408H240.538V25.244H244.99V29.192H240.538V33.868C240.538 34.316 240.603 34.6987 240.734 35.016C240.864 35.3333 241.07 35.5853 241.35 35.772C241.648 35.94 242.031 36.024 242.498 36.024C242.964 36.024 243.347 35.9587 243.646 35.828C243.944 35.6787 244.196 35.52 244.402 35.352L245.662 38.824C245.27 39.16 244.803 39.4307 244.262 39.636C243.739 39.8413 243.216 39.9813 242.694 40.056C242.171 40.1493 241.676 40.196 241.21 40.196ZM252.961 40.224C252.252 40.224 251.524 40.14 250.777 39.972C250.049 39.804 249.368 39.5333 248.733 39.16C248.098 38.7867 247.566 38.2733 247.137 37.62C246.708 36.9667 246.418 36.1453 246.269 35.156H250.749C250.861 35.4547 251.029 35.716 251.253 35.94C251.496 36.1453 251.785 36.304 252.121 36.416C252.476 36.5093 252.83 36.556 253.185 36.556C253.428 36.556 253.661 36.5373 253.885 36.5C254.109 36.4627 254.305 36.3973 254.473 36.304C254.66 36.2107 254.8 36.0987 254.893 35.968C254.986 35.8187 255.033 35.6413 255.033 35.436C255.033 35.1373 254.93 34.9227 254.725 34.792C254.538 34.6427 254.268 34.5307 253.913 34.456C253.577 34.3627 253.185 34.2693 252.737 34.176C252.009 34.0267 251.225 33.84 250.385 33.616C249.564 33.392 248.864 33.0933 248.285 32.72C248.005 32.5333 247.762 32.328 247.557 32.104C247.352 31.8613 247.184 31.6093 247.053 31.348C246.941 31.068 246.848 30.7787 246.773 30.48C246.717 30.1627 246.689 29.8267 246.689 29.472C246.689 28.6507 246.866 27.9507 247.221 27.372C247.594 26.7933 248.07 26.3267 248.649 25.972C249.246 25.6173 249.909 25.3653 250.637 25.216C251.365 25.048 252.093 24.964 252.821 24.964C253.848 24.964 254.8 25.132 255.677 25.468C256.554 25.7853 257.282 26.308 257.861 27.036C258.458 27.7453 258.832 28.6787 258.981 29.836H254.697C254.641 29.4627 254.426 29.164 254.053 28.94C253.68 28.716 253.213 28.604 252.653 28.604C252.448 28.604 252.242 28.632 252.037 28.688C251.832 28.7253 251.645 28.7813 251.477 28.856C251.328 28.912 251.197 29.0053 251.085 29.136C250.992 29.2667 250.945 29.4253 250.945 29.612C250.945 29.7427 250.982 29.8733 251.057 30.004C251.15 30.1347 251.281 30.256 251.449 30.368C251.636 30.4613 251.869 30.5547 252.149 30.648C252.784 30.7787 253.4 30.9093 253.997 31.04C254.594 31.152 255.164 31.264 255.705 31.376C256.302 31.5067 256.881 31.7213 257.441 32.02C258.001 32.3 258.458 32.7013 258.813 33.224C259.186 33.7467 259.373 34.456 259.373 35.352C259.373 36.2853 259.177 37.0693 258.785 37.704C258.412 38.3387 257.908 38.8333 257.273 39.188C256.638 39.5427 255.948 39.804 255.201 39.972C254.454 40.14 253.708 40.224 252.961 40.224Z" fill="#14202E"/>
<path fill-rule="evenodd" clip-rule="evenodd" d="M13.6544 6.37217C11.5063 7.87422 9.56381 9.65012 7.87755 11.6492C14.7684 11.0095 23.523 12.0541 33.6869 17.1362C44.5407 22.5629 53.2806 22.7464 59.3632 21.5731C58.8113 19.9021 58.1164 18.2961 57.2934 16.7693C50.3305 17.5037 41.404 16.5317 31.001 11.3303C24.395 8.02729 18.5719 6.66668 13.6544 6.37217ZM53.226 10.98C47.7273 4.83633 39.7365 0.969971 30.8425 0.969971C28.2306 0.969971 25.6964 1.30346 23.2805 1.93015C26.5525 2.82295 30.0285 4.12911 33.6869 5.95836C41.3034 9.76656 47.8791 10.9927 53.226 10.98ZM60.6637 27.4386C53.3153 28.8896 43.168 28.5916 31.001 22.5081C19.6263 16.8207 10.5729 16.8923 4.46701 18.2492C4.15184 18.3192 3.84409 18.3928 3.54378 18.4693C2.74436 20.2079 2.10625 22.0362 1.64839 23.9347C2.1374 23.804 2.64273 23.6799 3.16409 23.5639C10.5716 21.9178 21.0378 21.9893 33.6869 28.3139C45.0619 34.0013 54.1152 33.9297 60.2212 32.5728C60.4303 32.5264 60.6365 32.4784 60.8392 32.4288C60.8614 31.9554 60.8725 31.479 60.8725 31C60.8725 29.795 60.8017 28.6066 60.6637 27.4386ZM59.8587 38.7662C52.5817 40.0384 42.7299 39.5501 31.001 33.6859C19.6263 27.9985 10.5729 28.0701 4.46701 29.427C3.11168 29.7281 1.89244 30.0949 0.816899 30.4821C0.813967 30.6543 0.8125 30.827 0.8125 31C0.8125 47.5851 14.2574 61.03 30.8425 61.03C44.742 61.03 56.436 51.5869 59.8587 38.7662Z" fill="#D8E28C"/>
</svg>
