<svg width="217" height="60" viewBox="0 0 217 60" fill="none" xmlns="http://www.w3.org/2000/svg">
<path d="M77.6397 38.896V19.072H86.9077C87.785 19.072 88.5877 19.1654 89.3157 19.352C90.0624 19.52 90.7064 19.8094 91.2477 20.22C91.8077 20.612 92.2464 21.144 92.5637 21.816C92.881 22.4694 93.0397 23.3 93.0397 24.308C93.0397 25.0734 92.8624 25.8014 92.5077 26.492C92.153 27.1827 91.649 27.7147 90.9957 28.088C91.873 28.424 92.573 28.9747 93.0957 29.74C93.637 30.5054 93.9077 31.504 93.9077 32.736C93.9077 33.8934 93.6837 34.864 93.2357 35.648C92.8064 36.432 92.209 37.0667 91.4437 37.552C90.697 38.0374 89.8197 38.3827 88.8117 38.588C87.8037 38.7934 86.7304 38.896 85.5917 38.896H77.6397ZM82.1757 34.724H86.2637C86.7304 34.724 87.1504 34.6867 87.5237 34.612C87.9157 34.5187 88.2424 34.3974 88.5037 34.248C88.7837 34.08 88.989 33.8654 89.1197 33.604C89.269 33.324 89.3437 33.0067 89.3437 32.652C89.3437 32.2787 89.2784 31.9707 89.1477 31.728C89.0357 31.4854 88.8584 31.2894 88.6157 31.14C88.373 30.972 88.0837 30.86 87.7477 30.804C87.4117 30.7294 87.029 30.692 86.5997 30.692H82.1757V34.724ZM82.1757 26.968H85.7877C86.2357 26.968 86.6277 26.9214 86.9637 26.828C87.3184 26.7347 87.6077 26.604 87.8317 26.436C88.0557 26.2494 88.2237 26.0347 88.3357 25.792C88.4664 25.5307 88.5317 25.232 88.5317 24.896C88.5317 24.448 88.4197 24.112 88.1957 23.888C87.9904 23.6454 87.6917 23.4867 87.2997 23.412C86.9264 23.3187 86.4877 23.272 85.9837 23.272H82.1757V26.968ZM96.2483 38.896V19.072H100.7V38.896H96.2483ZM110.437 39.12C108.216 39.12 106.498 38.56 105.285 37.44C104.09 36.32 103.493 34.6307 103.493 32.372V24.14H107.945V32.036C107.945 32.6147 108.02 33.1374 108.169 33.604C108.337 34.052 108.608 34.416 108.981 34.696C109.354 34.9574 109.84 35.088 110.437 35.088C111.109 35.088 111.613 34.9387 111.949 34.64C112.285 34.3414 112.5 33.9587 112.593 33.492C112.705 33.0067 112.761 32.5214 112.761 32.036V24.14H117.185V32.372C117.185 34.7427 116.578 36.46 115.365 37.524C114.17 38.588 112.528 39.12 110.437 39.12ZM126.87 39.12C125.339 39.12 124.014 38.812 122.894 38.196C121.793 37.58 120.943 36.712 120.346 35.592C119.749 34.4534 119.45 33.1187 119.45 31.588C119.45 30.0574 119.758 28.7134 120.374 27.556C120.99 26.3987 121.849 25.4934 122.95 24.84C124.07 24.1867 125.386 23.86 126.898 23.86C127.999 23.86 128.97 24.0374 129.81 24.392C130.669 24.7467 131.397 25.2507 131.994 25.904C132.61 26.5574 133.067 27.332 133.366 28.228C133.683 29.124 133.842 30.104 133.842 31.168C133.823 31.448 133.805 31.728 133.786 32.008C133.767 32.2694 133.721 32.54 133.646 32.82H123.846C123.902 33.2867 124.042 33.716 124.266 34.108C124.49 34.5 124.807 34.808 125.218 35.032C125.629 35.256 126.151 35.368 126.786 35.368C127.234 35.368 127.635 35.3214 127.99 35.228C128.363 35.116 128.671 34.9667 128.914 34.78C129.157 34.5747 129.315 34.3507 129.39 34.108H133.758C133.515 35.284 133.049 36.2454 132.358 36.992C131.667 37.72 130.846 38.2614 129.894 38.616C128.942 38.952 127.934 39.12 126.87 39.12ZM123.93 29.824H129.614C129.614 29.432 129.511 29.0494 129.306 28.676C129.119 28.3027 128.821 28.004 128.41 27.78C127.999 27.5374 127.467 27.416 126.814 27.416C126.179 27.416 125.647 27.5374 125.218 27.78C124.789 28.0227 124.471 28.3307 124.266 28.704C124.061 29.0774 123.949 29.4507 123.93 29.824ZM145.791 38.896L141.115 19.072H146.155L149.291 33.716L152.483 19.072H158.307L161.471 33.716L164.467 19.072H169.255L164.635 38.896H158.475L155.311 24.7L152.175 38.896H145.791ZM174.452 39.12C173.761 39.12 173.108 39.0267 172.492 38.84C171.876 38.6534 171.325 38.3734 170.84 38C170.354 37.6267 169.972 37.16 169.692 36.6C169.412 36.04 169.272 35.3867 169.272 34.64C169.272 33.576 169.486 32.736 169.916 32.12C170.364 31.4854 170.961 31.0187 171.708 30.72C172.473 30.4027 173.341 30.1974 174.312 30.104C175.282 30.0107 176.29 29.964 177.336 29.964H178.736C178.736 29.4974 178.642 29.096 178.456 28.76C178.288 28.4054 178.026 28.1254 177.672 27.92C177.317 27.7147 176.878 27.612 176.356 27.612C175.982 27.612 175.628 27.668 175.292 27.78C174.974 27.8734 174.704 28.0134 174.48 28.2C174.274 28.368 174.134 28.5827 174.06 28.844H169.608C169.738 27.9667 170.009 27.22 170.42 26.604C170.849 25.9694 171.372 25.456 171.988 25.064C172.622 24.672 173.332 24.3827 174.116 24.196C174.9 23.9907 175.702 23.888 176.524 23.888C178.689 23.888 180.304 24.4947 181.368 25.708C182.432 26.9214 182.964 28.676 182.964 30.972V38.896H178.904L178.876 36.964C178.409 37.6734 177.877 38.1774 177.28 38.476C176.682 38.7747 176.122 38.952 175.6 39.008C175.077 39.0827 174.694 39.12 174.452 39.12ZM175.572 35.676C176.132 35.676 176.654 35.5547 177.14 35.312C177.625 35.0507 178.017 34.724 178.316 34.332C178.633 33.9214 178.792 33.4827 178.792 33.016V32.792H176.048C175.749 32.792 175.45 32.8107 175.152 32.848C174.872 32.8854 174.62 32.96 174.396 33.072C174.172 33.1654 173.994 33.3054 173.864 33.492C173.733 33.6787 173.668 33.9214 173.668 34.22C173.668 34.5374 173.752 34.808 173.92 35.032C174.088 35.2374 174.312 35.396 174.592 35.508C174.89 35.62 175.217 35.676 175.572 35.676ZM189.299 38.896L184.287 24.14H189.131L192.295 35.396L195.431 24.14H200.247L195.235 38.896H189.299ZM208.491 39.12C206.96 39.12 205.635 38.812 204.515 38.196C203.414 37.58 202.564 36.712 201.967 35.592C201.37 34.4534 201.071 33.1187 201.071 31.588C201.071 30.0574 201.379 28.7134 201.995 27.556C202.611 26.3987 203.47 25.4934 204.571 24.84C205.691 24.1867 207.007 23.86 208.519 23.86C209.62 23.86 210.591 24.0374 211.431 24.392C212.29 24.7467 213.018 25.2507 213.615 25.904C214.231 26.5574 214.688 27.332 214.987 28.228C215.304 29.124 215.463 30.104 215.463 31.168C215.444 31.448 215.426 31.728 215.407 32.008C215.388 32.2694 215.342 32.54 215.267 32.82H205.467C205.523 33.2867 205.663 33.716 205.887 34.108C206.111 34.5 206.428 34.808 206.839 35.032C207.25 35.256 207.772 35.368 208.407 35.368C208.855 35.368 209.256 35.3214 209.611 35.228C209.984 35.116 210.292 34.9667 210.535 34.78C210.778 34.5747 210.936 34.3507 211.011 34.108H215.379C215.136 35.284 214.67 36.2454 213.979 36.992C213.288 37.72 212.467 38.2614 211.515 38.616C210.563 38.952 209.555 39.12 208.491 39.12ZM205.551 29.824H211.235C211.235 29.432 211.132 29.0494 210.927 28.676C210.74 28.3027 210.442 28.004 210.031 27.78C209.62 27.5374 209.088 27.416 208.435 27.416C207.8 27.416 207.268 27.5374 206.839 27.78C206.41 28.0227 206.092 28.3307 205.887 28.704C205.682 29.0774 205.57 29.4507 205.551 29.824Z" fill="#14202E"/>
<path fill-rule="evenodd" clip-rule="evenodd" d="M29.902 59.5602C46.2277 59.5602 59.4622 46.3256 59.4622 30C59.4622 13.6744 46.2277 0.439819 29.902 0.439819C13.5763 0.439819 0.341797 13.6744 0.341797 30C0.341797 46.3256 13.5763 59.5602 29.902 59.5602ZM39.1238 14.2102C39.5726 12.6157 38.0253 11.6729 36.6122 12.6797L16.8853 26.733C15.3528 27.8248 15.5938 30 17.2474 30H22.4421V29.9598H32.5661L24.3169 32.8704L20.6803 45.7898C20.2314 47.3843 21.7786 48.3271 23.1919 47.3203L42.9187 33.2671C44.4512 32.1753 44.21 30 42.5566 30H34.6791L39.1238 14.2102Z" fill="#D8E28C"/>
</svg>
