<svg width="197" height="62" viewBox="0 0 197 62" fill="none" xmlns="http://www.w3.org/2000/svg">
<path d="M77.6219 39.896V36.34L87.5619 24.272H77.9019V20.072H93.5259V23.628L83.5859 35.724H93.3579V39.896H77.6219ZM102.599 40.12C101.068 40.12 99.7425 39.812 98.6225 39.196C97.5212 38.58 96.6719 37.712 96.0745 36.592C95.4772 35.4534 95.1785 34.1187 95.1785 32.588C95.1785 31.0574 95.4865 29.7134 96.1025 28.556C96.7185 27.3987 97.5772 26.4934 98.6785 25.84C99.7985 25.1867 101.115 24.86 102.627 24.86C103.728 24.86 104.699 25.0374 105.539 25.392C106.397 25.7467 107.125 26.2507 107.723 26.904C108.339 27.5574 108.796 28.332 109.095 29.228C109.412 30.124 109.571 31.104 109.571 32.168C109.552 32.448 109.533 32.728 109.515 33.008C109.496 33.2694 109.449 33.54 109.375 33.82H99.5745C99.6305 34.2867 99.7705 34.716 99.9945 35.108C100.219 35.5 100.536 35.808 100.947 36.032C101.357 36.256 101.88 36.368 102.515 36.368C102.963 36.368 103.364 36.3214 103.719 36.228C104.092 36.116 104.4 35.9667 104.643 35.78C104.885 35.5747 105.044 35.3507 105.119 35.108H109.487C109.244 36.284 108.777 37.2454 108.087 37.992C107.396 38.72 106.575 39.2614 105.623 39.616C104.671 39.952 103.663 40.12 102.599 40.12ZM99.6585 30.824H105.343C105.343 30.432 105.24 30.0494 105.035 29.676C104.848 29.3027 104.549 29.004 104.139 28.78C103.728 28.5374 103.196 28.416 102.543 28.416C101.908 28.416 101.376 28.5374 100.947 28.78C100.517 29.0227 100.2 29.3307 99.9945 29.704C99.7892 30.0774 99.6772 30.4507 99.6585 30.824ZM111.844 39.896V25.14H115.96L116.212 26.652C116.641 26.1667 117.117 25.7934 117.64 25.532C118.181 25.2707 118.713 25.0934 119.236 25C119.777 24.9067 120.244 24.86 120.636 24.86C122.036 24.86 123.128 25.1774 123.912 25.812C124.715 26.428 125.284 27.2587 125.62 28.304C125.956 29.3494 126.124 30.4974 126.124 31.748V39.896H121.7V32.224C121.7 31.832 121.663 31.4494 121.588 31.076C121.513 30.684 121.383 30.3294 121.196 30.012C121.028 29.676 120.785 29.4147 120.468 29.228C120.151 29.0227 119.74 28.92 119.236 28.92C118.583 28.92 118.032 29.0787 117.584 29.396C117.136 29.7134 116.809 30.1427 116.604 30.684C116.399 31.2067 116.296 31.7947 116.296 32.448V39.896H111.844ZM135.767 40.12C134.236 40.12 132.911 39.812 131.791 39.196C130.689 38.58 129.84 37.712 129.243 36.592C128.645 35.4534 128.347 34.1187 128.347 32.588C128.347 31.0574 128.655 29.7134 129.271 28.556C129.887 27.3987 130.745 26.4934 131.847 25.84C132.967 25.1867 134.283 24.86 135.795 24.86C136.896 24.86 137.867 25.0374 138.707 25.392C139.565 25.7467 140.293 26.2507 140.891 26.904C141.507 27.5574 141.964 28.332 142.263 29.228C142.58 30.124 142.739 31.104 142.739 32.168C142.72 32.448 142.701 32.728 142.683 33.008C142.664 33.2694 142.617 33.54 142.543 33.82H132.743C132.799 34.2867 132.939 34.716 133.163 35.108C133.387 35.5 133.704 35.808 134.115 36.032C134.525 36.256 135.048 36.368 135.683 36.368C136.131 36.368 136.532 36.3214 136.887 36.228C137.26 36.116 137.568 35.9667 137.811 35.78C138.053 35.5747 138.212 35.3507 138.287 35.108H142.655C142.412 36.284 141.945 37.2454 141.255 37.992C140.564 38.72 139.743 39.2614 138.791 39.616C137.839 39.952 136.831 40.12 135.767 40.12ZM132.827 30.824H138.511C138.511 30.432 138.408 30.0494 138.203 29.676C138.016 29.3027 137.717 29.004 137.307 28.78C136.896 28.5374 136.364 28.416 135.711 28.416C135.076 28.416 134.544 28.5374 134.115 28.78C133.685 29.0227 133.368 29.3307 133.163 29.704C132.957 30.0774 132.845 30.4507 132.827 30.824ZM143.395 39.896L148.519 32.364L143.675 25.14H148.771L151.403 29.452L154.007 25.14H158.991L154.091 32.448L159.327 39.896H154.175L151.263 35.332L148.323 39.896H143.395Z" fill="#14202E"/>
<path fill-rule="evenodd" clip-rule="evenodd" d="M13.6193 6.37217C11.4711 7.87422 9.52865 9.65012 7.84239 11.6492C14.7332 11.0095 23.4878 12.0541 33.6518 17.1362C44.5055 22.5629 53.2455 22.7464 59.3281 21.5731C58.7761 19.9021 58.0812 18.2961 57.2582 16.7693C50.2953 17.5037 41.3689 16.5317 30.9659 11.3303C24.3599 8.02729 18.5368 6.66668 13.6193 6.37217ZM53.1908 10.98C47.6922 4.83633 39.7013 0.969971 30.8073 0.969971C28.1955 0.969971 25.6612 1.30346 23.2453 1.93015C26.5174 2.82295 29.9934 4.12911 33.6518 5.95836C41.2683 9.76656 47.844 10.9927 53.1908 10.98ZM60.6285 27.4386C53.2802 28.8896 43.1329 28.5916 30.9659 22.5081C19.5911 16.8207 10.5378 16.8923 4.43185 18.2492C4.11668 18.3192 3.80894 18.3928 3.50862 18.4693C2.70921 20.2079 2.07109 22.0362 1.61323 23.9347C2.10225 23.804 2.60757 23.6799 3.12894 23.5639C10.5365 21.9178 21.0027 21.9893 33.6518 28.3139C45.0267 34.0013 54.08 33.9297 60.186 32.5728C60.3952 32.5264 60.6013 32.4784 60.804 32.4288C60.8263 31.9554 60.8374 31.479 60.8374 31C60.8374 29.795 60.7665 28.6066 60.6285 27.4386ZM59.8236 38.7662C52.5465 40.0384 42.6947 39.5501 30.9659 33.6859C19.5911 27.9985 10.5378 28.0701 4.43185 29.427C3.07652 29.7281 1.85728 30.0949 0.781743 30.4821C0.778811 30.6543 0.777344 30.827 0.777344 31C0.777344 47.5851 14.2222 61.03 30.8073 61.03C44.7069 61.03 56.4009 51.5869 59.8236 38.7662Z" fill="#D8E28C"/>
</svg>
