<svg width="170" height="41" viewBox="0 0 170 41" fill="none" xmlns="http://www.w3.org/2000/svg">
<path d="M51.6641 28.4569H63.6161V24.8569H55.9121V11.2969H51.6641V28.4569Z" fill="#14202E"/>
<path d="M70.6965 26.057C68.9925 26.057 68.1045 24.569 68.1045 22.337C68.1045 20.105 68.9925 18.593 70.6965 18.593C72.4005 18.593 73.3125 20.105 73.3125 22.337C73.3125 24.569 72.4005 26.057 70.6965 26.057ZM70.7205 28.841C74.6805 28.841 77.2725 26.033 77.2725 22.337C77.2725 18.641 74.6805 15.833 70.7205 15.833C66.7845 15.833 64.1445 18.641 64.1445 22.337C64.1445 26.033 66.7845 28.841 70.7205 28.841Z" fill="#14202E"/>
<path d="M84.1273 32.7046C85.9513 32.7046 87.5593 32.2966 88.6393 31.3366C89.6233 30.4486 90.2713 29.1046 90.2713 27.2566V16.1686H86.5273V17.4886H86.4793C85.7593 16.4566 84.6553 15.8086 83.0233 15.8086C79.9753 15.8086 77.8633 18.3526 77.8633 21.9526C77.8633 25.7206 80.4313 27.7846 83.1913 27.7846C84.6793 27.7846 85.6153 27.1846 86.3353 26.3686H86.4313V27.5926C86.4313 29.0806 85.7353 29.9446 84.0793 29.9446C82.7833 29.9446 82.1353 29.3926 81.9193 28.7446H78.1273C78.5113 31.3126 80.7433 32.7046 84.1273 32.7046ZM84.1033 24.8806C82.6393 24.8806 81.6793 23.6806 81.6793 21.8326C81.6793 19.9606 82.6393 18.7606 84.1033 18.7606C85.7353 18.7606 86.5993 20.1526 86.5993 21.8086C86.5993 23.5366 85.8073 24.8806 84.1033 24.8806Z" fill="#14202E"/>
<path d="M97.97 26.057C96.266 26.057 95.378 24.569 95.378 22.337C95.378 20.105 96.266 18.593 97.97 18.593C99.674 18.593 100.586 20.105 100.586 22.337C100.586 24.569 99.674 26.057 97.97 26.057ZM97.994 28.841C101.954 28.841 104.546 26.033 104.546 22.337C104.546 18.641 101.954 15.833 97.994 15.833C94.058 15.833 91.418 18.641 91.418 22.337C91.418 26.033 94.058 28.841 97.994 28.841Z" fill="#14202E"/>
<path d="M105.688 28.4569H109.599V16.1689H105.688V28.4569ZM105.688 14.4649H109.599V11.2969H105.688V14.4649Z" fill="#14202E"/>
<path d="M111.298 32.5126H115.21V27.1846H115.258C116.026 28.2166 117.154 28.8406 118.738 28.8406C121.954 28.8406 124.09 26.2966 124.09 22.3126C124.09 18.6166 122.098 15.8086 118.834 15.8086C117.154 15.8086 115.954 16.5526 115.114 17.6566H115.042V16.1686H111.298V32.5126ZM117.73 25.8166C116.05 25.8166 115.09 24.4486 115.09 22.4566C115.09 20.4646 115.954 18.9526 117.658 18.9526C119.338 18.9526 120.13 20.3446 120.13 22.4566C120.13 24.5446 119.218 25.8166 117.73 25.8166Z" fill="#14202E"/>
<path d="M130.458 28.8406C133.674 28.8406 136.05 27.4486 136.05 24.7606C136.05 21.6166 133.506 21.0646 131.346 20.7046C129.786 20.4166 128.394 20.2966 128.394 19.4326C128.394 18.6646 129.138 18.3046 130.098 18.3046C131.178 18.3046 131.922 18.6406 132.066 19.7446H135.666C135.474 17.3206 133.602 15.8086 130.122 15.8086C127.218 15.8086 124.818 17.1526 124.818 19.7446C124.818 22.6246 127.098 23.2006 129.234 23.5606C130.866 23.8486 132.354 23.9686 132.354 25.0726C132.354 25.8646 131.61 26.2966 130.434 26.2966C129.138 26.2966 128.322 25.6966 128.178 24.4726H124.482C124.602 27.1846 126.858 28.8406 130.458 28.8406Z" fill="#14202E"/>
<path d="M141.365 28.8169C143.069 28.8169 144.149 28.1449 145.037 26.9449H145.109V28.4569H148.853V16.1689H144.941V23.0329C144.941 24.4969 144.125 25.5049 142.781 25.5049C141.533 25.5049 140.933 24.7609 140.933 23.4169V16.1689H137.045V24.2329C137.045 26.9689 138.533 28.8169 141.365 28.8169Z" fill="#14202E"/>
<path d="M150.554 28.4566H154.466V21.5686C154.466 20.1046 155.186 19.0726 156.41 19.0726C157.586 19.0726 158.138 19.8406 158.138 21.1606V28.4566H162.05V21.5686C162.05 20.1046 162.746 19.0726 163.994 19.0726C165.17 19.0726 165.722 19.8406 165.722 21.1606V28.4566H169.634V20.4646C169.634 17.7046 168.242 15.8086 165.458 15.8086C163.874 15.8086 162.554 16.4806 161.594 17.9686H161.546C160.922 16.6486 159.698 15.8086 158.09 15.8086C156.314 15.8086 155.138 16.6486 154.37 17.9206H154.298V16.1686H150.554V28.4566Z" fill="#14202E"/>
<path fill-rule="evenodd" clip-rule="evenodd" d="M20.4873 40.457C31.533 40.457 40.4873 31.5027 40.4873 20.457C40.4873 9.41134 31.533 0.457031 20.4873 0.457031C9.44159 0.457031 0.487305 9.41134 0.487305 20.457C0.487305 31.5027 9.44159 40.457 20.4873 40.457ZM26.7266 9.77387C27.0303 8.69508 25.9834 8.05716 25.0273 8.73833L11.6804 18.2466C10.6435 18.9853 10.8066 20.457 11.9254 20.457H15.44V20.4298H22.2898L16.7085 22.3991L14.248 31.1402C13.9443 32.219 14.9911 32.8569 15.9473 32.1757L29.2942 22.6675C30.3311 21.9288 30.1679 20.457 29.0492 20.457H23.7194L26.7266 9.77387Z" fill="#D8E28C"/>
</svg>
