<svg width="202" height="41" viewBox="0 0 202 41" fill="none" xmlns="http://www.w3.org/2000/svg">
<path fill-rule="evenodd" clip-rule="evenodd" d="M25.5557 12.1423C23.9112 11.0435 21.9778 10.457 20 10.457V0.457031C23.9556 0.457031 27.8224 1.63001 31.1114 3.82764C34.4004 6.02526 36.9638 9.14884 38.4776 12.8033C39.9913 16.4578 40.3874 20.4792 39.6157 24.3588C38.844 28.2384 36.9392 31.8021 34.1421 34.5991C31.3451 37.3962 27.7814 39.301 23.9018 40.0727C20.0222 40.8444 16.0008 40.4483 12.3463 38.9346C8.6918 37.4208 5.56823 34.8574 3.37061 31.5684C1.17298 28.2794 0 24.4126 0 20.457H10C10 22.4348 10.5865 24.3682 11.6853 26.0127C12.7841 27.6572 14.3459 28.9389 16.1732 29.6958C18.0004 30.4527 20.0111 30.6507 21.9509 30.2648C23.8907 29.879 25.6725 28.9266 27.0711 27.5281C28.4696 26.1295 29.422 24.3477 29.8078 22.4079C30.1937 20.4681 29.9957 18.4574 29.2388 16.6302C28.4819 14.8029 27.2002 13.2411 25.5557 12.1423Z" fill="#D8E28C"/>
<path fill-rule="evenodd" clip-rule="evenodd" d="M9.99999 0.457037C9.99999 1.77025 9.74134 3.07061 9.23879 4.28387C8.73624 5.49713 7.99965 6.59952 7.07106 7.52811C6.14248 8.4567 5.04009 9.19328 3.82683 9.69584C2.61357 10.1984 1.31321 10.457 4.3711e-07 10.457L0 20.457C2.62643 20.457 5.22715 19.9397 7.65367 18.9346C10.0802 17.9295 12.285 16.4563 14.1421 14.5991C15.9993 12.742 17.4725 10.5372 18.4776 8.1107C19.4827 5.68419 20 3.08347 20 0.457031L9.99999 0.457037Z" fill="#D8E28C"/>
<path d="M125.619 14.9102H120.767V30.3225H125.619V14.9102Z" fill="#14202E"/>
<path d="M121.307 12.0236C121.814 12.531 122.448 12.7847 123.209 12.7847C123.97 12.7847 124.594 12.531 125.08 12.0236C125.567 11.4951 125.81 10.8608 125.81 10.1209C125.81 9.3598 125.567 8.72552 125.08 8.21814C124.594 7.71072 123.97 7.45703 123.209 7.45703C122.448 7.45703 121.814 7.71072 121.307 8.21814C120.82 8.72552 120.577 9.3598 120.577 10.1209C120.577 10.8608 120.82 11.4951 121.307 12.0236Z" fill="#14202E"/>
<path d="M51.1562 30.3217V7.93262H56.1352V25.9454H66.0613V30.3217H51.1562Z" fill="#14202E"/>
<path fill-rule="evenodd" clip-rule="evenodd" d="M75.0273 30.6705C73.4417 30.6705 72.0041 30.3217 70.7144 29.624C69.4459 28.9052 68.4417 27.9327 67.7017 26.7064C66.9618 25.4802 66.5918 24.106 66.5918 22.5838C66.5918 21.0616 66.9618 19.698 67.7017 18.4929C68.4417 17.2878 69.4459 16.3364 70.7144 15.6388C71.9829 14.9199 73.4206 14.5605 75.0273 14.5605C76.6341 14.5605 78.0717 14.9094 79.3402 15.607C80.6087 16.3047 81.613 17.2667 82.3529 18.4929C83.0929 19.698 83.4629 21.0616 83.4629 22.5838C83.4629 24.106 83.0929 25.4802 82.3529 26.7064C81.613 27.9327 80.6087 28.9052 79.3402 29.624C78.0717 30.3217 76.6341 30.6705 75.0273 30.6705ZM75.0273 26.2625C75.725 26.2625 76.3381 26.1145 76.8667 25.8185C77.3952 25.5014 77.7969 25.068 78.0717 24.5183C78.3677 23.9475 78.5157 23.3026 78.5157 22.5838C78.5157 21.865 78.3677 21.2413 78.0717 20.7128C77.7757 20.1631 77.3635 19.7403 76.8349 19.4443C76.3275 19.1271 75.725 18.9686 75.0273 18.9686C74.3508 18.9686 73.7483 19.1271 73.2197 19.4443C72.6912 19.7403 72.2789 20.1631 71.9829 20.7128C71.6869 21.2625 71.539 21.8967 71.539 22.6155C71.539 23.3132 71.6869 23.9475 71.9829 24.5183C72.2789 25.068 72.6912 25.5014 73.2197 25.8185C73.7483 26.1145 74.3508 26.2625 75.0273 26.2625Z" fill="#14202E"/>
<path fill-rule="evenodd" clip-rule="evenodd" d="M87.3056 36.3467C88.5952 36.9386 90.0857 37.2346 91.7771 37.2346C93.4261 37.2346 94.8955 36.9069 96.1851 36.2515C97.4748 35.5961 98.4895 34.6871 99.2295 33.5243C99.9694 32.3615 100.34 30.9873 100.34 29.4016V14.909H95.5825V15.9445C95.2287 15.6467 94.8269 15.3967 94.3775 15.1944C93.5529 14.7927 92.6121 14.5918 91.5551 14.5918C90.1386 14.5918 88.8806 14.9301 87.7813 15.6066C86.6818 16.262 85.8151 17.1711 85.1808 18.3339C84.5465 19.4756 84.2295 20.7652 84.2295 22.2029C84.2295 23.6194 84.5465 24.909 85.1808 26.0718C85.8151 27.2346 86.6818 28.1543 87.7813 28.8308C88.8806 29.5073 90.1386 29.8456 91.5551 29.8456C92.591 29.8456 93.5318 29.6448 94.3775 29.2431C94.7871 29.0485 95.1571 28.8192 95.4874 28.5551V29.5285C95.4874 30.6067 95.1386 31.4418 94.4409 32.0338C93.7644 32.6258 92.8236 32.9217 91.6185 32.9217C90.646 32.9217 89.8109 32.7526 89.1132 32.4143C88.4367 32.0761 87.8235 31.5792 87.2738 30.9238L84.2929 33.9048C85.0328 34.9619 86.0371 35.7759 87.3056 36.3467ZM94.2189 25.0887C93.7326 25.3847 93.1513 25.5327 92.4747 25.5327C91.7982 25.5327 91.2062 25.3847 90.6988 25.0887C90.2125 24.7927 89.832 24.391 89.5572 23.8836C89.2823 23.3551 89.1449 22.7948 89.1449 22.2029C89.1449 21.5686 89.2823 20.9978 89.5572 20.4904C89.832 19.983 90.2231 19.5813 90.7305 19.2853C91.2379 18.9893 91.8193 18.8413 92.4747 18.8413C93.1513 18.8413 93.7326 18.9893 94.2189 19.2853C94.7263 19.5813 95.1068 19.983 95.3606 20.4904C95.6354 20.9978 95.7728 21.5686 95.7728 22.2029C95.7728 22.8371 95.6354 23.4079 95.3606 23.9153C95.1068 24.4016 94.7263 24.7927 94.2189 25.0887Z" fill="#14202E"/>
<path fill-rule="evenodd" clip-rule="evenodd" d="M110.551 30.6705C108.965 30.6705 107.527 30.3217 106.238 29.624C104.969 28.9052 103.965 27.9327 103.225 26.7064C102.485 25.4802 102.115 24.106 102.115 22.5838C102.115 21.0616 102.485 19.698 103.225 18.4929C103.965 17.2878 104.969 16.3364 106.238 15.6388C107.506 14.9199 108.944 14.5605 110.551 14.5605C112.157 14.5605 113.595 14.9094 114.863 15.607C116.132 16.3047 117.136 17.2667 117.876 18.4929C118.616 19.698 118.986 21.0616 118.986 22.5838C118.986 24.106 118.616 25.4802 117.876 26.7064C117.136 27.9327 116.132 28.9052 114.863 29.624C113.595 30.3217 112.157 30.6705 110.551 30.6705ZM110.551 26.2625C111.248 26.2625 111.861 26.1145 112.39 25.8185C112.918 25.5014 113.32 25.068 113.595 24.5183C113.891 23.9475 114.039 23.3026 114.039 22.5838C114.039 21.865 113.891 21.2413 113.595 20.7128C113.299 20.1631 112.887 19.7403 112.358 19.4443C111.851 19.1271 111.248 18.9686 110.551 18.9686C109.874 18.9686 109.271 19.1271 108.743 19.4443C108.214 19.7403 107.802 20.1631 107.506 20.7128C107.21 21.2625 107.062 21.8967 107.062 22.6155C107.062 23.3132 107.21 23.9475 107.506 24.5183C107.802 25.068 108.214 25.5014 108.743 25.8185C109.271 26.1145 109.874 26.2625 110.551 26.2625Z" fill="#14202E"/>
<path fill-rule="evenodd" clip-rule="evenodd" d="M137.281 30.6384C136.246 30.6384 135.294 30.4376 134.427 30.0359C133.971 29.8245 133.559 29.5721 133.191 29.2787V36.8224H128.402V14.909H133.254V15.9727C133.606 15.6848 133.997 15.4359 134.427 15.2261C135.294 14.8032 136.246 14.5918 137.281 14.5918C138.74 14.5918 140.03 14.9407 141.15 15.6384C142.292 16.336 143.18 17.2874 143.814 18.4925C144.47 19.6976 144.797 21.0718 144.797 22.6151C144.797 24.1585 144.47 25.5327 143.814 26.7378C143.18 27.9429 142.292 28.8942 141.15 29.5919C140.03 30.2896 138.74 30.6384 137.281 30.6384ZM136.394 26.2621C137.091 26.2621 137.694 26.1035 138.201 25.7864C138.73 25.4693 139.142 25.0358 139.438 24.4862C139.734 23.9365 139.882 23.3128 139.882 22.6151C139.882 21.8963 139.734 21.2621 139.438 20.7124C139.142 20.1627 138.73 19.7399 138.201 19.4439C137.694 19.1267 137.102 18.9682 136.425 18.9682C135.749 18.9682 135.146 19.1267 134.618 19.4439C134.11 19.7399 133.709 20.1627 133.413 20.7124C133.117 21.2621 132.969 21.8963 132.969 22.6151C132.969 23.3128 133.106 23.9365 133.381 24.4862C133.677 25.0358 134.089 25.4693 134.618 25.7864C135.146 26.1035 135.738 26.2621 136.394 26.2621Z" fill="#14202E"/>
<path d="M149.546 30.3528C150.434 30.5854 151.332 30.7016 152.241 30.7016C154.165 30.7016 155.687 30.2577 156.808 29.3697C157.949 28.4818 158.52 27.2873 158.52 25.7862C158.52 24.8137 158.341 24.0314 157.981 23.4395C157.622 22.8264 157.157 22.3401 156.586 21.9807C156.015 21.6213 155.412 21.3358 154.778 21.1244C154.144 20.913 153.541 20.7333 152.971 20.5853C152.4 20.4373 151.935 20.2682 151.575 20.0779C151.216 19.8876 151.036 19.6339 151.036 19.3168C151.036 19.0208 151.174 18.7988 151.448 18.6508C151.723 18.4817 152.135 18.3972 152.685 18.3972C153.256 18.3972 153.837 18.5134 154.429 18.746C155.042 18.9785 155.592 19.3803 156.078 19.9511L158.837 17.1604C158.14 16.2724 157.231 15.6064 156.11 15.1625C155.011 14.6974 153.806 14.4648 152.495 14.4648C151.248 14.4648 150.159 14.6762 149.229 15.099C148.298 15.5219 147.579 16.1033 147.072 16.8432C146.565 17.562 146.311 18.4183 146.311 19.412C146.311 20.3422 146.491 21.1139 146.85 21.727C147.209 22.3189 147.675 22.7841 148.245 23.1223C148.816 23.4606 149.419 23.7249 150.053 23.9151C150.687 24.1054 151.29 24.2851 151.861 24.4543C152.431 24.6023 152.897 24.782 153.256 24.9934C153.637 25.1837 153.827 25.4691 153.827 25.8496C153.827 26.1456 153.668 26.3781 153.351 26.5473C153.055 26.7164 152.622 26.801 152.051 26.801C151.226 26.801 150.465 26.653 149.768 26.357C149.07 26.0399 148.467 25.6065 147.96 25.0568L145.201 27.8475C145.73 28.4183 146.364 28.9258 147.104 29.3697C147.865 29.7925 148.679 30.1202 149.546 30.3528Z" fill="#14202E"/>
<path d="M167.368 30.6713C165.952 30.6713 164.694 30.3859 163.595 29.8151C162.516 29.2231 161.671 28.4197 161.058 27.4049C160.444 26.369 160.138 25.1851 160.138 23.8531V14.9102H164.99V23.7897C164.99 24.3182 165.074 24.7728 165.244 25.1533C165.434 25.5339 165.709 25.8299 166.068 26.0413C166.428 26.2527 166.861 26.3584 167.368 26.3584C168.087 26.3584 168.658 26.1364 169.081 25.6924C169.504 25.2273 169.715 24.5931 169.715 23.7897V14.9102H174.567V23.8214C174.567 25.1745 174.261 26.369 173.647 27.4049C173.034 28.4197 172.189 29.2231 171.11 29.8151C170.032 30.3859 168.785 30.6713 167.368 30.6713Z" fill="#14202E"/>
<path d="M181.831 14.909H176.979V30.3213H181.831V21.3149C181.831 20.7864 181.937 20.3424 182.148 19.983C182.381 19.6236 182.688 19.3487 183.068 19.1585C183.449 18.947 183.882 18.8413 184.368 18.8413C185.066 18.8413 185.647 19.0633 186.112 19.5073C186.599 19.9301 186.842 20.5327 186.842 21.3149V30.3213H191.694V21.3149C191.694 20.7864 191.8 20.3424 192.011 19.983C192.244 19.6236 192.55 19.3487 192.931 19.1585C193.311 18.947 193.745 18.8413 194.231 18.8413C194.929 18.8413 195.51 19.0633 195.975 19.5073C196.461 19.9301 196.704 20.5327 196.704 21.3149V30.3213H201.557V20.7758C201.557 19.4862 201.282 18.3868 200.732 17.4777C200.203 16.5474 199.474 15.8392 198.544 15.353C197.635 14.8455 196.588 14.5918 195.404 14.5918C194.199 14.5918 193.11 14.8561 192.138 15.3847C191.506 15.7214 190.954 16.156 190.481 16.6884C190.04 16.1315 189.504 15.6758 188.871 15.3212C188.026 14.835 187.064 14.5918 185.986 14.5918C184.844 14.5918 183.819 14.835 182.91 15.3212C182.514 15.5235 182.155 15.7658 181.831 16.0481V14.909Z" fill="#14202E"/>
</svg>
