<svg width="168" height="41" viewBox="0 0 168 41" fill="none" xmlns="http://www.w3.org/2000/svg">
<path d="M49.1631 28.9569H61.1151V25.3569H53.4111V11.7969H49.1631V28.9569Z" fill="#14202E"/>
<path d="M68.1965 26.557C66.4925 26.557 65.6045 25.069 65.6045 22.837C65.6045 20.605 66.4925 19.093 68.1965 19.093C69.9005 19.093 70.8125 20.605 70.8125 22.837C70.8125 25.069 69.9005 26.557 68.1965 26.557ZM68.2205 29.341C72.1805 29.341 74.7725 26.533 74.7725 22.837C74.7725 19.141 72.1805 16.333 68.2205 16.333C64.2845 16.333 61.6445 19.141 61.6445 22.837C61.6445 26.533 64.2845 29.341 68.2205 29.341Z" fill="#14202E"/>
<path d="M81.6263 33.2046C83.4503 33.2046 85.0583 32.7966 86.1383 31.8366C87.1223 30.9486 87.7703 29.6046 87.7703 27.7566V16.6686H84.0263V17.9886H83.9783C83.2583 16.9566 82.1543 16.3086 80.5223 16.3086C77.4743 16.3086 75.3623 18.8526 75.3623 22.4526C75.3623 26.2206 77.9303 28.2846 80.6903 28.2846C82.1783 28.2846 83.1143 27.6846 83.8343 26.8686H83.9303V28.0926C83.9303 29.5806 83.2343 30.4446 81.5783 30.4446C80.2823 30.4446 79.6343 29.8926 79.4183 29.2446H75.6263C76.0103 31.8126 78.2423 33.2046 81.6263 33.2046ZM81.6023 25.3806C80.1383 25.3806 79.1783 24.1806 79.1783 22.3326C79.1783 20.4606 80.1383 19.2606 81.6023 19.2606C83.2343 19.2606 84.0983 20.6526 84.0983 22.3086C84.0983 24.0366 83.3063 25.3806 81.6023 25.3806Z" fill="#14202E"/>
<path d="M95.469 26.557C93.765 26.557 92.877 25.069 92.877 22.837C92.877 20.605 93.765 19.093 95.469 19.093C97.173 19.093 98.085 20.605 98.085 22.837C98.085 25.069 97.173 26.557 95.469 26.557ZM95.493 29.341C99.453 29.341 102.045 26.533 102.045 22.837C102.045 19.141 99.453 16.333 95.493 16.333C91.557 16.333 88.917 19.141 88.917 22.837C88.917 26.533 91.557 29.341 95.493 29.341Z" fill="#14202E"/>
<path d="M103.188 28.9569H107.1V16.6689H103.188V28.9569ZM103.188 14.9649H107.1V11.7969H103.188V14.9649Z" fill="#14202E"/>
<path d="M108.796 33.0126H112.708V27.6846H112.756C113.524 28.7166 114.652 29.3406 116.236 29.3406C119.452 29.3406 121.588 26.7966 121.588 22.8126C121.588 19.1166 119.596 16.3086 116.332 16.3086C114.652 16.3086 113.452 17.0526 112.612 18.1566H112.54V16.6686H108.796V33.0126ZM115.228 26.3166C113.548 26.3166 112.588 24.9486 112.588 22.9566C112.588 20.9646 113.452 19.4526 115.156 19.4526C116.836 19.4526 117.628 20.8446 117.628 22.9566C117.628 25.0446 116.716 26.3166 115.228 26.3166Z" fill="#14202E"/>
<path d="M127.958 29.3406C131.174 29.3406 133.55 27.9486 133.55 25.2606C133.55 22.1166 131.006 21.5646 128.846 21.2046C127.286 20.9166 125.894 20.7966 125.894 19.9326C125.894 19.1646 126.638 18.8046 127.598 18.8046C128.678 18.8046 129.422 19.1406 129.566 20.2446H133.166C132.974 17.8206 131.102 16.3086 127.622 16.3086C124.718 16.3086 122.318 17.6526 122.318 20.2446C122.318 23.1246 124.598 23.7006 126.734 24.0606C128.366 24.3486 129.854 24.4686 129.854 25.5726C129.854 26.3646 129.11 26.7966 127.934 26.7966C126.638 26.7966 125.822 26.1966 125.678 24.9726H121.982C122.102 27.6846 124.358 29.3406 127.958 29.3406Z" fill="#14202E"/>
<path d="M138.863 29.3169C140.567 29.3169 141.647 28.6449 142.535 27.4449H142.607V28.9569H146.351V16.6689H142.439V23.5329C142.439 24.9969 141.623 26.0049 140.279 26.0049C139.031 26.0049 138.431 25.2609 138.431 23.9169V16.6689H134.543V24.7329C134.543 27.4689 136.031 29.3169 138.863 29.3169Z" fill="#14202E"/>
<path d="M148.054 28.9566H151.966V22.0686C151.966 20.6046 152.686 19.5726 153.91 19.5726C155.086 19.5726 155.638 20.3406 155.638 21.6606V28.9566H159.55V22.0686C159.55 20.6046 160.246 19.5726 161.494 19.5726C162.67 19.5726 163.222 20.3406 163.222 21.6606V28.9566H167.134V20.9646C167.134 18.2046 165.742 16.3086 162.958 16.3086C161.374 16.3086 160.054 16.9806 159.094 18.4686H159.046C158.422 17.1486 157.198 16.3086 155.59 16.3086C153.814 16.3086 152.638 17.1486 151.87 18.4206H151.798V16.6686H148.054V28.9566Z" fill="#14202E"/>
<path fill-rule="evenodd" clip-rule="evenodd" d="M9.18652 4.0549C7.75586 5.05526 6.46216 6.23801 5.33911 7.56943C9.92841 7.14336 15.7589 7.83908 22.5281 11.2237C29.7567 14.8379 35.5775 14.9601 39.6285 14.1787C39.2609 13.0658 38.7981 11.9962 38.25 10.9794C33.6128 11.4685 27.6677 10.8211 20.7393 7.35701C16.3397 5.15721 12.4615 4.25104 9.18652 4.0549ZM35.5411 7.12368C31.879 3.03203 26.5571 0.457031 20.6337 0.457031C18.8942 0.457031 17.2064 0.679138 15.5974 1.09651C17.7766 1.69112 20.0916 2.56102 22.5281 3.7793C27.6007 6.31556 31.9801 7.13219 35.5411 7.12368ZM40.4946 18.0851C35.6006 19.0515 28.8425 18.853 20.7393 14.8014C13.1637 11.0136 7.13422 11.0613 3.06769 11.965C2.85779 12.0116 2.65283 12.0606 2.45282 12.1116C1.92041 13.2695 1.49542 14.4871 1.19049 15.7515C1.51618 15.6645 1.85272 15.5818 2.19995 15.5046C7.13336 14.4083 14.1038 14.4559 22.5281 18.6681C30.1038 22.4559 36.1333 22.4082 40.1999 21.5045C40.3392 21.4736 40.4766 21.4416 40.6115 21.4086C40.6264 21.0933 40.6337 20.776 40.6337 20.457C40.6337 19.6545 40.5865 18.863 40.4946 18.0851ZM39.9585 25.6293C35.112 26.4766 28.5507 26.1514 20.7393 22.2458C13.1637 18.458 7.13422 18.5057 3.06769 19.4094C2.16504 19.6099 1.35303 19.8542 0.636719 20.1121C0.634766 20.2268 0.633789 20.3418 0.633789 20.457C0.633789 31.5027 9.58808 40.457 20.6337 40.457C29.8909 40.457 37.6791 34.1679 39.9585 25.6293Z" fill="#D8E28C"/>
</svg>
