<svg width="168" height="41" viewBox="0 0 168 41" fill="none" xmlns="http://www.w3.org/2000/svg">
<path d="M49.5166 28.4862H61.4686V24.8862H53.7646V11.3262H49.5166V28.4862Z" fill="#14202E"/>
<path d="M68.55 26.0873C66.846 26.0873 65.958 24.5993 65.958 22.3673C65.958 20.1353 66.846 18.6233 68.55 18.6233C70.254 18.6233 71.166 20.1353 71.166 22.3673C71.166 24.5993 70.254 26.0873 68.55 26.0873ZM68.574 28.8713C72.534 28.8713 75.126 26.0633 75.126 22.3673C75.126 18.6713 72.534 15.8633 68.574 15.8633C64.638 15.8633 61.998 18.6713 61.998 22.3673C61.998 26.0633 64.638 28.8713 68.574 28.8713Z" fill="#14202E"/>
<path d="M81.9808 32.7339C83.8048 32.7339 85.4128 32.3259 86.4928 31.3659C87.4768 30.4779 88.1248 29.1339 88.1248 27.2859V16.1979H84.3808V17.5179H84.3328C83.6128 16.4859 82.5088 15.8379 80.8768 15.8379C77.8288 15.8379 75.7168 18.3819 75.7168 21.9819C75.7168 25.7499 78.2848 27.8139 81.0448 27.8139C82.5328 27.8139 83.4688 27.2139 84.1888 26.3979H84.2848V27.6219C84.2848 29.1099 83.5888 29.9739 81.9328 29.9739C80.6368 29.9739 79.9888 29.4219 79.7728 28.7739H75.9808C76.3648 31.3419 78.5968 32.7339 81.9808 32.7339ZM81.9568 24.9099C80.4928 24.9099 79.5328 23.7099 79.5328 21.8619C79.5328 19.9899 80.4928 18.7899 81.9568 18.7899C83.5888 18.7899 84.4528 20.1819 84.4528 21.8379C84.4528 23.5659 83.6608 24.9099 81.9568 24.9099Z" fill="#14202E"/>
<path d="M95.8225 26.0873C94.1185 26.0873 93.2305 24.5993 93.2305 22.3673C93.2305 20.1353 94.1185 18.6233 95.8225 18.6233C97.5265 18.6233 98.4385 20.1353 98.4385 22.3673C98.4385 24.5993 97.5265 26.0873 95.8225 26.0873ZM95.8465 28.8713C99.8065 28.8713 102.398 26.0633 102.398 22.3673C102.398 18.6713 99.8065 15.8633 95.8465 15.8633C91.9105 15.8633 89.2705 18.6713 89.2705 22.3673C89.2705 26.0633 91.9105 28.8713 95.8465 28.8713Z" fill="#14202E"/>
<path d="M103.541 28.4862H107.453V16.1982H103.541V28.4862ZM103.541 14.4942H107.453V11.3262H103.541V14.4942Z" fill="#14202E"/>
<path d="M109.15 32.5419H113.062V27.2139H113.11C113.878 28.2459 115.006 28.8699 116.59 28.8699C119.806 28.8699 121.942 26.3259 121.942 22.3419C121.942 18.6459 119.95 15.8379 116.686 15.8379C115.006 15.8379 113.806 16.5819 112.966 17.6859H112.894V16.1979H109.15V32.5419ZM115.582 25.8459C113.902 25.8459 112.942 24.4779 112.942 22.4859C112.942 20.4939 113.806 18.9819 115.51 18.9819C117.19 18.9819 117.982 20.3739 117.982 22.4859C117.982 24.5739 117.07 25.8459 115.582 25.8459Z" fill="#14202E"/>
<path d="M128.311 28.8699C131.527 28.8699 133.903 27.4779 133.903 24.7899C133.903 21.6459 131.359 21.0939 129.199 20.7339C127.639 20.4459 126.247 20.3259 126.247 19.4619C126.247 18.6939 126.991 18.3339 127.951 18.3339C129.031 18.3339 129.775 18.6699 129.919 19.7739H133.519C133.327 17.3499 131.455 15.8379 127.975 15.8379C125.071 15.8379 122.671 17.1819 122.671 19.7739C122.671 22.6539 124.951 23.2299 127.087 23.5899C128.719 23.8779 130.207 23.9979 130.207 25.1019C130.207 25.8939 129.463 26.3259 128.287 26.3259C126.991 26.3259 126.175 25.7259 126.031 24.5019H122.335C122.455 27.2139 124.711 28.8699 128.311 28.8699Z" fill="#14202E"/>
<path d="M139.217 28.8472C140.921 28.8472 142.001 28.1752 142.889 26.9752H142.961V28.4872H146.705V16.1992H142.793V23.0632C142.793 24.5272 141.977 25.5352 140.633 25.5352C139.385 25.5352 138.785 24.7912 138.785 23.4472V16.1992H134.897V24.2632C134.897 26.9992 136.385 28.8472 139.217 28.8472Z" fill="#14202E"/>
<path d="M148.407 28.4859H152.319V21.5979C152.319 20.1339 153.039 19.1019 154.263 19.1019C155.439 19.1019 155.991 19.8699 155.991 21.1899V28.4859H159.903V21.5979C159.903 20.1339 160.599 19.1019 161.847 19.1019C163.023 19.1019 163.575 19.8699 163.575 21.1899V28.4859H167.487V20.4939C167.487 17.7339 166.095 15.8379 163.311 15.8379C161.727 15.8379 160.407 16.5099 159.447 17.9979H159.399C158.775 16.6779 157.551 15.8379 155.943 15.8379C154.167 15.8379 152.991 16.6779 152.223 17.9499H152.151V16.1979H148.407V28.4859Z" fill="#14202E"/>
<path d="M25.6492 1.51089L21.7162 0.457031L18.4018 12.8266L15.4095 1.65927L11.4764 2.71313L14.7094 14.7786L6.65672 6.72601L3.77753 9.6052L12.6103 18.438L1.6105 15.4906L0.556641 19.4236L12.5753 22.644C12.4377 22.0505 12.3649 21.4321 12.3649 20.7967C12.3649 16.2991 16.0109 12.6531 20.5085 12.6531C25.0061 12.6531 28.6521 16.2991 28.6521 20.7967C28.6521 21.428 28.5802 22.0426 28.4443 22.6326L39.367 25.5593L40.4208 21.6263L28.3544 18.3931L39.3549 15.4455L38.301 11.5125L26.2351 14.7455L34.2877 6.69295L31.4085 3.81376L22.6983 12.524L25.6492 1.51089Z" fill="#D8E28C"/>
<path d="M28.4331 22.6787C28.0959 24.1043 27.384 25.385 26.4072 26.4111L34.3202 34.3242L37.1994 31.445L28.4331 22.6787Z" fill="#D8E28C"/>
<path d="M26.3274 26.4941C25.3388 27.5038 24.0895 28.2573 22.6885 28.6456L25.5679 39.3916L29.5009 38.3377L26.3274 26.4941Z" fill="#D8E28C"/>
<path d="M22.5416 28.6845C21.8916 28.8516 21.2103 28.9404 20.5082 28.9404C19.756 28.9404 19.0276 28.8384 18.3361 28.6475L15.4541 39.4033L19.3871 40.4571L22.5416 28.6845Z" fill="#D8E28C"/>
<path d="M18.197 28.6081C16.8174 28.2005 15.5903 27.4374 14.6219 26.4248L6.68945 34.3573L9.56864 37.2365L18.197 28.6081Z" fill="#D8E28C"/>
<path d="M14.5565 26.3542C13.6047 25.3352 12.9114 24.0716 12.5814 22.668L1.62305 25.6043L2.6769 29.5373L14.5565 26.3542Z" fill="#D8E28C"/>
</svg>
