<svg width="120" height="39" viewBox="0 0 120 39" fill="none" xmlns="http://www.w3.org/2000/svg">
<path d="M36.2518 29.7178V8.50777H40.0018V26.2978H51.0418V29.7178H36.2518ZM60.6322 29.9278C58.9922 29.9278 57.5922 29.5878 56.4322 28.9078C55.2922 28.2278 54.4222 27.2878 53.8222 26.0878C53.2422 24.8678 52.9522 23.4578 52.9522 21.8578C52.9522 20.2578 53.2522 18.8478 53.8522 17.6278C54.4722 16.3878 55.3522 15.4178 56.4922 14.7178C57.6522 14.0178 59.0422 13.6678 60.6622 13.6678C61.8622 13.6678 62.9122 13.8878 63.8122 14.3278C64.7122 14.7478 65.4622 15.3278 66.0622 16.0678C66.6822 16.8078 67.1422 17.6478 67.4422 18.5878C67.7422 19.5278 67.8822 20.5178 67.8622 21.5578C67.8422 21.7978 67.8222 22.0378 67.8022 22.2778C67.7822 22.4978 67.7522 22.7378 67.7122 22.9978H56.6122C56.6722 23.6978 56.8522 24.3378 57.1522 24.9178C57.4722 25.4978 57.9122 25.9578 58.4722 26.2978C59.0522 26.6378 59.7722 26.8078 60.6322 26.8078C61.1322 26.8078 61.6122 26.7478 62.0722 26.6278C62.5322 26.4878 62.9322 26.2878 63.2722 26.0278C63.6322 25.7678 63.8722 25.4378 63.9922 25.0378H67.6522C67.3922 26.1778 66.9122 27.1078 66.2122 27.8278C65.5122 28.5478 64.6722 29.0778 63.6922 29.4178C62.7322 29.7578 61.7122 29.9278 60.6322 29.9278ZM56.6722 20.2678H64.2922C64.2922 19.6078 64.1422 19.0078 63.8422 18.4678C63.5422 17.9278 63.1122 17.5078 62.5522 17.2078C62.0122 16.8878 61.3522 16.7278 60.5722 16.7278C59.7322 16.7278 59.0322 16.8978 58.4722 17.2378C57.9122 17.5778 57.4822 18.0178 57.1822 18.5578C56.8822 19.0978 56.7122 19.6678 56.6722 20.2678ZM75.8188 29.9278C75.0788 29.9278 74.3788 29.8278 73.7188 29.6278C73.0588 29.4278 72.4688 29.1378 71.9488 28.7578C71.4288 28.3578 71.0088 27.8678 70.6888 27.2878C70.3888 26.6878 70.2388 25.9878 70.2388 25.1878C70.2388 24.1678 70.4388 23.3378 70.8388 22.6978C71.2388 22.0378 71.7788 21.5378 72.4588 21.1978C73.1588 20.8578 73.9488 20.6278 74.8288 20.5078C75.7088 20.3678 76.6288 20.2978 77.5888 20.2978H80.6788C80.6788 19.5978 80.5688 18.9978 80.3488 18.4978C80.1288 17.9778 79.7788 17.5678 79.2988 17.2678C78.8388 16.9678 78.2388 16.8178 77.4988 16.8178C77.0188 16.8178 76.5688 16.8778 76.1488 16.9978C75.7488 17.0978 75.3988 17.2678 75.0988 17.5078C74.8188 17.7278 74.6188 18.0178 74.4988 18.3778H70.7488C70.8888 17.5578 71.1688 16.8578 71.5888 16.2778C72.0288 15.6778 72.5588 15.1878 73.1788 14.8078C73.8188 14.4278 74.5188 14.1478 75.2788 13.9678C76.0388 13.7678 76.8088 13.6678 77.5888 13.6678C79.8888 13.6678 81.5588 14.3278 82.5988 15.6478C83.6588 16.9678 84.1888 18.8178 84.1888 21.1978V29.7178H80.9488L80.8588 27.6778C80.3988 28.3578 79.8488 28.8578 79.2088 29.1778C78.5688 29.4978 77.9488 29.6978 77.3488 29.7778C76.7488 29.8778 76.2388 29.9278 75.8188 29.9278ZM76.5388 26.9578C77.3388 26.9578 78.0488 26.8078 78.6688 26.5078C79.2888 26.2078 79.7788 25.7878 80.1388 25.2478C80.5188 24.7078 80.7088 24.0878 80.7088 23.3878V22.8778H77.8288C77.3488 22.8778 76.8688 22.8978 76.3888 22.9378C75.9288 22.9578 75.5088 23.0378 75.1288 23.1778C74.7488 23.2978 74.4388 23.4878 74.1988 23.7478C73.9788 24.0078 73.8688 24.3778 73.8688 24.8578C73.8688 25.3378 73.9888 25.7278 74.2288 26.0278C74.4888 26.3278 74.8188 26.5578 75.2188 26.7178C75.6388 26.8778 76.0788 26.9578 76.5388 26.9578ZM94.1331 29.9278C92.5331 29.9278 91.2131 29.5678 90.1731 28.8478C89.1331 28.1078 88.3531 27.1278 87.8331 25.9078C87.3331 24.6878 87.0831 23.3278 87.0831 21.8278C87.0831 20.2678 87.3531 18.8778 87.8931 17.6578C88.4331 16.4178 89.2431 15.4478 90.3231 14.7478C91.4031 14.0278 92.7531 13.6678 94.3731 13.6678C94.9731 13.6678 95.5531 13.7378 96.1131 13.8778C96.6931 13.9978 97.2331 14.1978 97.7331 14.4778C98.2531 14.7378 98.6831 15.0878 99.0231 15.5278V8.50777H102.683V29.7178H99.1431L99.0831 27.7378C98.7031 28.2378 98.2531 28.6478 97.7331 28.9678C97.2331 29.2878 96.6731 29.5278 96.0531 29.6878C95.4331 29.8478 94.7931 29.9278 94.1331 29.9278ZM94.8231 26.6278C95.7831 26.6278 96.5731 26.4078 97.1931 25.9678C97.8131 25.5078 98.2731 24.9078 98.5731 24.1678C98.8931 23.4078 99.0531 22.6078 99.0531 21.7678C99.0531 20.8878 98.8931 20.0878 98.5731 19.3678C98.2731 18.6478 97.8131 18.0678 97.1931 17.6278C96.5731 17.1878 95.7831 16.9678 94.8231 16.9678C93.8031 16.9678 92.9931 17.1978 92.3931 17.6578C91.8131 18.1178 91.3831 18.7278 91.1031 19.4878C90.8431 20.2278 90.7131 21.0278 90.7131 21.8878C90.7131 22.5278 90.7831 23.1378 90.9231 23.7178C91.0831 24.2778 91.3231 24.7778 91.6431 25.2178C91.9631 25.6578 92.3831 26.0078 92.9031 26.2678C93.4231 26.5078 94.0631 26.6278 94.8231 26.6278ZM105.628 29.7178V26.8978L113.968 17.1478H105.628V13.9078H118.678V16.6978L110.278 26.4778H118.678V29.7178H105.628Z" fill="white"/>
<path d="M23.3176 12.9235C23.2703 14.5787 22.8446 16.6597 21.5677 18.4568C20.8583 19.45 21.0948 20.0648 21.615 20.9634C25.4458 27.0642 22.6082 35.4352 15.8925 37.989C11.4942 39.6443 6.15003 38.4146 3.07596 34.9622C-0.32917 31.1787 -0.991279 26.0238 1.51527 21.4836C2.22468 20.2067 2.22468 19.2608 1.56257 17.9366C-1.60609 11.6938 0.616699 4.50523 6.85943 1.80951C15.4668 -1.87938 23.2703 4.26877 23.3176 12.9235ZM20.007 12.2141C20.007 8.336 17.7369 5.26193 14.0953 4.12689C10.5483 3.03914 6.71756 4.45794 4.58935 7.72119C2.65032 10.6534 2.7922 14.7679 5.10958 17.4636C6.85943 19.5446 8.79847 21.4363 10.6429 23.4226C10.974 23.7537 11.3523 24.3685 11.778 24.0847C13.7643 22.8551 13.5751 24.5104 13.8116 25.5508C14.048 26.4494 14.3851 27.737 14.5743 28.6356C14.858 30.149 15.1121 30.3173 13.6933 29.939C12.6055 29.6552 10.6902 29.1924 9.64975 28.8614C8.79846 28.5776 7.52154 28.483 8.75117 27.1115C9.12952 26.6859 8.75117 26.2129 8.42012 25.8819C7.66342 25.0779 6.90673 24.2266 6.10274 23.4226C4.87311 22.193 4.58935 22.2403 3.92724 23.801C2.36656 27.5844 3.69077 31.699 7.1432 34.0636C10.3592 36.2391 15.1358 35.6716 17.8315 32.7394C20.7164 29.6181 20.9529 24.9833 18.3517 21.9092C16.6492 19.8756 14.852 17.9366 13.0549 15.9503C12.5346 15.3827 11.9671 14.8625 11.0686 15.43C10.3119 15.9503 10.0281 15.3827 9.83892 14.7206C9.74433 14.2477 9.49999 13.2249 9.4054 12.752C8.696 8.54289 7.75222 8.63106 11.914 9.86069C12.9072 10.1444 15.7033 10.5115 14.6156 12.4032C14.3791 12.7816 14.8047 13.1599 15.0885 13.491C15.9398 14.3896 16.7438 15.3354 17.595 16.234C18.3517 17.038 18.9193 16.8488 19.3449 15.9503C19.9597 14.8152 20.0543 13.491 20.007 12.2141Z" fill="url(#paint0_linear_106_3221)"/>
<defs>
<linearGradient id="paint0_linear_106_3221" x1="11.6696" y1="9.83878" x2="11.6696" y2="41.5813" gradientUnits="userSpaceOnUse">
<stop stop-color="#D8E28C"/>
<stop offset="1" stop-color="#B9C944"/>
</linearGradient>
</defs>
</svg>
