<svg width="61" height="61" viewBox="0 0 61 61" fill="none" xmlns="http://www.w3.org/2000/svg">
<g clip-path="url(#clip0_59_4487)">
<path d="M44.4289 5.13496C44.31 5.13737 44.1928 5.10613 44.0909 5.04482C39.9027 2.78215 35.2174 1.59725 30.4571 1.59693C30.2857 1.5752 30.128 1.49169 30.0138 1.36204C29.8995 1.23239 29.8365 1.06552 29.8365 0.892708C29.8365 0.7199 29.8995 0.553026 30.0138 0.423378C30.128 0.29373 30.2857 0.210211 30.4571 0.188482C35.455 0.185383 40.3743 1.43263 44.7669 3.81665C44.8487 3.8592 44.921 3.91773 44.9796 3.98878C45.0382 4.05982 45.082 4.14193 45.1083 4.23022C45.1346 4.31851 45.1428 4.41119 45.1326 4.50273C45.1223 4.59428 45.0938 4.68283 45.0486 4.76313C44.9891 4.87572 44.8998 4.96987 44.7906 5.03541C44.6814 5.10095 44.5563 5.13537 44.4289 5.13496Z" fill="#14202E"/>
<path d="M30.4796 60.1883C30.3082 60.1666 30.1506 60.0831 30.0363 59.9534C29.9221 59.8238 29.859 59.6569 29.859 59.4841C29.859 59.3113 29.9221 59.1444 30.0363 59.0148C30.1506 58.8851 30.3082 58.8016 30.4796 58.7799C36.3465 58.7899 42.0744 56.9945 46.8858 53.6373C51.6973 50.2802 55.3592 45.5239 57.3747 40.0141C59.3901 34.5042 59.6614 28.5077 58.1518 22.8383C56.6421 17.169 53.4246 12.1015 48.936 8.32355C48.7865 8.20252 48.6913 8.02709 48.6713 7.83586C48.6512 7.64463 48.7079 7.45325 48.8289 7.30383C48.9499 7.15441 49.1254 7.05919 49.3166 7.03912C49.5078 7.01905 49.6992 7.07576 49.8486 7.19679C54.556 11.1607 57.9307 16.4761 59.5153 22.4226C61.1 28.3691 60.8179 34.659 58.7073 40.4397C56.5967 46.2205 52.7597 51.2124 47.7164 54.739C42.6731 58.2656 36.6674 60.1562 30.5134 60.1545L30.4796 60.1883Z" fill="#14202E"/>
<path d="M49.3641 13.991C49.1759 13.991 48.9953 13.9162 48.8622 13.7831C48.7291 13.6499 48.6543 13.4694 48.6543 13.2811V7.64732C48.6572 7.46102 48.7333 7.28334 48.8661 7.15264C48.9989 7.02195 49.1778 6.94871 49.3641 6.94873H54.9979C55.1694 6.97046 55.327 7.05398 55.4412 7.18363C55.5555 7.31327 55.6185 7.48015 55.6185 7.65296C55.6185 7.82576 55.5555 7.99264 55.4412 8.12229C55.327 8.25193 55.1694 8.33545 54.9979 8.35718H50.0627V13.2811C50.0627 13.4675 49.9895 13.6463 49.8588 13.7791C49.7281 13.9119 49.5504 13.988 49.3641 13.991Z" fill="#14202E"/>
<path d="M30.4796 60.1885C25.4826 60.1798 20.5671 58.9209 16.181 56.5265C16.1004 56.4821 16.0293 56.4223 15.9718 56.3504C15.9142 56.2785 15.8714 56.196 15.8458 56.1076C15.8202 56.0192 15.8122 55.9266 15.8224 55.8351C15.8325 55.7436 15.8606 55.655 15.905 55.5744C15.9494 55.4937 16.0092 55.4226 16.0811 55.3651C16.1529 55.3076 16.2354 55.2648 16.3239 55.2392C16.4123 55.2135 16.5049 55.2056 16.5964 55.2157C16.6878 55.2259 16.7764 55.2539 16.8571 55.2983C21.0386 57.5714 25.7202 58.7679 30.4796 58.78C30.5796 58.7673 30.6811 58.7761 30.7774 58.8057C30.8737 58.8353 30.9626 58.885 31.0382 58.9517C31.1138 59.0183 31.1743 59.1002 31.2158 59.192C31.2573 59.2839 31.2787 59.3835 31.2787 59.4842C31.2787 59.585 31.2573 59.6846 31.2158 59.7764C31.1743 59.8682 31.1138 59.9502 31.0382 60.0168C30.9626 60.0834 30.8737 60.1332 30.7774 60.1628C30.6811 60.1924 30.5796 60.2011 30.4796 60.1885Z" fill="#14202E"/>
<path d="M11.6177 53.3037C11.4499 53.3074 11.2862 53.2515 11.1557 53.146C6.44907 49.1827 3.07466 43.8683 1.48972 37.9229C-0.0952119 31.9775 0.185957 25.6886 2.29513 19.9084C4.4043 14.1281 8.23949 9.13606 13.281 5.60861C18.3225 2.08117 24.3266 0.188908 30.4796 0.188251C30.5796 0.175582 30.6811 0.184337 30.7774 0.213934C30.8737 0.243531 30.9626 0.293292 31.0382 0.359907C31.1138 0.426523 31.1743 0.508468 31.2158 0.600293C31.2573 0.692118 31.2787 0.79172 31.2787 0.892476C31.2787 0.993233 31.2573 1.09283 31.2158 1.18466C31.1743 1.27648 31.1138 1.35843 31.0382 1.42505C30.9626 1.49166 30.8737 1.54142 30.7774 1.57102C30.6811 1.60062 30.5796 1.60937 30.4796 1.5967C24.6245 1.60415 18.9128 3.4094 14.117 6.76835C9.32112 10.1273 5.67239 14.8779 3.66413 20.3779C1.65588 25.8779 1.38496 31.8619 2.88803 37.5208C4.39109 43.1798 7.59563 48.2407 12.0684 52.0192C12.1392 52.0788 12.1975 52.1518 12.2398 52.2341C12.2822 52.3164 12.3078 52.4063 12.3151 52.4985C12.3225 52.5908 12.3114 52.6836 12.2826 52.7715C12.2538 52.8594 12.2078 52.9408 12.1472 53.0108C12.0872 53.0968 12.0082 53.1679 11.9164 53.2187C11.8246 53.2695 11.7224 53.2986 11.6177 53.3037Z" fill="#14202E"/>
<path d="M11.6177 53.4276H5.98385C5.8839 53.4403 5.78239 53.4316 5.68608 53.402C5.58977 53.3724 5.50086 53.3226 5.42527 53.256C5.34968 53.1894 5.28913 53.1074 5.24766 53.0156C5.20619 52.9238 5.18474 52.8242 5.18474 52.7234C5.18474 52.6227 5.20619 52.5231 5.24766 52.4312C5.28913 52.3394 5.34968 52.2575 5.42527 52.1908C5.50086 52.1242 5.58977 52.0745 5.68608 52.0449C5.78239 52.0153 5.8839 52.0065 5.98385 52.0192H10.9078V47.084C10.9295 46.9125 11.013 46.7549 11.1427 46.6407C11.2723 46.5264 11.4392 46.4634 11.612 46.4634C11.7848 46.4634 11.9517 46.5264 12.0814 46.6407C12.211 46.7549 12.2945 46.9125 12.3162 47.084V52.7178C12.3163 52.9041 12.243 53.083 12.1123 53.2158C11.9816 53.3486 11.804 53.4247 11.6177 53.4276Z" fill="#14202E"/>
<path d="M25.0261 51.174C24.9367 51.1898 24.8451 51.1898 24.7557 51.174L19.7303 49.1008C19.574 49.0335 19.447 48.9123 19.3726 48.7593C19.2981 48.6062 19.2811 48.4315 19.3247 48.267L20.4514 43.9853C19.0189 42.9471 17.7601 41.6883 16.7219 40.2557L12.4402 41.3825C12.2743 41.4278 12.0974 41.4104 11.9436 41.3334C11.7897 41.2565 11.6697 41.1255 11.6064 40.9656L9.55568 35.9177C9.49117 35.7604 9.48526 35.5852 9.53902 35.4239C9.59278 35.2626 9.70265 35.1259 9.84863 35.0388L13.6909 32.7853C13.4092 31.035 13.4092 29.251 13.6909 27.5008L9.84863 25.2473C9.70265 25.1601 9.59278 25.0235 9.53902 24.8622C9.48526 24.7009 9.49117 24.5257 9.55568 24.3684L11.6289 19.343C11.6962 19.1867 11.8174 19.0597 11.9704 18.9853C12.1235 18.9108 12.2982 18.8938 12.4627 18.9374L16.7444 20.0642C17.7826 18.6316 19.0414 17.3728 20.474 16.3346L19.3472 12.0529C19.3036 11.8884 19.3206 11.7137 19.3951 11.5606C19.4696 11.4076 19.5965 11.2864 19.7529 11.2191L24.7782 9.14585C24.9355 9.08135 25.1107 9.07544 25.272 9.1292C25.4333 9.18296 25.5699 9.29283 25.6571 9.43881L27.9106 13.2811C29.6608 12.9994 31.4449 12.9994 33.1951 13.2811L35.4486 9.43881C35.5358 9.29283 35.6724 9.18296 35.8337 9.1292C35.995 9.07544 36.1702 9.08135 36.3275 9.14585L41.3529 11.2191C41.5092 11.2864 41.6362 11.4076 41.7106 11.5606C41.7851 11.7137 41.8021 11.8884 41.7585 12.0529L40.6317 16.3346C42.0643 17.3728 43.3231 18.6316 44.3613 20.0642L48.643 18.9374C48.8089 18.8946 48.9847 18.9132 49.1379 18.9898C49.2912 19.0664 49.4115 19.1959 49.4768 19.3543L51.55 24.3684C51.6145 24.5257 51.6205 24.7009 51.5667 24.8622C51.5129 25.0235 51.4031 25.1601 51.2571 25.2473L47.4148 27.5008C47.6965 29.251 47.6965 31.035 47.4148 32.7853L51.2571 35.0388C51.4031 35.1259 51.5129 35.2626 51.5667 35.4239C51.6205 35.5852 51.6145 35.7604 51.55 35.9177L49.4768 40.943C49.4095 41.0994 49.2883 41.2263 49.1353 41.3008C48.9822 41.3753 48.8075 41.3922 48.643 41.3487L44.3613 40.2219C43.3231 41.6545 42.0643 42.9133 40.6317 43.9515L41.7585 48.2332C41.8021 48.3977 41.7851 48.5724 41.7106 48.7255C41.6362 48.8785 41.5092 48.9997 41.3529 49.067L36.2148 51.1177C36.0575 51.1822 35.8823 51.1881 35.721 51.1343C35.5597 51.0806 35.4231 50.9707 35.336 50.8247L33.0824 46.9825C31.3322 47.2641 29.5482 47.2641 27.7979 46.9825L25.5444 50.8247C25.4918 50.9198 25.4173 51.001 25.3273 51.0617C25.2372 51.1224 25.134 51.1609 25.0261 51.174ZM33.4881 45.5402C33.6111 45.5407 33.7318 45.5732 33.8385 45.6344C33.9451 45.6957 34.034 45.7836 34.0965 45.8895L36.2486 49.6304L40.1247 48.0191L38.9979 43.8613C38.9586 43.7202 38.9647 43.5703 39.0152 43.4328C39.0658 43.2953 39.1583 43.1772 39.2796 43.0952C40.8741 42.0056 42.2532 40.6303 43.3472 39.0388C43.4293 38.9175 43.5474 38.825 43.6849 38.7744C43.8224 38.7239 43.9723 38.7178 44.1134 38.7571L48.2599 39.8839L49.8712 36.0078L46.1416 33.867C46.0155 33.7929 45.9154 33.6818 45.8549 33.5486C45.7944 33.4155 45.7765 33.267 45.8036 33.1233C46.164 31.2248 46.164 29.2754 45.8036 27.3768C45.7747 27.2331 45.7919 27.0839 45.8526 26.9505C45.9132 26.817 46.0143 26.706 46.1416 26.6332L49.8824 24.4811L48.2712 20.605L44.1134 21.7318C43.9723 21.7711 43.8224 21.765 43.6849 21.7145C43.5474 21.6639 43.4293 21.5714 43.3472 21.4501C42.2609 19.8529 40.8851 18.4732 39.2909 17.3825C39.1695 17.3004 39.077 17.1823 39.0265 17.0448C38.9759 16.9073 38.9699 16.7574 39.0092 16.6163L40.136 12.4698L36.2486 10.7909L34.0965 14.5205C34.0256 14.6468 33.9167 14.7475 33.7851 14.8083C33.6536 14.869 33.5063 14.8866 33.3641 14.8585C31.4656 14.4981 29.5162 14.4981 27.6176 14.8585C27.4739 14.8873 27.3247 14.8702 27.1913 14.8095C27.0578 14.7489 26.9468 14.6478 26.874 14.5205L24.7219 10.7909L20.8458 12.4022L21.9726 16.5599C22.0119 16.7011 22.0058 16.851 21.9553 16.9885C21.9047 17.126 21.8122 17.2441 21.6909 17.3261C20.0964 18.4157 18.7173 19.791 17.6233 21.3825C17.5412 21.5038 17.4231 21.5963 17.2856 21.6469C17.1481 21.6974 16.9982 21.7035 16.8571 21.6642L12.7106 20.5374L11.0881 24.4247L14.8176 26.5656C14.9437 26.6396 15.0438 26.7508 15.1044 26.8839C15.1649 27.017 15.1828 27.1656 15.1557 27.3092C14.7952 29.2078 14.7952 31.1572 15.1557 33.0557C15.1845 33.1995 15.1674 33.3486 15.1067 33.4821C15.046 33.6156 14.9449 33.7266 14.8176 33.7994L11.0881 35.9515L12.6993 39.8275L16.8571 38.7008C16.9982 38.6615 17.1481 38.6675 17.2856 38.7181C17.4231 38.7686 17.5412 38.8611 17.6233 38.9825C18.7096 40.5797 20.0854 41.9593 21.6796 43.0501C21.801 43.1321 21.8935 43.2503 21.944 43.3878C21.9946 43.5252 22.0006 43.6752 21.9613 43.8163L20.8345 47.9628L24.7106 49.574L26.8627 45.8444C26.9323 45.7169 27.0411 45.6151 27.173 45.5542C27.3049 45.4934 27.4529 45.4766 27.5951 45.5064C29.4942 45.8614 31.4425 45.8614 33.3416 45.5064L33.4881 45.5402Z" fill="#14202E"/>
<path d="M34.2881 37.3712H26.705C26.0344 37.3713 25.3905 37.108 24.9121 36.638C24.4337 36.168 24.159 35.529 24.1472 34.8585C24.169 34.687 24.2525 34.5294 24.3821 34.4152C24.5118 34.3009 24.6786 34.2379 24.8515 34.2379C25.0243 34.2379 25.1911 34.3009 25.3208 34.4152C25.4504 34.5294 25.534 34.687 25.5557 34.8585C25.5557 35.1573 25.6744 35.4439 25.8857 35.6552C26.097 35.8665 26.3836 35.9852 26.6824 35.9852H34.2881C34.5869 35.9852 34.8735 35.8665 35.0848 35.6552C35.2961 35.4439 35.4148 35.1573 35.4148 34.8585V32.0416C35.4148 31.7427 35.2961 31.4561 35.0848 31.2448C34.8735 31.0335 34.5869 30.9148 34.2881 30.9148H26.705C26.0266 30.9148 25.376 30.6453 24.8964 30.1657C24.4167 29.686 24.1472 29.0354 24.1472 28.3571V25.5402C24.1472 24.8618 24.4167 24.2112 24.8964 23.7316C25.376 23.2519 26.0266 22.9824 26.705 22.9824H34.2881C34.624 22.9824 34.9566 23.0486 35.2669 23.1771C35.5772 23.3057 35.8592 23.4941 36.0967 23.7316C36.3342 23.9691 36.5226 24.251 36.6511 24.5614C36.7797 24.8717 36.8458 25.2043 36.8458 25.5402C36.8241 25.7116 36.7406 25.8692 36.6109 25.9835C36.4813 26.0977 36.3144 26.1608 36.1416 26.1608C35.9688 26.1608 35.8019 26.0977 35.6723 25.9835C35.5426 25.8692 35.4591 25.7116 35.4374 25.5402C35.4374 25.2413 35.3187 24.9547 35.1074 24.7434C34.896 24.5321 34.6094 24.4134 34.3106 24.4134H26.705C26.4061 24.4134 26.1195 24.5321 25.9082 24.7434C25.6969 24.9547 25.5782 25.2413 25.5782 25.5402V28.3571C25.5782 28.6559 25.6969 28.9425 25.9082 29.1538C26.1195 29.3651 26.4061 29.4838 26.705 29.4838H34.2881C34.624 29.4838 34.9566 29.55 35.2669 29.6785C35.5772 29.8071 35.8592 29.9955 36.0967 30.233C36.3342 30.4705 36.5226 30.7524 36.6511 31.0628C36.7797 31.3731 36.8458 31.7057 36.8458 32.0416V34.8585C36.834 35.529 36.5593 36.168 36.0809 36.638C35.6025 37.108 34.9587 37.3713 34.2881 37.3712Z" fill="#14202E"/>
<path d="M30.4796 24.3685C30.2933 24.3656 30.1156 24.2895 29.9849 24.1567C29.8543 24.0239 29.781 23.845 29.781 23.6587V20.7065C29.8028 20.5351 29.8863 20.3775 30.0159 20.2632C30.1456 20.149 30.3125 20.0859 30.4853 20.0859C30.6581 20.0859 30.8249 20.149 30.9546 20.2632C31.0842 20.3775 31.1678 20.5351 31.1895 20.7065V23.6587C31.1895 23.8469 31.1147 24.0275 30.9816 24.1606C30.8484 24.2937 30.6679 24.3685 30.4796 24.3685Z" fill="#14202E"/>
<path d="M30.4796 40.3688C30.384 40.369 30.2893 40.3495 30.2014 40.3116C30.1136 40.2737 30.0345 40.2182 29.969 40.1485C29.9035 40.0788 29.853 39.9963 29.8207 39.9063C29.7884 39.8163 29.7749 39.7206 29.781 39.6251V36.7181C29.7684 36.6181 29.7771 36.5166 29.8067 36.4203C29.8363 36.324 29.8861 36.2351 29.9527 36.1595C30.0193 36.0839 30.1012 36.0233 30.1931 35.9819C30.2849 35.9404 30.3845 35.9189 30.4853 35.9189C30.586 35.9189 30.6856 35.9404 30.7774 35.9819C30.8693 36.0233 30.9512 36.0839 31.0178 36.1595C31.0844 36.2351 31.1342 36.324 31.1638 36.4203C31.1934 36.5166 31.2021 36.6181 31.1895 36.7181V39.6251C31.1957 39.7215 31.1819 39.8182 31.1489 39.909C31.1159 39.9998 31.0644 40.0828 30.9977 40.1526C30.931 40.2225 30.8505 40.2778 30.7613 40.315C30.6721 40.3522 30.5762 40.3705 30.4796 40.3688Z" fill="#14202E"/>
</g>
<defs>
<clipPath id="clip0_59_4487">
<rect width="60" height="60" fill="white" transform="translate(0.48526 0.188477)"/>
</clipPath>
</defs>
</svg>
