<svg width="25" height="25" viewBox="0 0 25 25" fill="none" xmlns="http://www.w3.org/2000/svg">
<g clip-path="url(#clip0_57_3436)">
<path d="M18.5201 2.3138C18.4726 2.31476 18.4257 2.30227 18.3849 2.27774C16.7097 1.37268 14.8355 0.898716 12.9314 0.898588C12.8628 0.889896 12.7998 0.856489 12.7541 0.804629C12.7084 0.75277 12.6832 0.686021 12.6832 0.616898C12.6832 0.547774 12.7084 0.481025 12.7541 0.429166C12.7998 0.377306 12.8628 0.343899 12.9314 0.335207C14.9306 0.333968 16.8983 0.832868 18.6553 1.78648C18.688 1.80349 18.7169 1.82691 18.7404 1.85532C18.7639 1.88374 18.7814 1.91659 18.7919 1.9519C18.8024 1.98722 18.8057 2.02429 18.8016 2.06091C18.7975 2.09753 18.7861 2.13295 18.768 2.16507C18.7442 2.2101 18.7085 2.24776 18.6648 2.27398C18.6211 2.30019 18.5711 2.31396 18.5201 2.3138Z" fill="#114A43"/>
<path d="M12.9404 24.3352C12.8718 24.3266 12.8088 24.2931 12.7631 24.2413C12.7174 24.1894 12.6922 24.1227 12.6922 24.0536C12.6922 23.9844 12.7174 23.9177 12.7631 23.8658C12.8088 23.814 12.8718 23.7806 12.9404 23.7719C15.2872 23.7759 17.5783 23.0577 19.5029 21.7148C21.4275 20.372 22.8923 18.4695 23.6984 16.2655C24.5046 14.0616 24.6131 11.663 24.0093 9.39524C23.4054 7.12751 22.1184 5.1005 20.3229 3.58933C20.2632 3.54092 20.2251 3.47075 20.2171 3.39426C20.209 3.31776 20.2317 3.24121 20.2801 3.18144C20.3285 3.12168 20.3987 3.08359 20.4752 3.07556C20.5517 3.06753 20.6282 3.09022 20.688 3.13863C22.571 4.72418 23.9208 6.85036 24.5547 9.22895C25.1885 11.6075 25.0757 14.1235 24.2315 16.4358C23.3872 18.7481 21.8524 20.7449 19.8351 22.1555C17.8178 23.5661 15.4155 24.3224 12.9539 24.3217L12.9404 24.3352Z" fill="#114A43"/>
<path d="M20.4942 5.85645C20.4189 5.85645 20.3467 5.82654 20.2934 5.77329C20.2402 5.72004 20.2103 5.64781 20.2103 5.57251V3.31899C20.2114 3.24446 20.2419 3.17339 20.295 3.12112C20.3481 3.06884 20.4197 3.03954 20.4942 3.03955H22.7477C22.8163 3.04824 22.8794 3.08165 22.9251 3.13351C22.9708 3.18537 22.996 3.25212 22.996 3.32124C22.996 3.39036 22.9708 3.45711 22.9251 3.50897C22.8794 3.56083 22.8163 3.59424 22.7477 3.60293H20.7736V5.57251C20.7737 5.64704 20.7444 5.71859 20.6921 5.77171C20.6398 5.82483 20.5687 5.85527 20.4942 5.85645Z" fill="#114A43"/>
<path d="M12.9404 24.3353C10.9416 24.3318 8.97539 23.8283 7.22097 22.8705C7.18871 22.8527 7.16027 22.8288 7.13726 22.8001C7.11425 22.7713 7.09714 22.7383 7.08688 22.703C7.07663 22.6676 7.07344 22.6305 7.0775 22.594C7.08156 22.5574 7.09279 22.5219 7.11055 22.4897C7.1283 22.4574 7.15224 22.429 7.18099 22.406C7.20974 22.3829 7.24273 22.3658 7.2781 22.3556C7.31346 22.3453 7.3505 22.3421 7.3871 22.3462C7.42369 22.3503 7.45913 22.3615 7.49139 22.3792C9.16401 23.2885 11.0366 23.7671 12.9404 23.7719C12.9804 23.7668 13.021 23.7703 13.0595 23.7822C13.098 23.794 13.1336 23.8139 13.1638 23.8406C13.1941 23.8672 13.2183 23.9 13.2349 23.9367C13.2515 23.9735 13.2601 24.0133 13.2601 24.0536C13.2601 24.0939 13.2515 24.1337 13.2349 24.1705C13.2183 24.2072 13.1941 24.24 13.1638 24.2666C13.1336 24.2933 13.098 24.3132 13.0595 24.325C13.021 24.3369 12.9804 24.3404 12.9404 24.3353Z" fill="#114A43"/>
<path d="M5.39562 21.5815C5.3285 21.5829 5.26303 21.5606 5.21083 21.5184C3.32818 19.9331 1.97842 17.8073 1.34444 15.4291C0.71047 13.051 0.822938 10.5354 1.66661 8.22331C2.51027 5.91122 4.04435 3.91438 6.06096 2.50341C8.07756 1.09243 10.4792 0.335524 12.9404 0.335261C12.9804 0.330194 13.021 0.333696 13.0595 0.345535C13.098 0.357373 13.1336 0.377278 13.1638 0.403924C13.1941 0.43057 13.2183 0.463348 13.2349 0.500078C13.2515 0.536808 13.26 0.576649 13.26 0.616951C13.26 0.657254 13.2515 0.697095 13.2349 0.733825C13.2183 0.770555 13.1941 0.803333 13.1638 0.829979C13.1336 0.856625 13.098 0.87653 13.0595 0.888368C13.021 0.900207 12.9804 0.903709 12.9404 0.898642C10.5983 0.901622 8.31369 1.62372 6.39535 2.9673C4.477 4.31088 3.01751 6.21114 2.21421 8.41113C1.41091 10.6111 1.30254 13.0047 1.90377 15.2683C2.50499 17.5319 3.78681 19.5562 5.5759 21.0677C5.60423 21.0915 5.62754 21.1207 5.64449 21.1536C5.66144 21.1865 5.67167 21.2225 5.67461 21.2594C5.67754 21.2963 5.67312 21.3334 5.66159 21.3686C5.65006 21.4037 5.63166 21.4363 5.60745 21.4643C5.58342 21.4987 5.55184 21.5271 5.51512 21.5474C5.4784 21.5677 5.43753 21.5794 5.39562 21.5815Z" fill="#114A43"/>
<path d="M5.39562 21.6309H3.14209C3.10211 21.636 3.06151 21.6325 3.02298 21.6206C2.98446 21.6088 2.9489 21.5889 2.91866 21.5623C2.88842 21.5356 2.86421 21.5028 2.84762 21.4661C2.83103 21.4294 2.82245 21.3895 2.82245 21.3492C2.82245 21.3089 2.83103 21.2691 2.84762 21.2324C2.86421 21.1956 2.88842 21.1628 2.91866 21.1362C2.9489 21.1096 2.98446 21.0897 3.02298 21.0778C3.06151 21.066 3.10211 21.0625 3.14209 21.0675H5.11167V19.0935C5.12036 19.0249 5.15377 18.9618 5.20563 18.9161C5.25749 18.8704 5.32424 18.8452 5.39336 18.8452C5.46249 18.8452 5.52923 18.8704 5.58109 18.9161C5.63295 18.9618 5.66636 19.0249 5.67505 19.0935V21.347C5.67506 21.4215 5.64577 21.4931 5.59349 21.5462C5.54121 21.5993 5.47014 21.6297 5.39562 21.6309Z" fill="#114A43"/>
<path d="M10.759 20.7297C10.7232 20.736 10.6866 20.736 10.6508 20.7297L8.64068 19.9004C8.57815 19.8735 8.52736 19.825 8.49758 19.7638C8.46779 19.7026 8.461 19.6327 8.47843 19.5669L8.92913 17.8542C8.35611 17.4389 7.85258 16.9354 7.4373 16.3624L5.72463 16.8131C5.65825 16.8312 5.58752 16.8243 5.52598 16.7935C5.46444 16.7627 5.41641 16.7103 5.39111 16.6463L4.57082 14.6272C4.54502 14.5643 4.54266 14.4942 4.56416 14.4297C4.58567 14.3651 4.62961 14.3105 4.68801 14.2756L6.22491 13.3742C6.11225 12.6741 6.11225 11.9605 6.22491 11.2604L4.68801 10.359C4.62961 10.3242 4.58567 10.2695 4.56416 10.205C4.54266 10.1405 4.54502 10.0704 4.57082 10.0075L5.40012 7.99732C5.42703 7.93479 5.47551 7.884 5.53673 7.85422C5.59795 7.82443 5.66783 7.81764 5.73364 7.83507L7.44632 8.28577C7.8616 7.71275 8.36513 7.20922 8.93815 6.79394L8.48744 5.08127C8.47001 5.01546 8.47681 4.94557 8.50659 4.88435C8.53637 4.82313 8.58716 4.77465 8.6497 4.74774L10.6598 3.91845C10.7228 3.89265 10.7928 3.89028 10.8574 3.91179C10.9219 3.93329 10.9765 3.97724 11.0114 4.03563L11.9128 5.57253C12.6129 5.45987 13.3265 5.45987 14.0266 5.57253L14.928 4.03563C14.9629 3.97724 15.0175 3.93329 15.082 3.91179C15.1465 3.89028 15.2166 3.89265 15.2796 3.91845L17.2897 4.74774C17.3522 4.77465 17.403 4.82313 17.4328 4.88435C17.4626 4.94557 17.4694 5.01546 17.452 5.08127L17.0012 6.79394C17.5743 7.20922 18.0778 7.71275 18.4931 8.28577L20.2058 7.83507C20.2721 7.81793 20.3424 7.82538 20.4037 7.85603C20.465 7.88668 20.5132 7.93846 20.5393 8.00183L21.3686 10.0075C21.3944 10.0704 21.3967 10.1405 21.3752 10.205C21.3537 10.2695 21.3098 10.3242 21.2514 10.359L19.7145 11.2604C19.8271 11.9605 19.8271 12.6741 19.7145 13.3742L21.2514 14.2756C21.3098 14.3105 21.3537 14.3651 21.3752 14.4297C21.3967 14.4942 21.3944 14.5643 21.3686 14.6272L20.5393 16.6373C20.5124 16.6999 20.4639 16.7506 20.4027 16.7804C20.3414 16.8102 20.2716 16.817 20.2058 16.7996L18.4931 16.3489C18.0778 16.9219 17.5743 17.4254 17.0012 17.8407L17.452 19.5534C17.4694 19.6192 17.4626 19.6891 17.4328 19.7503C17.403 19.8115 17.3522 19.86 17.2897 19.8869L15.2345 20.7072C15.1716 20.733 15.1015 20.7353 15.037 20.7138C14.9724 20.6923 14.9178 20.6484 14.8829 20.59L13.9815 19.0531C13.2814 19.1658 12.5678 19.1658 11.8677 19.0531L10.9663 20.59C10.9453 20.628 10.9155 20.6605 10.8795 20.6848C10.8434 20.7091 10.8021 20.7245 10.759 20.7297ZM14.1438 18.4762C14.193 18.4764 14.2413 18.4894 14.2839 18.5139C14.3266 18.5384 14.3622 18.5735 14.3872 18.6159L15.248 20.1123L16.7984 19.4677L16.3477 17.8046C16.332 17.7482 16.3344 17.6882 16.3546 17.6332C16.3749 17.5782 16.4119 17.531 16.4604 17.4982C17.0982 17.0623 17.6498 16.5122 18.0874 15.8756C18.1203 15.8271 18.1675 15.7901 18.2225 15.7699C18.2775 15.7497 18.3375 15.7472 18.3939 15.763L20.0525 16.2137L20.697 14.6632L19.2052 13.8069C19.1548 13.7773 19.1147 13.7328 19.0905 13.6796C19.0663 13.6263 19.0591 13.5669 19.07 13.5094C19.2142 12.75 19.2142 11.9703 19.07 11.2108C19.0585 11.1533 19.0653 11.0937 19.0896 11.0403C19.1138 10.9869 19.1543 10.9425 19.2052 10.9134L20.7015 10.0525L20.057 8.50211L18.3939 8.95282C18.3375 8.96854 18.2775 8.96612 18.2225 8.9459C18.1675 8.92568 18.1203 8.88868 18.0874 8.84014C17.6529 8.20125 17.1026 7.64939 16.4649 7.2131C16.4164 7.18028 16.3794 7.13303 16.3591 7.07803C16.3389 7.02303 16.3365 6.96307 16.3522 6.90662L16.8029 5.24803L15.248 4.57648L14.3872 6.06831C14.3588 6.11884 14.3152 6.15913 14.2626 6.18341C14.21 6.20769 14.1511 6.21473 14.0942 6.20352C13.3348 6.05933 12.555 6.05933 11.7956 6.20352C11.7381 6.21505 11.6784 6.20819 11.6251 6.18392C11.5717 6.15966 11.5273 6.11921 11.4981 6.06831L10.6373 4.57648L9.08688 5.22098L9.53758 6.88408C9.55331 6.94053 9.55089 7.00049 9.53067 7.05549C9.51045 7.11049 9.47345 7.15774 9.42491 7.19056C8.7871 7.62639 8.23546 8.1765 7.79787 8.8131C7.76505 8.86164 7.71779 8.89864 7.6628 8.91886C7.6078 8.93908 7.54784 8.9415 7.49139 8.92577L5.8328 8.47507L5.18378 10.03L6.67561 10.8863C6.72604 10.916 6.76609 10.9604 6.79029 11.0137C6.81449 11.0669 6.82166 11.1263 6.81082 11.1838C6.66663 11.9432 6.66663 12.723 6.81082 13.4824C6.82235 13.5399 6.81549 13.5996 6.79123 13.6529C6.76696 13.7063 6.72651 13.7507 6.67561 13.7799L5.18378 14.6407L5.82829 16.1911L7.49139 15.7404C7.54784 15.7247 7.6078 15.7271 7.6628 15.7473C7.71779 15.7676 7.76505 15.8046 7.79787 15.8531C8.23239 16.492 8.78272 17.0438 9.4204 17.4801C9.46894 17.513 9.50594 17.5602 9.52616 17.6152C9.54638 17.6702 9.5488 17.7302 9.53308 17.7866L9.08237 19.4452L10.6328 20.0897L11.4936 18.5979C11.5215 18.5469 11.565 18.5062 11.6177 18.4818C11.6705 18.4574 11.7297 18.4507 11.7866 18.4627C12.5462 18.6046 13.3256 18.6046 14.0852 18.4627L14.1438 18.4762Z" fill="#114A43"/>
<path d="M14.4638 15.2086H11.4305C11.1623 15.2087 10.9048 15.1033 10.7134 14.9154C10.522 14.7274 10.4122 14.4718 10.4074 14.2035C10.4161 14.135 10.4495 14.0719 10.5014 14.0262C10.5533 13.9805 10.62 13.9553 10.6891 13.9553C10.7583 13.9553 10.825 13.9805 10.8769 14.0262C10.9287 14.0719 10.9621 14.135 10.9708 14.2035C10.9708 14.3231 11.0183 14.4377 11.1028 14.5222C11.1874 14.6068 11.302 14.6543 11.4215 14.6543H14.4638C14.5833 14.6543 14.698 14.6068 14.7825 14.5222C14.867 14.4377 14.9145 14.3231 14.9145 14.2035V13.0768C14.9145 12.9573 14.867 12.8426 14.7825 12.7581C14.698 12.6736 14.5833 12.6261 14.4638 12.6261H11.4305C11.1592 12.6261 10.899 12.5183 10.7071 12.3264C10.5152 12.1346 10.4074 11.8743 10.4074 11.603V10.4762C10.4074 10.2049 10.5152 9.94465 10.7071 9.75278C10.899 9.56092 11.1592 9.45312 11.4305 9.45312H14.4638C14.5981 9.45312 14.7312 9.47959 14.8553 9.531C14.9794 9.58242 15.0922 9.65778 15.1872 9.75278C15.2822 9.84779 15.3576 9.96057 15.409 10.0847C15.4604 10.2088 15.4869 10.3419 15.4869 10.4762C15.4782 10.5448 15.4448 10.6078 15.3929 10.6535C15.3411 10.6993 15.2743 10.7245 15.2052 10.7245C15.1361 10.7245 15.0693 10.6993 15.0175 10.6535C14.9656 10.6078 14.9322 10.5448 14.9235 10.4762C14.9235 10.3567 14.876 10.2421 14.7915 10.1575C14.707 10.073 14.5923 10.0255 14.4728 10.0255H11.4305C11.311 10.0255 11.1964 10.073 11.1118 10.1575C11.0273 10.2421 10.9798 10.3567 10.9798 10.4762V11.603C10.9798 11.7225 11.0273 11.8372 11.1118 11.9217C11.1964 12.0062 11.311 12.0537 11.4305 12.0537H14.4638C14.5981 12.0537 14.7312 12.0802 14.8553 12.1316C14.9794 12.183 15.0922 12.2583 15.1872 12.3533C15.2822 12.4484 15.3576 12.5611 15.409 12.6853C15.4604 12.8094 15.4869 12.9424 15.4869 13.0768V14.2035C15.4822 14.4718 15.3723 14.7274 15.1809 14.9154C14.9896 15.1033 14.732 15.2087 14.4638 15.2086Z" fill="#114A43"/>
<path d="M12.9404 10.0075C12.8659 10.0063 12.7948 9.97584 12.7425 9.92272C12.6903 9.8696 12.661 9.79805 12.661 9.72352V8.54267C12.6697 8.4741 12.7031 8.41105 12.7549 8.36535C12.8068 8.31965 12.8735 8.29443 12.9427 8.29443C13.0118 8.29443 13.0785 8.31965 13.1304 8.36535C13.1822 8.41105 13.2157 8.4741 13.2243 8.54267V9.72352C13.2243 9.79883 13.1944 9.87105 13.1412 9.9243C13.0879 9.97755 13.0157 10.0075 12.9404 10.0075Z" fill="#114A43"/>
<path d="M12.9404 16.4074C12.9021 16.4074 12.8643 16.3997 12.8291 16.3845C12.794 16.3694 12.7624 16.3471 12.7362 16.3193C12.71 16.2914 12.6898 16.2584 12.6768 16.2224C12.6639 16.1864 12.6585 16.1481 12.661 16.1099V14.9471C12.6559 14.9071 12.6594 14.8665 12.6712 14.828C12.6831 14.7895 12.703 14.7539 12.7296 14.7237C12.7563 14.6934 12.7891 14.6692 12.8258 14.6526C12.8625 14.636 12.9024 14.6274 12.9427 14.6274C12.983 14.6274 13.0228 14.636 13.0595 14.6526C13.0963 14.6692 13.129 14.6934 13.1557 14.7237C13.1823 14.7539 13.2022 14.7895 13.2141 14.828C13.2259 14.8665 13.2294 14.9071 13.2244 14.9471V16.1099C13.2269 16.1485 13.2213 16.1871 13.2081 16.2235C13.1949 16.2598 13.1743 16.293 13.1476 16.3209C13.121 16.3489 13.0888 16.371 13.0531 16.3859C13.0174 16.4008 12.9791 16.4081 12.9404 16.4074Z" fill="#114A43"/>
</g>
<defs>
<clipPath id="clip0_57_3436">
<rect width="24" height="24" fill="white" transform="translate(0.942657 0.335205)"/>
</clipPath>
</defs>
</svg>
