<svg width="61" height="61" viewBox="0 0 61 61" fill="none" xmlns="http://www.w3.org/2000/svg">
<g clip-path="url(#clip0_57_3622)">
<path d="M42.8796 60.1885C42.7818 60.1877 42.6855 60.1645 42.5979 60.1208L30.4853 54.6223L18.3839 60.1208C18.2828 60.1792 18.1682 60.2099 18.0515 60.2099C17.9348 60.2099 17.8201 60.1792 17.7191 60.1208C17.6114 60.0536 17.5241 59.9583 17.4665 59.8451C17.4089 59.7319 17.3833 59.6052 17.3923 59.4786V39.749C17.414 39.5776 17.4976 39.42 17.6272 39.3057C17.7569 39.1915 17.9237 39.1284 18.0965 39.1284C18.2693 39.1284 18.4362 39.1915 18.5659 39.3057C18.6955 39.42 18.779 39.5776 18.8008 39.749V58.3856L30.2036 53.2138C30.2928 53.1692 30.3912 53.146 30.4909 53.146C30.5906 53.146 30.689 53.1692 30.7782 53.2138L42.181 58.3856V39.749C42.2028 39.5776 42.2863 39.42 42.4159 39.3057C42.5456 39.1915 42.7125 39.1284 42.8853 39.1284C43.0581 39.1284 43.2249 39.1915 43.3546 39.3057C43.4842 39.42 43.5678 39.5776 43.5895 39.749V59.4786C43.5905 59.5977 43.561 59.7152 43.5038 59.8197C43.4466 59.9242 43.3636 60.0124 43.2627 60.0758C43.1496 60.1517 43.0159 60.191 42.8796 60.1885Z" fill="#14202E"/>
<path d="M30.4853 44.4139C26.1107 44.4139 21.8343 43.1167 18.197 40.6863C14.5597 38.2559 11.7247 34.8015 10.0506 30.7599C8.37653 26.7183 7.93851 22.271 8.79195 17.9805C9.64539 13.69 11.752 9.74886 14.8453 6.65556C17.9386 3.56226 21.8797 1.45569 26.1702 0.602253C30.4607 -0.251187 34.908 0.18683 38.9496 1.86091C42.9912 3.53499 46.4456 6.36995 48.876 10.0073C51.3064 13.6446 52.6036 17.921 52.6036 22.2956C52.6006 28.1608 50.2693 33.7849 46.122 37.9323C41.9746 42.0796 36.3505 44.4109 30.4853 44.4139ZM30.4853 1.59697C26.3888 1.59697 22.3843 2.81187 18.9783 5.088C15.5723 7.36413 12.9179 10.5992 11.3508 14.3841C9.78362 18.169 9.37416 22.3336 10.1742 26.3513C10.9742 30.3689 12.9477 34.059 15.8452 36.9549C18.7426 39.8508 22.4338 41.8223 26.4519 42.6201C30.4699 43.4179 34.6344 43.0062 38.4184 41.437C42.2024 39.8678 45.4361 37.2116 47.7104 33.8044C49.9846 30.3972 51.1974 26.3921 51.1951 22.2956C51.1892 16.8058 49.005 11.5428 45.1221 7.66206C41.2392 3.78129 35.975 1.59996 30.4853 1.59697Z" fill="#14202E"/>
<path d="M30.4853 54.5548C30.299 54.5518 30.1213 54.4758 29.9906 54.3429C29.8599 54.2101 29.7866 54.0313 29.7867 53.8449V43.7041C29.8084 43.5327 29.8919 43.375 30.0216 43.2608C30.1512 43.1465 30.3181 43.0835 30.4909 43.0835C30.6637 43.0835 30.8306 43.1465 30.9602 43.2608C31.0899 43.375 31.1734 43.5327 31.1951 43.7041V53.8449C31.1951 54.0332 31.1203 54.2138 30.9872 54.3469C30.8541 54.48 30.6735 54.5548 30.4853 54.5548Z" fill="#14202E"/>
<path d="M30.4853 37.6535C27.4478 37.6535 24.4785 36.7528 21.9529 35.0652C19.4274 33.3777 17.4589 30.9792 16.2965 28.1729C15.1342 25.3666 14.83 22.2787 15.4226 19.2996C16.0152 16.3205 17.4779 13.584 19.6257 11.4362C21.7735 9.28836 24.51 7.82567 27.4891 7.23309C30.4682 6.64051 33.5562 6.94464 36.3624 8.10703C39.1687 9.26943 41.5672 11.2379 43.2548 13.7634C44.9423 16.289 45.843 19.2583 45.843 22.2957C45.84 26.368 44.221 30.2725 41.3415 33.152C38.462 36.0315 34.5575 37.6505 30.4853 37.6535ZM30.4853 8.35771C27.7259 8.35771 25.0285 9.17611 22.7343 10.7094C20.4401 12.2426 18.6522 14.4219 17.5967 16.9715C16.5413 19.521 16.2657 22.3263 16.8048 25.0325C17.344 27.7387 18.6736 30.2242 20.6256 32.1746C22.5776 34.125 25.0642 35.4527 27.7708 35.9896C30.4774 36.5266 33.2825 36.2488 35.8312 35.1912C38.3799 34.1337 40.5577 32.3441 42.0892 30.0486C43.6206 27.7532 44.4368 25.0551 44.4346 22.2957C44.4286 18.599 42.9567 15.0556 40.3416 12.4427C37.7266 9.82976 34.182 8.36069 30.4853 8.35771Z" fill="#14202E"/>
<path d="M34.5303 29.9911H26.4064C25.6922 29.9911 25.0072 29.7074 24.5022 29.2024C23.9971 28.6973 23.7134 28.0124 23.7134 27.2982C23.7008 27.1982 23.7095 27.0967 23.7391 27.0004C23.7687 26.9041 23.8185 26.8152 23.8851 26.7396C23.9517 26.664 24.0336 26.6034 24.1255 26.562C24.2173 26.5205 24.3169 26.499 24.4177 26.499C24.5184 26.499 24.618 26.5205 24.7098 26.562C24.8017 26.6034 24.8836 26.664 24.9502 26.7396C25.0168 26.8152 25.0666 26.9041 25.0962 27.0004C25.1258 27.0967 25.1345 27.1982 25.1219 27.2982C25.1219 27.6388 25.2572 27.9656 25.4981 28.2064C25.739 28.4473 26.0657 28.5827 26.4064 28.5827H34.4853C34.8259 28.5827 35.1527 28.4473 35.3935 28.2064C35.6344 27.9656 35.7698 27.6388 35.7698 27.2982V24.2897C35.7698 23.949 35.6344 23.6223 35.3935 23.3814C35.1527 23.1405 34.8259 23.0052 34.4853 23.0052H26.4064C26.0527 23.0052 25.7026 22.9355 25.3758 22.8002C25.0491 22.6649 24.7522 22.4665 24.5022 22.2165C24.2521 21.9664 24.0538 21.6695 23.9184 21.3428C23.7831 21.0161 23.7134 20.6659 23.7134 20.3122V17.3038C23.7164 16.5905 24.0011 15.9073 24.5055 15.4029C25.0098 14.8985 25.6931 14.6138 26.4064 14.6108H34.4853C35.1986 14.6138 35.8818 14.8985 36.3862 15.4029C36.8906 15.9073 37.1753 16.5905 37.1782 17.3038C37.1909 17.4038 37.1821 17.5053 37.1525 17.6016C37.1229 17.6979 37.0732 17.7868 37.0066 17.8624C36.9399 17.938 36.858 17.9985 36.7662 18.04C36.6744 18.0815 36.5747 18.1029 36.474 18.1029C36.3732 18.1029 36.2736 18.0815 36.1818 18.04C36.09 17.9985 36.008 17.938 35.9414 17.8624C35.8748 17.7868 35.825 17.6979 35.7955 17.6016C35.7659 17.5053 35.7571 17.4038 35.7698 17.3038C35.7698 16.9631 35.6344 16.6364 35.3935 16.3955C35.1527 16.1546 34.8259 16.0193 34.4853 16.0193H26.4064C26.0657 16.0193 25.739 16.1546 25.4981 16.3955C25.2572 16.6364 25.1219 16.9631 25.1219 17.3038V20.3122C25.1219 20.6529 25.2572 20.9796 25.4981 21.2205C25.739 21.4614 26.0657 21.5968 26.4064 21.5968H34.4853C35.1995 21.5968 35.8844 21.8805 36.3895 22.3855C36.8945 22.8905 37.1782 23.5755 37.1782 24.2897V27.2982C37.1783 28.0046 36.9008 28.6829 36.4055 29.1866C35.9101 29.6904 35.2367 29.9793 34.5303 29.9911Z" fill="#14202E"/>
<path d="M30.4853 16.0196C30.3 16.0196 30.1223 15.946 29.9913 15.815C29.8603 15.6839 29.7867 15.5063 29.7867 15.321V12.1548C29.8084 11.9833 29.8919 11.8257 30.0216 11.7115C30.1512 11.5972 30.3181 11.5342 30.4909 11.5342C30.6637 11.5342 30.8306 11.5972 30.9602 11.7115C31.0899 11.8257 31.1734 11.9833 31.1951 12.1548V15.321C31.1922 15.5073 31.1161 15.685 30.9833 15.8157C30.8505 15.9464 30.6716 16.0196 30.4853 16.0196Z" fill="#14202E"/>
<path d="M30.4853 33.146C30.299 33.1431 30.1213 33.067 29.9906 32.9342C29.8599 32.8014 29.7866 32.6225 29.7867 32.4362V29.2812C29.8084 29.1098 29.8919 28.9522 30.0216 28.8379C30.1512 28.7237 30.3181 28.6606 30.4909 28.6606C30.6637 28.6606 30.8306 28.7237 30.9602 28.8379C31.0899 28.9522 31.1734 29.1098 31.1951 29.2812V32.4362C31.1951 32.6244 31.1203 32.805 30.9872 32.9381C30.8541 33.0712 30.6735 33.146 30.4853 33.146Z" fill="#14202E"/>
</g>
<defs>
<clipPath id="clip0_57_3622">
<rect width="60" height="60" fill="white" transform="translate(0.48526 0.188477)"/>
</clipPath>
</defs>
</svg>
