<svg width="25" height="25" viewBox="0 0 25 25" fill="none" xmlns="http://www.w3.org/2000/svg">
<path fill-rule="evenodd" clip-rule="evenodd" d="M2.18359 4.18708C2.18359 3.1958 2.98718 2.39221 3.97846 2.39221H9.10666C10.098 2.39221 10.9015 3.19581 10.9015 4.18708V9.31528C10.9015 10.3066 10.098 11.1101 9.10666 11.1101H3.97846C2.98719 11.1101 2.18359 10.3066 2.18359 9.31528V4.18708ZM3.97846 3.93067C3.83685 3.93067 3.72205 4.04547 3.72205 4.18708V9.31528C3.72205 9.4569 3.83684 9.57169 3.97846 9.57169H9.10666C9.24829 9.57169 9.36307 9.45691 9.36307 9.31528V4.18708C9.36307 4.04546 9.24828 3.93067 9.10666 3.93067H3.97846Z" fill="#D8E28C"/>
<path fill-rule="evenodd" clip-rule="evenodd" d="M2.18359 15.4691C2.18359 14.4778 2.98719 13.6743 3.97846 13.6743H9.10666C10.098 13.6743 10.9015 14.4778 10.9015 15.4691V20.5973C10.9015 21.5886 10.098 22.3922 9.10666 22.3922H3.97846C2.98719 22.3922 2.18359 21.5886 2.18359 20.5973V15.4691ZM3.97846 15.2127C3.83684 15.2127 3.72205 15.3275 3.72205 15.4691V20.5973C3.72205 20.739 3.83684 20.8537 3.97846 20.8537H9.10666C9.24829 20.8537 9.36307 20.739 9.36307 20.5973V15.4691C9.36307 15.3275 9.24829 15.2127 9.10666 15.2127H3.97846Z" fill="#D8E28C"/>
<path fill-rule="evenodd" clip-rule="evenodd" d="M13.4648 4.18708C13.4648 3.19581 14.2684 2.39221 15.2597 2.39221H20.3879C21.3792 2.39221 22.1828 3.19581 22.1828 4.18708V9.31528C22.1828 10.3066 21.3792 11.1101 20.3879 11.1101H15.2597C14.2684 11.1101 13.4648 10.3066 13.4648 9.31528V4.18708ZM15.2597 3.93067C15.1181 3.93067 15.0033 4.04546 15.0033 4.18708V9.31528C15.0033 9.45691 15.1181 9.57169 15.2597 9.57169H20.3879C20.5296 9.57169 20.6443 9.45691 20.6443 9.31528V4.18708C20.6443 4.04546 20.5296 3.93067 20.3879 3.93067H15.2597Z" fill="#D8E28C"/>
<path fill-rule="evenodd" clip-rule="evenodd" d="M13.4648 15.4691C13.4648 14.4778 14.2684 13.6743 15.2597 13.6743H20.3879C21.3792 13.6743 22.1828 14.4778 22.1828 15.4691V20.5973C22.1828 21.5886 21.3792 22.3922 20.3879 22.3922H15.2597C14.2684 22.3922 13.4648 21.5886 13.4648 20.5973V15.4691ZM15.2597 15.2127C15.1181 15.2127 15.0033 15.3275 15.0033 15.4691V20.5973C15.0033 20.739 15.1181 20.8537 15.2597 20.8537H20.3879C20.5296 20.8537 20.6443 20.739 20.6443 20.5973V15.4691C20.6443 15.3275 20.5296 15.2127 20.3879 15.2127H15.2597Z" fill="#D8E28C"/>
</svg>
