<svg width="24" height="24" viewBox="0 0 24 24" fill="none" xmlns="http://www.w3.org/2000/svg">
<path d="M13.0348 22.0018C12.8682 22.0022 12.7032 21.9699 12.5492 21.9065C12.3952 21.8431 12.2553 21.7499 12.1373 21.6324C12.0194 21.5148 11.9258 21.3751 11.862 21.2213C11.7981 21.0675 11.7653 20.9026 11.7653 20.736C11.7611 20.7027 11.764 20.6689 11.7738 20.6368C11.7837 20.6047 11.8003 20.575 11.8225 20.5498C11.8447 20.5246 11.872 20.5045 11.9026 20.4906C11.9332 20.4768 11.9664 20.4697 12 20.4697C12.0336 20.4697 12.0668 20.4768 12.0974 20.4906C12.128 20.5045 12.1553 20.5246 12.1775 20.5498C12.1997 20.575 12.2163 20.6047 12.2262 20.6368C12.2361 20.6689 12.239 20.7027 12.2348 20.736C12.2486 20.9382 12.3388 21.1276 12.4869 21.266C12.6351 21.4043 12.8302 21.4812 13.0329 21.4812C13.2356 21.4812 13.4307 21.4043 13.5789 21.266C13.727 21.1276 13.8171 20.9382 13.831 20.736V16.5069C13.8382 16.4498 13.8661 16.3972 13.9093 16.3591C13.9525 16.3211 14.0081 16.3 14.0657 16.3C14.1233 16.3 14.179 16.3211 14.2222 16.3591C14.2654 16.3972 14.2932 16.4498 14.3005 16.5069V20.736C14.3005 21.0717 14.1671 21.3937 13.9298 21.631C13.6924 21.8684 13.3705 22.0018 13.0348 22.0018Z" fill="#114A43"/>
<path d="M10.969 22.0018C10.8025 22.0022 10.6375 21.9699 10.4835 21.9065C10.3295 21.8431 10.1895 21.7499 10.0716 21.6324C9.95367 21.5148 9.8601 21.3751 9.79626 21.2213C9.73242 21.0675 9.69955 20.9026 9.69955 20.736V16.5069C9.7068 16.4498 9.73464 16.3972 9.77785 16.3591C9.82107 16.3211 9.87669 16.3 9.9343 16.3C9.9919 16.3 10.0475 16.3211 10.0907 16.3591C10.134 16.3972 10.1618 16.4498 10.169 16.5069V20.736C10.1829 20.9382 10.273 21.1276 10.4212 21.266C10.5693 21.4043 10.7645 21.4812 10.9672 21.4812C11.1699 21.4812 11.365 21.4043 11.5131 21.266C11.6613 21.1276 11.7514 20.9382 11.7653 20.736V17.6337C11.7725 17.5765 11.8004 17.524 11.8436 17.4859C11.8868 17.4478 11.9424 17.4268 12 17.4268C12.0576 17.4268 12.1133 17.4478 12.1565 17.4859C12.1997 17.524 12.2275 17.5765 12.2348 17.6337V20.736C12.2348 20.9022 12.202 21.0668 12.1384 21.2204C12.0748 21.374 11.9816 21.5135 11.864 21.631C11.7465 21.7486 11.607 21.8418 11.4534 21.9054C11.2998 21.969 11.1353 22.0018 10.969 22.0018Z" fill="#114A43"/>
<path d="M11.9981 5.47598C11.6542 5.47598 11.318 5.37399 11.032 5.18291C10.746 4.99183 10.5231 4.72024 10.3915 4.40249C10.2599 4.08473 10.2255 3.73509 10.2926 3.39776C10.3597 3.06043 10.5253 2.75058 10.7685 2.50738C11.0117 2.26418 11.3215 2.09856 11.6589 2.03146C11.9962 1.96436 12.3458 1.9988 12.6636 2.13042C12.9814 2.26204 13.2529 2.48492 13.444 2.7709C13.6351 3.05687 13.7371 3.39308 13.7371 3.73701C13.7361 4.19791 13.5526 4.63965 13.2267 4.96555C12.9008 5.29146 12.459 5.47499 11.9981 5.47598ZM11.9981 2.47129C11.7469 2.47129 11.5013 2.54584 11.2924 2.6855C11.0836 2.82516 10.9209 3.02365 10.8249 3.25583C10.7289 3.48802 10.704 3.74346 10.7533 3.98982C10.8026 4.23618 10.9239 4.46237 11.1018 4.63976C11.2797 4.81715 11.5063 4.93776 11.7528 4.98632C11.9993 5.03488 12.2546 5.0092 12.4865 4.91254C12.7184 4.81588 12.9164 4.65258 13.0555 4.44332C13.1945 4.23406 13.2683 3.98825 13.2676 3.73701C13.2676 3.57048 13.2347 3.40558 13.1709 3.25177C13.1071 3.09796 13.0135 2.95826 12.8956 2.84068C12.7776 2.7231 12.6376 2.62994 12.4836 2.56655C12.3297 2.50317 12.1647 2.47079 11.9981 2.47129Z" fill="#114A43"/>
<path d="M14.6273 6.60271H9.36904C9.31189 6.59547 9.25935 6.56763 9.22127 6.52441C9.18318 6.48119 9.16217 6.42557 9.16217 6.36797C9.16217 6.31036 9.18318 6.25474 9.22127 6.21152C9.25935 6.16831 9.31189 6.14047 9.36904 6.13323H14.6273C14.6606 6.129 14.6944 6.13192 14.7265 6.14179C14.7586 6.15165 14.7883 6.16824 14.8134 6.19044C14.8386 6.21265 14.8588 6.23996 14.8727 6.27057C14.8865 6.30118 14.8936 6.33438 14.8936 6.36797C14.8936 6.40155 14.8865 6.43475 14.8727 6.46536C14.8588 6.49597 14.8386 6.52329 14.8134 6.54549C14.7883 6.5677 14.7586 6.58428 14.7265 6.59415C14.6944 6.60401 14.6606 6.60693 14.6273 6.60271Z" fill="#114A43"/>
<path d="M18.8563 22.0018C18.6898 22.0023 18.5248 21.9699 18.3708 21.9065C18.2168 21.8431 18.0768 21.7499 17.9589 21.6324C17.841 21.5148 17.7474 21.3751 17.6836 21.2213C17.6197 21.0675 17.5869 20.9026 17.5869 20.736V15.0046C17.5941 14.9474 17.6219 14.8949 17.6652 14.8568C17.7084 14.8187 17.764 14.7977 17.8216 14.7977C17.8792 14.7977 17.9348 14.8187 17.978 14.8568C18.0213 14.8949 18.0491 14.9474 18.0563 15.0046V20.736C18.0702 20.9382 18.1603 21.1277 18.3085 21.266C18.4566 21.4043 18.6518 21.4812 18.8545 21.4812C19.0571 21.4812 19.2523 21.4043 19.4004 21.266C19.5486 21.1277 19.6387 20.9382 19.6526 20.736V14.629C19.6598 14.5718 19.6877 14.5193 19.7309 14.4812C19.7741 14.4431 19.8297 14.4221 19.8873 14.4221C19.9449 14.4221 20.0005 14.4431 20.0438 14.4812C20.087 14.5193 20.1148 14.5718 20.1221 14.629V20.736C20.1221 21.0717 19.9887 21.3937 19.7513 21.631C19.514 21.8684 19.192 22.0018 18.8563 22.0018Z" fill="#114A43"/>
<path d="M16.7906 22.0019C16.6241 22.0024 16.4591 21.97 16.3051 21.9066C16.1511 21.8432 16.0111 21.7501 15.8932 21.6325C15.7753 21.5149 15.6817 21.3752 15.6179 21.2214C15.554 21.0676 15.5211 20.9027 15.5211 20.7362V15.0047C15.5284 14.9476 15.5562 14.895 15.5994 14.8569C15.6427 14.8189 15.6983 14.7979 15.7559 14.7979C15.8135 14.7979 15.8691 14.8189 15.9123 14.8569C15.9555 14.895 15.9834 14.9476 15.9906 15.0047V20.7362C16.0045 20.9384 16.0946 21.1278 16.2428 21.2661C16.3909 21.4045 16.5861 21.4814 16.7888 21.4814C16.9914 21.4814 17.1866 21.4045 17.3347 21.2661C17.4829 21.1278 17.573 20.9384 17.5869 20.7362C17.5827 20.7029 17.5856 20.669 17.5954 20.6369C17.6053 20.6048 17.6219 20.5752 17.6441 20.55C17.6663 20.5248 17.6936 20.5046 17.7242 20.4908C17.7548 20.477 17.788 20.4698 17.8216 20.4698C17.8552 20.4698 17.8884 20.477 17.919 20.4908C17.9496 20.5046 17.9769 20.5248 17.9991 20.55C18.0213 20.5752 18.0379 20.6048 18.0478 20.6369C18.0577 20.669 18.0606 20.7029 18.0564 20.7362C18.0564 21.0719 17.923 21.3938 17.6856 21.6312C17.4483 21.8686 17.1263 22.0019 16.7906 22.0019Z" fill="#114A43"/>
<path d="M17.8197 5.47598C17.4758 5.47598 17.1396 5.37399 16.8536 5.18291C16.5676 4.99183 16.3447 4.72024 16.2131 4.40249C16.0815 4.08473 16.0471 3.73509 16.1142 3.39776C16.1813 3.06043 16.3469 2.75058 16.5901 2.50738C16.8333 2.26418 17.1431 2.09856 17.4805 2.03146C17.8178 1.96436 18.1674 1.9988 18.4852 2.13042C18.8029 2.26204 19.0745 2.48492 19.2656 2.7709C19.4567 3.05687 19.5587 3.39308 19.5587 3.73701C19.5577 4.19791 19.3742 4.63965 19.0483 4.96555C18.7224 5.29146 18.2806 5.47499 17.8197 5.47598ZM17.8197 2.47129C17.5685 2.47129 17.3229 2.54584 17.114 2.6855C16.9052 2.82516 16.7425 3.02365 16.6465 3.25583C16.5505 3.48802 16.5256 3.74346 16.5749 3.98982C16.6242 4.23618 16.7455 4.46237 16.9234 4.63976C17.1013 4.81715 17.3279 4.93776 17.5744 4.98632C17.8209 5.03488 18.0762 5.0092 18.3081 4.91254C18.54 4.81588 18.738 4.65258 18.8771 4.44332C19.0161 4.23406 19.0899 3.98825 19.0892 3.73701C19.0892 3.57048 19.0563 3.40558 18.9925 3.25177C18.9287 3.09796 18.8351 2.95826 18.7172 2.84068C18.5992 2.7231 18.4592 2.62994 18.3052 2.56655C18.1512 2.50317 17.9863 2.47079 17.8197 2.47129Z" fill="#114A43"/>
<path d="M19.8854 14.8657C19.8233 14.8647 19.7641 14.8393 19.7206 14.7951C19.677 14.7508 19.6526 14.6912 19.6526 14.6291V8.61969C19.6598 8.56254 19.6877 8.51 19.7309 8.47191C19.7741 8.43383 19.8297 8.41282 19.8873 8.41282C19.9449 8.41282 20.0006 8.43383 20.0438 8.47191C20.087 8.51 20.1148 8.56254 20.1221 8.61969V14.3962C20.4663 14.3396 20.7787 14.1614 21.0027 13.894C21.2267 13.6266 21.3473 13.2877 21.3427 12.9389V8.61969C21.3417 8.08443 21.1284 7.57143 20.7496 7.19329C20.3707 6.81516 19.8573 6.60278 19.3221 6.60278H16.3174C16.2602 6.59554 16.2077 6.5677 16.1696 6.52449C16.1315 6.48127 16.1105 6.42565 16.1105 6.36804C16.1105 6.31044 16.1315 6.25482 16.1696 6.2116C16.2077 6.16838 16.2602 6.14054 16.3174 6.1333H19.3221C19.9818 6.1333 20.6147 6.39514 21.0815 6.86132C21.5484 7.3275 21.8112 7.95991 21.8122 8.61969V12.9389C21.8122 13.192 21.7624 13.4425 21.6655 13.6763C21.5687 13.91 21.4268 14.1224 21.2479 14.3014C21.069 14.4803 20.8566 14.6222 20.6228 14.719C20.389 14.8159 20.1385 14.8657 19.8854 14.8657Z" fill="#114A43"/>
<path d="M5.14744 22.0018C4.98091 22.0023 4.81592 21.9699 4.66192 21.9065C4.50792 21.8431 4.36794 21.7499 4.25001 21.6324C4.13208 21.5148 4.03851 21.3751 3.97467 21.2213C3.91082 21.0675 3.87796 20.9026 3.87796 20.736V14.629C3.8852 14.5718 3.91304 14.5193 3.95626 14.4812C3.99947 14.4431 4.0551 14.4221 4.1127 14.4221C4.1703 14.4221 4.22593 14.4431 4.26915 14.4812C4.31236 14.5193 4.3402 14.5718 4.34744 14.629V20.736C4.36132 20.9382 4.45144 21.1277 4.59959 21.266C4.74774 21.4043 4.94288 21.4812 5.14557 21.4812C5.34826 21.4812 5.54339 21.4043 5.69154 21.266C5.83969 21.1277 5.92981 20.9382 5.94369 20.736V15.0046C5.95093 14.9474 5.97877 14.8949 6.02199 14.8568C6.0652 14.8187 6.12083 14.7977 6.17843 14.7977C6.23603 14.7977 6.29166 14.8187 6.33487 14.8568C6.37809 14.8949 6.40593 14.9474 6.41317 15.0046V20.736C6.41317 21.0717 6.27982 21.3937 6.04245 21.631C5.80508 21.8684 5.48314 22.0018 5.14744 22.0018Z" fill="#114A43"/>
<path d="M7.21316 22.0019C7.04663 22.0024 6.88164 21.97 6.72764 21.9066C6.57364 21.8432 6.43366 21.7501 6.31573 21.6325C6.1978 21.5149 6.10423 21.3752 6.04039 21.2214C5.97654 21.0676 5.94368 20.9027 5.94368 20.7362C5.93946 20.7029 5.94238 20.669 5.95224 20.6369C5.96211 20.6048 5.97869 20.5752 6.0009 20.55C6.0231 20.5248 6.05042 20.5046 6.08103 20.4908C6.11164 20.477 6.14484 20.4698 6.17842 20.4698C6.21201 20.4698 6.24521 20.477 6.27582 20.4908C6.30643 20.5046 6.33374 20.5248 6.35595 20.55C6.37815 20.5752 6.39474 20.6048 6.4046 20.6369C6.41447 20.669 6.41739 20.7029 6.41316 20.7362C6.42704 20.9384 6.51716 21.1278 6.66531 21.2661C6.81346 21.4045 7.0086 21.4814 7.21129 21.4814C7.41398 21.4814 7.60911 21.4045 7.75726 21.2661C7.90541 21.1278 7.99553 20.9384 8.00941 20.7362V15.0047C8.01665 14.9476 8.04449 14.895 8.08771 14.8569C8.13092 14.8189 8.18655 14.7979 8.24415 14.7979C8.30175 14.7979 8.35738 14.8189 8.40059 14.8569C8.44381 14.895 8.47165 14.9476 8.47889 15.0047V20.7362C8.47889 21.0719 8.34554 21.3938 8.10817 21.6312C7.8708 21.8686 7.54886 22.0019 7.21316 22.0019Z" fill="#114A43"/>
<path d="M6.17653 5.47598C5.83259 5.47598 5.49638 5.37399 5.21041 5.18291C4.92444 4.99183 4.70155 4.72024 4.56993 4.40249C4.43831 4.08473 4.40388 3.73509 4.47098 3.39776C4.53807 3.06043 4.70369 2.75058 4.94689 2.50738C5.19009 2.26418 5.49995 2.09856 5.83727 2.03146C6.1746 1.96436 6.52425 1.9988 6.842 2.13042C7.15976 2.26204 7.43135 2.48492 7.62243 2.7709C7.81351 3.05687 7.9155 3.39308 7.9155 3.73701C7.9145 4.19791 7.73097 4.63965 7.40507 4.96555C7.07916 5.29146 6.63743 5.47499 6.17653 5.47598ZM6.17653 2.47129C5.92529 2.47129 5.6797 2.54584 5.47085 2.6855C5.26201 2.82516 5.0993 3.02365 5.00332 3.25583C4.90735 3.48802 4.88243 3.74346 4.93172 3.98982C4.98101 4.23618 5.10229 4.46237 5.28021 4.63976C5.45812 4.81715 5.68467 4.93776 5.93118 4.98632C6.17768 5.03488 6.43305 5.0092 6.66495 4.91254C6.89685 4.81588 7.09485 4.65258 7.23389 4.44332C7.37293 4.23406 7.44676 3.98825 7.44601 3.73701C7.44601 3.57048 7.41315 3.40558 7.34931 3.25177C7.28546 3.09796 7.19189 2.95826 7.07396 2.84068C6.95603 2.7231 6.81605 2.62994 6.66206 2.56655C6.50806 2.50317 6.34306 2.47079 6.17653 2.47129Z" fill="#114A43"/>
<path d="M4.11081 14.8656C3.60045 14.8646 3.11134 14.6612 2.75081 14.3C2.39029 13.9387 2.1878 13.4492 2.18781 12.9389L2.18781 8.61961C2.1888 7.96049 2.45108 7.32864 2.91715 6.86257C3.38322 6.3965 4.01506 6.13422 4.67419 6.13323H7.67888C7.7122 6.129 7.74604 6.13192 7.77814 6.14179C7.81025 6.15165 7.83988 6.16824 7.86508 6.19044C7.89028 6.21265 7.91046 6.23996 7.92428 6.27057C7.93811 6.30118 7.94526 6.33438 7.94526 6.36797C7.94526 6.40155 7.93811 6.43475 7.92428 6.46536C7.91046 6.49597 7.89028 6.52329 7.86508 6.54549C7.83988 6.5677 7.81025 6.58428 7.77814 6.59415C7.74604 6.60401 7.7122 6.60693 7.67888 6.60271H4.67419C4.13958 6.6037 3.62715 6.81652 3.24912 7.19454C2.87109 7.57257 2.65828 8.085 2.65729 8.61961V12.9389C2.65266 13.2876 2.7733 13.6265 2.99729 13.8939C3.22128 14.1613 3.53375 14.3395 3.87795 14.3961V8.61961C3.88519 8.56247 3.91303 8.50992 3.95624 8.47184C3.99946 8.43376 4.05509 8.41274 4.11269 8.41274C4.17029 8.41274 4.22591 8.43376 4.26913 8.47184C4.31235 8.50992 4.34019 8.56247 4.34743 8.61961V14.629C4.34743 14.6918 4.3225 14.7519 4.27813 14.7963C4.23375 14.8407 4.17357 14.8656 4.11081 14.8656Z" fill="#114A43"/>
<path d="M12.4751 15.6167H11.5061C11.4133 15.6175 11.323 15.5867 11.2499 15.5294C11.1769 15.472 11.1255 15.3916 11.1042 15.3012L10.9465 14.6665L10.5709 14.5163L10.0075 14.8505C9.92812 14.8927 9.8371 14.9079 9.7483 14.8936C9.6595 14.8794 9.57777 14.8366 9.51552 14.7717L8.82819 14.0956C8.76396 14.0294 8.72328 13.9439 8.71242 13.8522C8.70156 13.7606 8.72112 13.668 8.7681 13.5886L9.10988 13.0289L8.95965 12.6534L8.32115 12.5181C8.23151 12.4948 8.1522 12.4422 8.09575 12.3688C8.0393 12.2953 8.00892 12.2051 8.00941 12.1125V11.1322C8.00864 11.0394 8.03945 10.9491 8.09677 10.876C8.1541 10.803 8.23454 10.7516 8.32491 10.7303L8.94838 10.5726L9.09862 10.197L8.76434 9.63363C8.72123 9.5538 8.70559 9.462 8.71984 9.37239C8.7341 9.28279 8.77745 9.20037 8.84322 9.13786L9.53054 8.45429C9.59518 8.38772 9.68036 8.34484 9.77234 8.33258C9.86432 8.32032 9.95775 8.33937 10.0376 8.38669L10.5972 8.72847L10.9728 8.57824L11.1305 7.93974C11.1548 7.85334 11.2062 7.77707 11.2773 7.72226C11.3483 7.66745 11.4352 7.63703 11.5249 7.63551H12.4939C12.5868 7.63474 12.6771 7.66555 12.7501 7.72287C12.8231 7.7802 12.8745 7.86064 12.8958 7.95101L13.0535 8.58575L13.4291 8.73598L13.9925 8.40171C14.0719 8.35393 14.1651 8.33425 14.2571 8.34583C14.3491 8.35741 14.4345 8.39958 14.4996 8.46556L15.1831 9.15288C15.2491 9.21799 15.2913 9.30338 15.3028 9.39535C15.3144 9.48731 15.2948 9.5805 15.247 9.65993L14.9052 10.2233L15.0554 10.5989L15.6939 10.7566C15.7836 10.7787 15.8632 10.8303 15.9198 10.9033C15.9764 10.9762 16.0066 11.0662 16.0057 11.1585V12.1275C16.0029 12.221 15.9683 12.3108 15.9075 12.3819C15.8467 12.4529 15.7633 12.501 15.6714 12.5181L15.0366 12.6759L14.8864 13.0515L15.2207 13.6149C15.2685 13.6943 15.2881 13.7875 15.2766 13.8794C15.265 13.9714 15.2228 14.0568 15.1568 14.1219L14.4695 14.7942C14.4044 14.8602 14.319 14.9023 14.227 14.9139C14.1351 14.9255 14.0419 14.9058 13.9625 14.858L13.3991 14.5163L13.0235 14.6665L12.8658 15.305C12.8431 15.3922 12.7928 15.4697 12.7223 15.5259C12.6519 15.5821 12.5652 15.614 12.4751 15.6167ZM11.5474 15.1472H12.4338L12.6141 14.4374C12.6233 14.4016 12.6406 14.3684 12.6647 14.3404C12.6888 14.3124 12.7191 14.2903 12.7531 14.2759L13.3315 14.0393C13.3641 14.0228 13.4001 14.0142 13.4366 14.0142C13.4732 14.0142 13.5092 14.0228 13.5418 14.0393L14.169 14.4149L14.7963 13.7914L14.4207 13.1604C14.405 13.1276 14.3969 13.0916 14.3969 13.0552C14.3969 13.0188 14.405 12.9829 14.4207 12.9501L14.6611 12.3717C14.676 12.3379 14.6982 12.308 14.7261 12.2839C14.7541 12.2599 14.787 12.2424 14.8226 12.2327L15.5324 12.0599V11.1923L14.8113 11.0158C14.7755 11.0066 14.7423 10.9893 14.7143 10.9652C14.6863 10.9411 14.6642 10.9108 14.6498 10.8768L14.4132 10.2984C14.3967 10.2658 14.3881 10.2298 14.3881 10.1933C14.3881 10.1567 14.3967 10.1207 14.4132 10.0881L14.7888 9.46086L14.1653 8.83363L13.5343 9.20922C13.5015 9.2249 13.4655 9.23303 13.4291 9.23303C13.3927 9.23303 13.3568 9.2249 13.324 9.20922L12.7456 8.96885C12.7119 8.95395 12.6819 8.93172 12.6578 8.90379C12.6338 8.87585 12.6163 8.8429 12.6066 8.80734L12.4338 8.09748H11.5775L11.3972 8.80734C11.388 8.84313 11.3707 8.87632 11.3466 8.90433C11.3225 8.93234 11.2923 8.95442 11.2582 8.96885L10.6798 9.20547C10.6472 9.22197 10.6112 9.23057 10.5747 9.23057C10.5381 9.23057 10.5021 9.22197 10.4695 9.20547L9.84228 8.82988L9.21505 9.45335L9.59063 10.0843C9.60631 10.1172 9.61445 10.1531 9.61445 10.1895C9.61445 10.2259 9.60631 10.2618 9.59063 10.2947L9.35026 10.8731C9.33536 10.9068 9.31314 10.9368 9.2852 10.9608C9.25726 10.9848 9.22431 11.0023 9.18876 11.012L8.4789 11.1848V12.0712L9.18876 12.2515C9.22455 12.2607 9.25774 12.278 9.28575 12.3021C9.31376 12.3262 9.33583 12.3564 9.35026 12.3904L9.58312 12.9613C9.59971 12.9952 9.60833 13.0325 9.60833 13.0703C9.60833 13.108 9.59971 13.1453 9.58312 13.1792L9.20754 13.8064L9.83101 14.4336L10.462 14.058C10.4948 14.0424 10.5308 14.0342 10.5672 14.0342C10.6036 14.0342 10.6395 14.0424 10.6723 14.058L11.2507 14.2984C11.2844 14.3133 11.3144 14.3355 11.3384 14.3635C11.3625 14.3914 11.38 14.4244 11.3897 14.4599L11.5474 15.1472Z" fill="#114A43"/>
<path d="M11.9981 12.9877C11.6494 12.9693 11.321 12.8179 11.0807 12.5646C10.8403 12.3113 10.7063 11.9754 10.7063 11.6262C10.7063 11.2769 10.8403 10.941 11.0807 10.6877C11.321 10.4344 11.6494 10.283 11.9981 10.2646C12.3588 10.2666 12.704 10.411 12.9587 10.6664C13.2133 10.9217 13.3568 11.2674 13.3578 11.628C13.3558 11.9887 13.2114 12.3339 12.956 12.5886C12.7007 12.8432 12.355 12.9867 11.9944 12.9877H11.9981ZM11.9981 10.7341C11.7716 10.7488 11.5591 10.8492 11.4038 11.0149C11.2486 11.1806 11.1622 11.3991 11.1622 11.6262C11.1622 11.8532 11.2486 12.0717 11.4038 12.2374C11.5591 12.4031 11.7716 12.5035 11.9981 12.5182C12.1154 12.5187 12.2315 12.496 12.3399 12.4515C12.4484 12.407 12.5469 12.3415 12.63 12.2588C12.7131 12.1761 12.779 12.0778 12.8239 11.9695C12.8689 11.8613 12.892 11.7452 12.892 11.628C12.8925 11.5108 12.8699 11.3947 12.8254 11.2862C12.7809 11.1778 12.7154 11.0792 12.6327 10.9962C12.55 10.9131 12.4517 10.8472 12.3434 10.8022C12.2352 10.7573 12.1191 10.7341 12.0019 10.7341H11.9981Z" fill="#114A43"/>
</svg>
