<svg width="41" height="40" viewBox="0 0 41 40" fill="none" xmlns="http://www.w3.org/2000/svg">
<path fill-rule="evenodd" clip-rule="evenodd" d="M10.9238 36.5975C10.7317 36.5975 10.5654 36.4647 10.5226 36.2777L8.4223 27.0127C8.37236 26.7908 8.5107 26.571 8.73267 26.521C8.95396 26.4704 9.17374 26.6095 9.22439 26.8308L10.9238 34.3272L12.623 26.8307C12.673 26.6095 12.8934 26.4704 13.1147 26.521C13.336 26.571 13.4751 26.7908 13.4251 27.0128L11.3249 36.2777C11.282 36.4647 11.1156 36.5975 10.9238 36.5975Z" fill="#14202E"/>
<path fill-rule="evenodd" clip-rule="evenodd" d="M9.43164 36.5988C9.27314 36.5988 9.12252 36.5067 9.05473 36.3533L6.42126 30.3726C6.36571 30.2456 6.3777 30.0993 6.45337 29.983C6.52901 29.8659 6.65888 29.796 6.79808 29.796L7.59526 29.796L7.22914 28.5456C7.19142 28.4172 7.21841 28.2787 7.30194 28.1745L8.50235 26.6658C8.64367 26.4881 8.90271 26.4581 9.0804 26.6001C9.25819 26.7414 9.2874 26.9998 9.14608 27.1775L8.0778 28.5192L8.53802 30.0914C8.57447 30.2156 8.55015 30.3498 8.47236 30.4533C8.39541 30.5575 8.27324 30.6181 8.14334 30.6181L7.42824 30.6181L9.8077 36.0214C9.89908 36.2291 9.8048 36.4717 9.59709 36.5638C9.5429 36.5874 9.4865 36.5988 9.43164 36.5988Z" fill="#14202E"/>
<path fill-rule="evenodd" clip-rule="evenodd" d="M3.26752 35.7753H18.5817V31.6323C18.5817 29.1273 15.8454 27.7956 13.2005 27.3646L11.2486 29.8646C11.1708 29.9645 11.0509 30.0223 10.9246 30.0223C10.7983 30.0223 10.6784 29.9645 10.6006 29.8646L8.64863 27.3645C6.00376 27.7956 3.26747 29.1274 3.26747 31.6324L3.26752 35.7753ZM18.9928 36.5974H2.85644C2.62954 36.5974 2.44531 36.4133 2.44531 36.1864L2.44536 31.6323C2.44536 30.2471 3.11833 29.0303 4.39296 28.1118C5.49282 27.3196 7.00431 26.7672 8.76568 26.5146C8.912 26.4931 9.05756 26.5524 9.14822 26.6687L10.9247 28.9432L12.701 26.6687C12.7916 26.5524 12.9378 26.4932 13.0834 26.5146C14.8442 26.7672 16.3564 27.3196 17.4562 28.1118C18.7302 29.0302 19.4038 30.2471 19.4038 31.6324L19.4038 36.1863C19.4038 36.4133 19.2197 36.5974 18.9928 36.5974Z" fill="#14202E"/>
<path fill-rule="evenodd" clip-rule="evenodd" d="M5.92089 36.5974C5.69399 36.5974 5.50977 36.4133 5.50977 36.1863L5.50981 32.0634C5.50981 31.8365 5.6939 31.6523 5.92085 31.6523C6.14795 31.6523 6.33193 31.8365 6.33193 32.0634L6.33197 36.1863C6.33197 36.4133 6.14779 36.5974 5.92089 36.5974Z" fill="#14202E"/>
<path fill-rule="evenodd" clip-rule="evenodd" d="M8.82521 27.3324C8.73947 27.3324 8.6531 27.306 8.5796 27.2511C8.39776 27.1154 8.35978 26.8578 8.49536 26.6758C8.83952 26.2148 8.99495 25.6017 9.02635 25.1821C9.0436 24.9551 9.24116 24.7867 9.46742 24.8024C9.69379 24.8195 9.86353 25.0172 9.84639 25.2435C9.82722 25.5025 9.71932 26.4082 9.15482 27.1668C9.07426 27.2753 8.94999 27.3324 8.82521 27.3324Z" fill="#14202E"/>
<path fill-rule="evenodd" clip-rule="evenodd" d="M10.8147 25.9343C9.03548 25.9343 7.04851 24.5576 6.56178 21.4474C6.52614 21.2233 6.67953 21.0128 6.90433 20.9778C7.12844 20.9421 7.33827 21.0962 7.37395 21.3203C7.79085 23.9831 9.43219 25.145 10.8724 25.1114C12.3498 25.0793 13.9805 23.789 14.2952 20.9799C14.3203 20.7544 14.5236 20.591 14.7491 20.6167C14.9746 20.6423 15.1373 20.8457 15.1124 21.0713C14.7428 24.3741 12.7258 25.8929 10.8909 25.9336C10.8653 25.9343 10.8403 25.9343 10.8147 25.9343Z" fill="#14202E"/>
<path fill-rule="evenodd" clip-rule="evenodd" d="M10.4432 16.443C9.58315 16.443 8.86157 16.7621 8.28705 17.3994C7.31659 18.4749 7.09305 20.0957 7.25151 20.9157C8.59333 20.6295 9.40038 19.9087 10.1826 19.21C10.6908 18.7553 11.2167 18.285 11.8647 17.9646C11.9647 17.9153 12.0802 17.9082 12.1852 17.9453C12.2895 17.9825 12.375 18.0602 12.4214 18.1616C12.8111 19.0109 13.6396 20.2898 14.3897 20.5631C14.6953 19.0123 14.2063 17.6156 13.5176 16.9904C13.1173 16.6272 12.6783 16.533 12.2123 16.71C12.1224 16.7442 12.0246 16.7456 11.9339 16.715C11.3988 16.5337 10.9013 16.4431 10.4432 16.443ZM6.96685 21.7949C6.80837 21.7949 6.66128 21.7029 6.59348 21.5551C6.10037 20.4803 6.46647 18.1901 7.67613 16.8484C8.43197 16.0106 9.8029 15.1755 12.0631 15.8921C12.7725 15.6751 13.4798 15.8464 14.07 16.3817C15.1505 17.3623 15.5837 19.3606 15.0999 21.1334C15.0521 21.3075 14.8979 21.4295 14.718 21.4367C13.4035 21.4809 12.3144 19.7352 11.8726 18.9038C11.473 19.1593 11.1097 19.4833 10.73 19.823C9.83654 20.6209 8.82303 21.5266 7.02742 21.7906C7.00685 21.7935 6.98673 21.7949 6.96685 21.7949Z" fill="#14202E"/>
<path fill-rule="evenodd" clip-rule="evenodd" d="M12.4168 36.5988C12.3613 36.5988 12.3055 36.5874 12.2513 36.5638C12.0437 36.4717 11.9494 36.2291 12.0407 36.0214L14.4202 30.6181H13.7043C13.5753 30.6181 13.4531 30.5575 13.3753 30.4533C13.2982 30.3498 13.274 30.2156 13.3104 30.0914L13.7708 28.5192L12.7023 27.1775C12.561 26.9998 12.5903 26.7414 12.768 26.6001C12.9458 26.4581 13.204 26.4881 13.346 26.6658L14.5466 28.1745C14.6301 28.2787 14.6571 28.4172 14.6193 28.5456L14.2532 29.796H15.0503C15.1895 29.796 15.3187 29.8659 15.395 29.983C15.4707 30.0993 15.4828 30.2456 15.4264 30.3727L12.7931 36.3532C12.7252 36.5067 12.5746 36.5988 12.4168 36.5988Z" fill="#14202E"/>
<path fill-rule="evenodd" clip-rule="evenodd" d="M15.9267 36.5974C15.6998 36.5974 15.5156 36.4133 15.5156 36.1863L15.5156 32.0634C15.5156 31.8365 15.6998 31.6523 15.9267 31.6523C16.1538 31.6523 16.3378 31.8365 16.3378 32.0634L16.3378 36.1863C16.3378 36.4133 16.1537 36.5974 15.9267 36.5974Z" fill="#14202E"/>
<path fill-rule="evenodd" clip-rule="evenodd" d="M13.0248 27.3324C12.899 27.3324 12.7756 27.2753 12.6949 27.1668C12.2012 26.5038 12.0098 25.6439 11.9962 25.1093C11.9906 24.8823 12.1697 24.6939 12.3966 24.6882C12.4003 24.6882 12.4037 24.6882 12.4073 24.6882C12.63 24.6882 12.8127 24.8652 12.8184 25.0886C12.8271 25.4219 12.949 26.132 13.3544 26.6758C13.4899 26.8578 13.4521 27.1155 13.2702 27.2511C13.1959 27.306 13.1103 27.3324 13.0248 27.3324Z" fill="#14202E"/>
<path fill-rule="evenodd" clip-rule="evenodd" d="M29.8691 36.7958C29.677 36.7958 29.5108 36.6631 29.468 36.4761L27.3676 27.2111C27.3177 26.9891 27.4561 26.7693 27.678 26.7187C27.8993 26.6687 28.1191 26.8079 28.1698 27.0291L29.8691 34.5256L31.5683 27.0291C31.6183 26.8079 31.8388 26.6687 32.06 26.7187C32.2813 26.7693 32.4204 26.9891 32.3698 27.2111L30.2702 36.4761C30.2273 36.6631 30.061 36.7958 29.8691 36.7958Z" fill="#14202E"/>
<path fill-rule="evenodd" clip-rule="evenodd" d="M28.3749 36.7972C28.2166 36.7972 28.0659 36.7051 27.9981 36.5517L25.3647 30.571C25.309 30.444 25.3211 30.297 25.3967 30.1807C25.4725 30.0643 25.6022 29.9944 25.7407 29.9944L26.5379 29.9944L26.1718 28.744C26.1347 28.6155 26.1618 28.4771 26.2453 28.3722L27.4458 26.8634C27.5871 26.6865 27.8461 26.6565 28.0238 26.7985C28.2009 26.9398 28.2307 27.1982 28.0894 27.3759L27.0211 28.7176L27.4815 30.2899C27.5178 30.414 27.4935 30.5482 27.4157 30.6517C27.3379 30.7558 27.2166 30.8165 27.0867 30.8165L26.3709 30.8165L28.751 36.2198C28.8424 36.4275 28.7481 36.6702 28.5405 36.7622C28.4864 36.7858 28.4298 36.7972 28.3749 36.7972Z" fill="#14202E"/>
<path fill-rule="evenodd" clip-rule="evenodd" d="M22.211 35.9737H37.525V31.8307C37.525 29.325 34.7887 27.994 32.1438 27.5629L30.192 30.0629C30.1141 30.1621 29.9942 30.2207 29.8679 30.2207C29.741 30.2207 29.6217 30.1622 29.5439 30.063L27.5921 27.5629C24.9472 27.994 22.2108 29.325 22.2108 31.8307L22.211 35.9737ZM37.936 36.7958H21.7999C21.5722 36.7958 21.3887 36.6117 21.3887 36.3847L21.3888 31.8307C21.3888 30.4455 22.0617 29.228 23.3363 28.3102C24.4354 27.5179 25.9476 26.9656 27.709 26.7129C27.8546 26.6915 28.0009 26.7508 28.0915 26.8671L29.8679 29.1416L31.6443 26.8671C31.735 26.7507 31.8805 26.6915 32.026 26.7129C33.7875 26.9656 35.2997 27.518 36.3995 28.3102C37.6735 29.2279 38.3471 30.4455 38.3471 31.8307V36.3847C38.3471 36.6117 38.163 36.7958 37.936 36.7958Z" fill="#14202E"/>
<path fill-rule="evenodd" clip-rule="evenodd" d="M24.8663 36.7958C24.6386 36.7958 24.4551 36.6117 24.4551 36.3847L24.4552 32.2617C24.4552 32.0348 24.6385 31.8507 24.8662 31.8507C25.0932 31.8507 25.2765 32.0348 25.2765 32.2618L25.2766 36.3847C25.2766 36.6116 25.0931 36.7958 24.8663 36.7958Z" fill="#14202E"/>
<path fill-rule="evenodd" clip-rule="evenodd" d="M27.7686 27.5308C27.683 27.5308 27.5965 27.5045 27.523 27.4495C27.3411 27.3139 27.3032 27.0563 27.4387 26.8743C27.7828 26.4125 27.9383 25.8002 27.9697 25.3805C27.9869 25.1535 28.1846 24.9844 28.4101 25.0009C28.6371 25.018 28.8069 25.215 28.7898 25.4419C28.7706 25.701 28.6627 26.6067 28.0982 27.3653C28.0176 27.4737 27.8934 27.5308 27.7686 27.5308Z" fill="#14202E"/>
<path fill-rule="evenodd" clip-rule="evenodd" d="M29.7585 26.1327C27.9793 26.1327 25.9924 24.7552 25.505 21.6458C25.47 21.4217 25.6234 21.2111 25.8475 21.1762C26.0725 21.1404 26.2821 21.2946 26.3179 21.5187C26.7347 24.1814 28.3761 25.3383 29.8163 25.3098C31.2937 25.2777 32.9244 23.9873 33.2391 21.1783C33.2641 20.952 33.4675 20.7901 33.693 20.815C33.9186 20.8407 34.0812 21.0441 34.0556 21.2696C33.6866 24.5725 31.6697 26.0913 29.8341 26.1319C29.8093 26.1327 29.7842 26.1327 29.7585 26.1327Z" fill="#14202E"/>
<path fill-rule="evenodd" clip-rule="evenodd" d="M29.3866 16.6414C28.5265 16.6414 27.805 16.9604 27.2305 17.5977C26.26 18.6732 26.0365 20.2933 26.1949 21.1141C27.5367 20.8279 28.3431 20.107 29.126 19.4076C29.6342 18.9537 30.1602 18.4841 30.8082 18.163C30.9082 18.113 31.023 18.1066 31.1279 18.1437C31.2329 18.1808 31.3185 18.2586 31.3648 18.36C31.7546 19.2092 32.5824 20.4881 33.3332 20.7615C33.6387 19.2106 33.1498 17.814 32.461 17.1888C32.0607 16.8255 31.6211 16.7313 31.155 16.9083C31.0659 16.9426 30.9673 16.944 30.8774 16.9133C30.3422 16.732 29.8447 16.6414 29.3866 16.6414ZM25.9102 21.9933C25.7517 21.9933 25.6047 21.9012 25.5369 21.7535C25.0439 20.6787 25.4092 18.3885 26.6196 17.0468C27.3755 16.2089 28.7464 15.3739 31.0066 16.0905C31.7161 15.8735 32.4232 16.0448 33.0134 16.58C34.0941 17.5606 34.5271 19.5589 34.0433 21.3317C33.9955 21.5058 33.8413 21.6279 33.6615 21.6343C33.6437 21.635 33.6265 21.6357 33.6094 21.6357C32.317 21.6357 31.2521 19.9222 30.816 19.1022C30.4164 19.3576 30.0531 19.6817 29.6734 20.0214C28.7799 20.8193 27.7665 21.725 25.9701 21.989C25.9502 21.9919 25.9302 21.9933 25.9102 21.9933Z" fill="#14202E"/>
<path fill-rule="evenodd" clip-rule="evenodd" d="M31.3623 36.7972C31.3066 36.7972 31.2508 36.7858 31.1966 36.7622C30.9889 36.6701 30.8947 36.4275 30.9861 36.2198L33.3655 30.8165H32.6498C32.5205 30.8165 32.3984 30.7559 32.3206 30.6517C32.2429 30.5482 32.2186 30.414 32.255 30.2899L32.7161 28.7176L31.6478 27.3759C31.5065 27.1982 31.5356 26.9398 31.7133 26.7985C31.891 26.6565 32.1493 26.6865 32.2907 26.8635L33.4918 28.3722C33.5754 28.4771 33.6024 28.6156 33.5646 28.744L33.1985 29.9944H33.9957C34.1348 29.9944 34.264 30.0643 34.3404 30.1807C34.4162 30.297 34.4281 30.444 34.3718 30.571L31.7383 36.5517C31.6706 36.7051 31.5199 36.7972 31.3623 36.7972Z" fill="#14202E"/>
<path fill-rule="evenodd" clip-rule="evenodd" d="M34.8722 36.7958C34.6451 36.7958 34.4609 36.6117 34.4609 36.3847L34.4611 32.2617C34.4611 32.0348 34.6451 31.8507 34.872 31.8507C35.0991 31.8507 35.2831 32.0348 35.2831 32.2618L35.2832 36.3847C35.2832 36.6116 35.099 36.7958 34.8722 36.7958Z" fill="#14202E"/>
<path fill-rule="evenodd" clip-rule="evenodd" d="M31.9681 27.5308C31.8425 27.5308 31.7189 27.4737 31.6383 27.3653C31.1445 26.7022 30.9531 25.8423 30.9396 25.3077C30.934 25.0808 31.113 24.8923 31.34 24.8866C31.5655 24.878 31.756 25.0601 31.7617 25.287C31.7698 25.6203 31.8924 26.3304 32.2977 26.8742C32.4334 27.0562 32.3955 27.3139 32.2135 27.4495C32.1394 27.5044 32.0536 27.5308 31.9681 27.5308Z" fill="#14202E"/>
<path fill-rule="evenodd" clip-rule="evenodd" d="M20.3961 4.02499C17.3387 4.02499 14.8515 6.51221 14.8515 9.56961C14.8515 12.627 17.3387 15.1142 20.396 15.1142C23.4535 15.1142 25.9406 12.627 25.9406 9.56961C25.9406 6.51219 23.4535 4.02502 20.3961 4.02499ZM20.3961 15.9363C16.8855 15.9363 14.0293 13.0802 14.0293 9.56961C14.0293 6.05899 16.8854 3.20288 20.396 3.20288C23.9068 3.20288 26.7628 6.05901 26.7628 9.56961C26.7628 13.0802 23.9066 15.9363 20.3961 15.9363Z" fill="#14202E"/>
<path fill-rule="evenodd" clip-rule="evenodd" d="M20.3962 12.9182C19.3593 12.9182 18.5156 12.0747 18.5156 11.0384C18.5156 10.8114 18.6997 10.6273 18.9267 10.6273C19.1544 10.6273 19.3378 10.8114 19.3378 11.0384C19.3378 11.6214 19.8123 12.096 20.3961 12.096C20.9792 12.096 21.4538 11.6215 21.4538 11.0384C21.4539 10.2776 21.0799 10.1541 20.3005 9.96929C19.5477 9.78942 18.5156 9.54393 18.5156 8.10017C18.5156 7.06317 19.3592 6.2196 20.3961 6.2196C21.4325 6.21958 22.276 7.06317 22.276 8.10017C22.276 8.32709 22.0918 8.51122 21.8649 8.51122C21.6381 8.51122 21.4538 8.32712 21.4538 8.10017C21.4539 7.51633 20.9792 7.04176 20.3961 7.04176C19.8125 7.04174 19.3378 7.51635 19.3378 8.10017C19.3378 8.86092 19.7124 8.98369 20.4911 9.16925C21.2448 9.34838 22.276 9.5939 22.276 11.0384C22.276 12.0746 21.4324 12.9182 20.3962 12.9182Z" fill="#14202E"/>
<path fill-rule="evenodd" clip-rule="evenodd" d="M20.3974 7.04315C20.1705 7.04315 19.9863 6.85902 19.9863 6.63207L19.9864 5.49516C19.9864 5.2675 20.1705 5.08411 20.3974 5.08411C20.6245 5.08408 20.8085 5.2675 20.8085 5.49519L20.8085 6.63207C20.8085 6.85902 20.6244 7.04315 20.3974 7.04315Z" fill="#14202E"/>
<path fill-rule="evenodd" clip-rule="evenodd" d="M20.3974 14.0551C20.1705 14.0551 19.9863 13.871 19.9863 13.644L19.9864 12.5071C19.9864 12.2802 20.1705 12.0961 20.3974 12.0961C20.6245 12.0961 20.8085 12.2802 20.8085 12.5071L20.8085 13.644C20.8085 13.871 20.6244 14.0551 20.3974 14.0551Z" fill="#14202E"/>
<path fill-rule="evenodd" clip-rule="evenodd" d="M30.6168 13.2065H25.4033C25.1764 13.2065 24.9922 13.0231 24.9922 12.7954C24.9922 12.5684 25.1763 12.385 25.4033 12.385L30.2057 12.385V10.8542H26.2883C26.0614 10.8542 25.8772 10.6708 25.8772 10.4438C25.8772 10.2162 26.0613 10.0327 26.2882 10.0327L30.6168 10.0327C30.8437 10.0327 31.0278 10.2162 31.0278 10.4438L31.0279 12.7954C31.0279 13.0231 30.8437 13.2065 30.6168 13.2065Z" fill="#14202E"/>
<path fill-rule="evenodd" clip-rule="evenodd" d="M31.0273 9.36192V13.8774L34.9376 11.62L31.0273 9.36192ZM30.6162 15C30.5448 15 30.4741 14.9822 30.4106 14.9451C30.2829 14.8715 30.2051 14.736 30.2051 14.5889L30.2052 8.65037C30.2052 8.50338 30.2829 8.36779 30.4106 8.29427C30.5377 8.22075 30.694 8.22077 30.8217 8.29427L35.9646 11.2639C36.0923 11.3374 36.1707 11.473 36.17 11.62C36.17 11.7663 36.0922 11.9019 35.9645 11.9754L30.8218 14.945C30.7582 14.9822 30.6868 15 30.6162 15Z" fill="#14202E"/>
<path fill-rule="evenodd" clip-rule="evenodd" d="M15.3895 13.2065H10.1768C9.94987 13.2065 9.76562 13.0231 9.76562 12.7954L9.76569 10.4438C9.76569 10.2162 9.94973 10.0327 10.1767 10.0327L14.5045 10.0327C14.7314 10.0327 14.9155 10.2162 14.9155 10.4438C14.9156 10.6707 14.7314 10.8542 14.5044 10.8542L10.5879 10.8542V12.385H15.3895C15.6164 12.385 15.8005 12.5684 15.8005 12.7954C15.8005 13.0231 15.6164 13.2065 15.3895 13.2065Z" fill="#14202E"/>
<path fill-rule="evenodd" clip-rule="evenodd" d="M5.85445 11.62L9.76467 13.8774V9.36192L5.85445 11.62ZM10.1757 15C10.1051 15 10.0336 14.9822 9.97011 14.9451L4.82675 11.9754C4.69971 11.9019 4.62109 11.7663 4.62109 11.62C4.62121 11.473 4.6996 11.3374 4.82663 11.2639L9.97021 8.29425C10.0972 8.22075 10.2542 8.22077 10.3812 8.29427C10.5083 8.36774 10.5868 8.50338 10.5868 8.6504L10.5868 14.5889C10.5868 14.736 10.5082 14.8715 10.3812 14.9451C10.3177 14.9822 10.2463 15 10.1757 15Z" fill="#14202E"/>
</svg>
