<svg width="21" height="21" viewBox="0 0 21 21" fill="none" xmlns="http://www.w3.org/2000/svg">
<g clip-path="url(#clip0_57_3173)">
<path d="M19.7063 9.68712L18.3426 8.27517C18.2374 8.16654 18.1872 8.01248 18.2084 7.86279L18.4822 5.91966C18.5947 5.12291 18.0616 4.39037 17.2697 4.25177L15.3367 3.91279C15.1875 3.88669 15.0562 3.79111 14.9857 3.65685L14.0673 1.92427C13.6901 1.21251 12.8277 0.932436 12.1043 1.28685L10.3423 2.14927C10.2061 2.21591 10.0439 2.21591 9.90768 2.14927L8.14565 1.28685C7.42182 0.932397 6.56034 1.21248 6.18272 1.92427L5.26429 3.65685C5.1928 3.79302 5.06436 3.88576 4.91323 3.91279L2.98073 4.25177C2.18831 4.38986 1.65569 5.12291 1.76819 5.91916L2.04151 7.86275C2.06276 8.01439 2.01448 8.16501 1.90729 8.27513L0.543622 9.68708C-0.0145813 10.2646 -0.0145813 11.1705 0.543622 11.748L1.90729 13.16C2.01257 13.2686 2.06276 13.4227 2.04151 13.5724L1.76772 15.5155C1.65522 16.3122 2.18831 17.0448 2.98022 17.1834L4.91319 17.5224C5.06241 17.5485 5.19374 17.644 5.26425 17.7783L6.18268 19.5109C6.5603 20.2226 7.42226 20.5027 8.14561 20.1483L9.90765 19.2859C10.0438 19.2192 10.2061 19.2192 10.3423 19.2859L12.1043 20.1483C12.3163 20.2521 12.5398 20.3014 12.76 20.3014C13.2912 20.3014 13.8007 20.0141 14.0672 19.5109L14.9856 17.7783C15.0571 17.6422 15.1855 17.5495 15.3367 17.5224L17.2692 17.1834C18.0616 17.0453 18.5942 16.3123 18.4817 15.516L18.2083 13.5724C18.1871 13.4208 18.2354 13.2702 18.3426 13.1601L19.7062 11.7481C20.2646 11.1705 20.2646 10.2647 19.7063 9.68712ZM18.995 11.0614L17.6314 12.4724C17.3112 12.8036 17.1649 13.2546 17.2291 13.7105L17.5024 15.6536C17.5401 15.9192 17.3624 16.1635 17.0988 16.2099L15.1653 16.5489C14.7114 16.6286 14.3275 16.9081 14.1117 17.3152L13.1932 19.0473C13.0677 19.2849 12.7808 19.3786 12.5389 19.2603L10.7769 18.3974C10.5731 18.2979 10.3491 18.2477 10.125 18.2477C9.901 18.2477 9.6769 18.2979 9.47315 18.3978L7.71112 19.2598C7.47015 19.3786 7.18237 19.2849 7.05683 19.0473L6.13839 17.3147C5.92253 16.9072 5.53815 16.6281 5.08378 16.5489L3.15128 16.2094C2.88765 16.1631 2.70991 15.9192 2.7471 15.6536L3.02089 13.7105C3.08511 13.2546 2.93878 12.8036 2.61913 12.4729L1.25499 11.0614C1.06909 10.8682 1.06909 10.5669 1.25499 10.3738L2.61866 8.96279C2.93882 8.63154 3.08511 8.18052 3.02089 7.72466L2.74757 5.78154C2.70991 5.51595 2.88761 5.27162 3.15124 5.22525L5.08472 4.88626C5.53862 4.80658 5.92253 4.52701 6.13835 4.11994L7.05679 2.38783C7.18233 2.15025 7.47015 2.05755 7.71108 2.17486L9.47311 3.03779C9.88065 3.23673 10.3693 3.2372 10.7769 3.03732L12.5389 2.1754C12.7804 2.05662 13.0677 2.15029 13.1932 2.38787L14.1117 4.12044C14.3275 4.52798 14.7119 4.80712 15.1663 4.8863L17.0988 5.22576C17.3624 5.27212 17.5401 5.51595 17.503 5.78158L17.2292 7.7247C17.1649 8.18056 17.3113 8.63154 17.6309 8.96232L18.9951 10.3738C19.181 10.5669 19.181 10.8683 18.995 11.0614Z" fill="#14202E"/>
<path d="M13.4414 7.40114C13.2483 7.20798 12.9354 7.20798 12.7422 7.40114L6.80854 13.3348C6.61537 13.528 6.61537 13.8409 6.80854 14.034C6.9051 14.1306 7.03162 14.1789 7.15815 14.1789C7.28467 14.1789 7.41119 14.1306 7.50776 14.034L13.4414 8.10036C13.6346 7.9072 13.6346 7.59431 13.4414 7.40114Z" fill="#14202E"/>
<path d="M9.63245 8.24619C9.63245 7.15486 8.74491 6.26732 7.65358 6.26732C6.56225 6.26732 5.67471 7.15486 5.67471 8.24619C5.67471 9.33751 6.56225 10.2251 7.65358 10.2251C8.74491 10.2251 9.63245 9.33751 9.63245 8.24619ZM6.6637 8.24619C6.6637 7.70052 7.10796 7.25626 7.65362 7.25626C8.19928 7.25626 8.64354 7.70052 8.64354 8.24619C8.64354 8.79185 8.19928 9.23611 7.65362 9.23611C7.10792 9.23611 6.6637 8.79185 6.6637 8.24619Z" fill="#14202E"/>
<path d="M12.5964 11.2101C11.505 11.2101 10.6175 12.0977 10.6175 13.189C10.6175 14.2803 11.505 15.1679 12.5964 15.1679C13.6877 15.1679 14.5752 14.2803 14.5752 13.189C14.5752 12.0977 13.6877 11.2101 12.5964 11.2101ZM12.5964 14.1789C12.0507 14.1789 11.6064 13.7346 11.6064 13.189C11.6064 12.6433 12.0507 12.199 12.5964 12.199C13.142 12.199 13.5863 12.6433 13.5863 13.189C13.5863 13.7346 13.142 14.1789 12.5964 14.1789Z" fill="#14202E"/>
</g>
<defs>
<clipPath id="clip0_57_3173">
<rect width="20" height="20" fill="white" transform="translate(0.125 0.71759)"/>
</clipPath>
</defs>
</svg>
