<svg width="24" height="25" viewBox="0 0 24 25" fill="none" xmlns="http://www.w3.org/2000/svg">
<g clip-path="url(#clip0_202_3544)">
<path d="M7.5 13.8117C6.60998 13.8117 5.73995 13.5478 4.99993 13.0534C4.25991 12.5589 3.68314 11.8561 3.34254 11.0338C3.00195 10.2115 2.91283 9.30675 3.08647 8.43383C3.2601 7.56092 3.68868 6.7591 4.31802 6.12976C4.94736 5.50042 5.74918 5.07184 6.62209 4.89821C7.49501 4.72457 8.39981 4.81369 9.22208 5.15428C10.0443 5.49488 10.7471 6.07165 11.2416 6.81167C11.7361 7.55169 12 8.42172 12 9.31174C11.9987 10.5048 11.5241 11.6486 10.6805 12.4923C9.83689 13.3359 8.69307 13.8104 7.5 13.8117ZM7.5 6.81174C7.00555 6.81174 6.5222 6.95836 6.11107 7.23307C5.69995 7.50777 5.37952 7.89822 5.1903 8.35503C5.00108 8.81185 4.95157 9.31451 5.04804 9.79947C5.1445 10.2844 5.3826 10.7299 5.73223 11.0795C6.08186 11.4291 6.52732 11.6672 7.01227 11.7637C7.49723 11.8602 7.99989 11.8107 8.45671 11.6214C8.91352 11.4322 9.30397 11.1118 9.57867 10.7007C9.85338 10.2895 10 9.80619 10 9.31174C10 8.6487 9.73661 8.01281 9.26777 7.54397C8.79893 7.07513 8.16304 6.81174 7.5 6.81174ZM15 23.8117V23.3117C15 21.3226 14.2098 19.415 12.8033 18.0084C11.3968 16.6019 9.48912 15.8117 7.5 15.8117C5.51088 15.8117 3.60322 16.6019 2.1967 18.0084C0.790176 19.415 0 21.3226 0 23.3117L0 23.8117C0 24.077 0.105357 24.3313 0.292893 24.5188C0.48043 24.7064 0.734784 24.8117 1 24.8117C1.26522 24.8117 1.51957 24.7064 1.70711 24.5188C1.89464 24.3313 2 24.077 2 23.8117V23.3117C2 21.8531 2.57946 20.4541 3.61091 19.4227C4.64236 18.3912 6.04131 17.8117 7.5 17.8117C8.95869 17.8117 10.3576 18.3912 11.3891 19.4227C12.4205 20.4541 13 21.8531 13 23.3117V23.8117C13 24.077 13.1054 24.3313 13.2929 24.5188C13.4804 24.7064 13.7348 24.8117 14 24.8117C14.2652 24.8117 14.5196 24.7064 14.7071 24.5188C14.8946 24.3313 15 24.077 15 23.8117ZM24 18.8117C24 17.4604 23.6088 16.138 22.8737 15.0041C22.1386 13.8702 21.091 12.9733 19.8574 12.4217C18.6238 11.8701 17.2569 11.6873 15.9218 11.8955C14.5866 12.1036 13.3402 12.6938 12.333 13.5947C12.2338 13.6819 12.1528 13.7879 12.0948 13.9066C12.0367 14.0253 12.0028 14.1543 11.9949 14.2861C11.987 14.418 12.0053 14.5501 12.0487 14.6749C12.0922 14.7996 12.1599 14.9145 12.2481 15.013C12.3362 15.1114 12.4429 15.1914 12.5621 15.2483C12.6813 15.3052 12.8106 15.338 12.9426 15.3446C13.0745 15.3513 13.2064 15.3318 13.3308 15.2872C13.4551 15.2426 13.5694 15.1738 13.667 15.0847C14.3865 14.4414 15.2767 14.02 16.2304 13.8714C17.1841 13.7228 18.1604 13.8535 19.0414 14.2475C19.9225 14.6416 20.6706 15.2822 21.1956 16.0921C21.7206 16.902 22 17.8466 22 18.8117C22 19.077 22.1054 19.3313 22.2929 19.5188C22.4804 19.7064 22.7348 19.8117 23 19.8117C23.2652 19.8117 23.5196 19.7064 23.7071 19.5188C23.8946 19.3313 24 19.077 24 18.8117ZM17.5 9.81174C16.61 9.81174 15.74 9.54782 14.9999 9.05335C14.2599 8.55889 13.6831 7.85608 13.3425 7.03382C13.0019 6.21155 12.9128 5.30675 13.0865 4.43383C13.2601 3.56092 13.6887 2.7591 14.318 2.12976C14.9474 1.50042 15.7492 1.07184 16.6221 0.898205C17.495 0.724572 18.3998 0.813687 19.2221 1.15428C20.0443 1.49488 20.7471 2.07165 21.2416 2.81167C21.7361 3.55169 22 4.42172 22 5.31174C21.9987 6.50481 21.5241 7.64863 20.6805 8.49226C19.8369 9.33589 18.6931 9.81042 17.5 9.81174ZM17.5 2.81174C17.0055 2.81174 16.5222 2.95836 16.1111 3.23307C15.7 3.50777 15.3795 3.89822 15.1903 4.35503C15.0011 4.81185 14.9516 5.31451 15.048 5.79947C15.1445 6.28442 15.3826 6.72988 15.7322 7.07951C16.0819 7.42914 16.5273 7.66724 17.0123 7.7637C17.4972 7.86017 17.9999 7.81066 18.4567 7.62144C18.9135 7.43222 19.304 7.11179 19.5787 6.70066C19.8534 6.28954 20 5.80619 20 5.31174C20 4.6487 19.7366 4.01281 19.2678 3.54397C18.7989 3.07513 18.163 2.81174 17.5 2.81174Z" fill="#D8E28C"/>
</g>
<defs>
<clipPath id="clip0_202_3544">
<rect width="24" height="24" fill="white" transform="translate(0 0.811737)"/>
</clipPath>
</defs>
</svg>
