<svg width="24" height="24" viewBox="0 0 24 24" fill="none" xmlns="http://www.w3.org/2000/svg">
<path d="M17.9816 5.39761C16.7311 3.30189 14.4365 2 11.9935 2C10.7423 2 9.51013 2.34061 8.43014 2.98491C5.13179 4.95298 4.04946 9.23765 6.01753 12.5362L11.4926 21.7121C11.5991 21.8907 11.7917 22 11.9996 22C12.2075 22 12.4001 21.8907 12.5065 21.7121L17.9822 12.535C19.2922 10.3284 19.2918 7.59357 17.9816 5.39761ZM16.9676 11.9311L11.9996 20.2574L7.03155 11.9311C5.39703 9.19175 6.29591 5.6334 9.03524 3.99889C9.93227 3.46368 10.9552 3.18071 11.9936 3.18071C14.023 3.18071 15.9291 4.26202 16.9677 6.00258C18.0558 7.82636 18.0555 10.0984 16.9676 11.9311Z" fill="#D8E28C"/>
<path d="M11.9978 5.47021C10.0993 5.47021 8.55469 7.01486 8.55469 8.91347C8.55469 10.812 10.0993 12.3566 11.9978 12.3566C13.8964 12.3566 15.441 10.812 15.441 8.91347C15.441 7.01486 13.8964 5.47021 11.9978 5.47021ZM11.9978 11.1759C10.7503 11.1759 9.73548 10.161 9.73548 8.91351C9.73548 7.66595 10.7503 6.65101 11.9978 6.65101C13.2454 6.65101 14.2603 7.66595 14.2603 8.91351C14.2603 10.1609 13.2454 11.1759 11.9978 11.1759Z" fill="#D8E28C"/>
</svg>
