<svg width="61" height="61" viewBox="0 0 61 61" fill="none" xmlns="http://www.w3.org/2000/svg">
<g clip-path="url(#clip0_59_4524)">
<path d="M56.4064 60.1883H4.5754C4.48218 60.1883 4.38987 60.1699 4.30375 60.1342C4.21762 60.0986 4.13937 60.0463 4.07345 59.9804C4.00754 59.9144 3.95525 59.8362 3.91957 59.7501C3.8839 59.6639 3.86554 59.5716 3.86554 59.4784V18.915C3.88727 18.7436 3.97079 18.586 4.10044 18.4717C4.23008 18.3575 4.39696 18.2944 4.56976 18.2944C4.74257 18.2944 4.90945 18.3575 5.03909 18.4717C5.16874 18.586 5.25226 18.7436 5.27399 18.915V58.7798H55.6965V18.915C55.7183 18.7436 55.8018 18.586 55.9314 18.4717C56.0611 18.3575 56.2279 18.2944 56.4008 18.2944C56.5736 18.2944 56.7404 18.3575 56.8701 18.4717C56.9997 18.586 57.0832 18.7436 57.105 18.915V59.4784C57.105 59.6647 57.0318 59.8436 56.9011 59.9764C56.7704 60.1092 56.5927 60.1853 56.4064 60.1883Z" fill="#14202E"/>
<path d="M59.7754 21.8785C59.6349 21.8753 59.4981 21.8323 59.381 21.7545L30.4346 1.75455L1.61202 21.7545C1.53679 21.8126 1.45051 21.8547 1.35846 21.8783C1.26641 21.9018 1.17051 21.9064 1.07664 21.8916C0.982773 21.8768 0.892903 21.8431 0.81253 21.7924C0.732157 21.7417 0.66297 21.6751 0.609201 21.5968C0.50444 21.4425 0.464624 21.2531 0.49836 21.0697C0.532096 20.8863 0.636674 20.7235 0.789483 20.6165L30.0853 0.334831C30.2043 0.25195 30.3458 0.20752 30.4909 0.20752C30.6359 0.20752 30.7775 0.25195 30.8965 0.334831L60.1923 20.6165C60.3451 20.7235 60.4497 20.8863 60.4834 21.0697C60.5172 21.2531 60.4773 21.4425 60.3726 21.5968C60.304 21.6894 60.2136 21.7635 60.1094 21.8127C60.0052 21.8618 59.8904 21.8844 59.7754 21.8785Z" fill="#14202E"/>
<path d="M59.7867 60.1885H1.19512C1.09516 60.2012 0.993654 60.1924 0.897343 60.1628C0.801032 60.1332 0.712125 60.0835 0.636533 60.0168C0.560941 59.9502 0.500397 59.8683 0.458925 59.7765C0.417453 59.6846 0.396004 59.585 0.396004 59.4843C0.396004 59.3835 0.417453 59.2839 0.458925 59.1921C0.500397 59.1003 0.560941 59.0183 0.636533 58.9517C0.712125 58.8851 0.801032 58.8353 0.897343 58.8057C0.993654 58.7761 1.09516 58.7674 1.19512 58.78H59.7867C59.9581 58.8018 60.1157 58.8853 60.23 59.0149C60.3442 59.1446 60.4073 59.3115 60.4073 59.4843C60.4073 59.6571 60.3442 59.824 60.23 59.9536C60.1157 60.0833 59.9581 60.1668 59.7867 60.1885Z" fill="#14202E"/>
<path d="M35.2008 42.4192H25.7698C24.9689 42.4192 24.2008 42.101 23.6345 41.5347C23.0682 40.9684 22.75 40.2003 22.75 39.3995C22.7374 39.2995 22.7461 39.198 22.7757 39.1017C22.8053 39.0054 22.8551 38.9165 22.9217 38.8409C22.9883 38.7653 23.0703 38.7047 23.1621 38.6633C23.2539 38.6218 23.3535 38.6003 23.4543 38.6003C23.555 38.6003 23.6546 38.6218 23.7465 38.6633C23.8383 38.7047 23.9202 38.7653 23.9868 38.8409C24.0535 38.9165 24.1032 39.0054 24.1328 39.1017C24.1624 39.198 24.1712 39.2995 24.1585 39.3995C24.1585 39.8268 24.3283 40.2366 24.6304 40.5388C24.9326 40.841 25.3424 41.0107 25.7698 41.0107H35.2008C35.6281 41.0107 36.0379 40.841 36.3401 40.5388C36.6423 40.2366 36.812 39.8268 36.812 39.3995V35.884C36.812 35.4566 36.6423 35.0468 36.3401 34.7446C36.0379 34.4425 35.6281 34.2727 35.2008 34.2727H25.7698C24.9689 34.2727 24.2008 33.9546 23.6345 33.3882C23.0682 32.8219 22.75 32.0539 22.75 31.253V27.7375C22.75 26.9366 23.0682 26.1685 23.6345 25.6022C24.2008 25.0359 24.9689 24.7178 25.7698 24.7178H35.2008C36.0016 24.7178 36.7697 25.0359 37.336 25.6022C37.9023 26.1685 38.2205 26.9366 38.2205 27.7375C38.2331 27.8374 38.2244 27.939 38.1948 28.0353C38.1652 28.1316 38.1154 28.2205 38.0488 28.2961C37.9822 28.3717 37.9003 28.4322 37.8084 28.4737C37.7166 28.5152 37.617 28.5366 37.5162 28.5366C37.4155 28.5366 37.3159 28.5152 37.2241 28.4737C37.1322 28.4322 37.0503 28.3717 36.9837 28.2961C36.9171 28.2205 36.8673 28.1316 36.8377 28.0353C36.8081 27.939 36.7994 27.8374 36.812 27.7375C36.815 27.524 36.7755 27.3121 36.6959 27.114C36.6163 26.9159 36.4981 26.7356 36.3481 26.5836C36.1982 26.4315 36.0196 26.3108 35.8226 26.2285C35.6256 26.1461 35.4143 26.1037 35.2008 26.1037H25.7698C25.5553 26.1022 25.3427 26.1435 25.1444 26.2252C24.9462 26.3069 24.7662 26.4274 24.6151 26.5795C24.464 26.7317 24.3447 26.9125 24.2644 27.1113C24.1841 27.3102 24.1442 27.5231 24.1472 27.7375V31.253C24.1472 31.4655 24.1893 31.676 24.271 31.8722C24.3526 32.0684 24.4723 32.2466 24.6231 32.3963C24.774 32.5461 24.9529 32.6645 25.1497 32.7449C25.3465 32.8252 25.5572 32.8657 25.7698 32.8643H35.2008C36.0016 32.8643 36.7697 33.1824 37.336 33.7487C37.9023 34.315 38.2205 35.0831 38.2205 35.884V39.3995C38.2205 40.2003 37.9023 40.9684 37.336 41.5347C36.7697 42.101 36.0016 42.4192 35.2008 42.4192Z" fill="#14202E"/>
<path d="M30.4909 26.1038C30.3083 26.104 30.1327 26.0338 30.0005 25.9079C29.8683 25.782 29.7897 25.6101 29.781 25.4277V21.7319C29.8028 21.5605 29.8863 21.4029 30.0159 21.2886C30.1456 21.1744 30.3125 21.1113 30.4853 21.1113C30.6581 21.1113 30.8249 21.1744 30.9546 21.2886C31.0842 21.4029 31.1678 21.5605 31.1895 21.7319V25.4277C31.1836 25.609 31.1075 25.781 30.9771 25.9072C30.8467 26.0334 30.6723 26.1039 30.4909 26.1038Z" fill="#14202E"/>
<path d="M30.4909 46.1038C30.3977 46.1038 30.3054 46.0855 30.2192 46.0498C30.1331 46.0141 30.0549 45.9618 29.9889 45.8959C29.923 45.83 29.8707 45.7518 29.8351 45.6656C29.7994 45.5795 29.781 45.4872 29.781 45.394V41.7095C29.8028 41.538 29.8863 41.3804 30.0159 41.2662C30.1456 41.1519 30.3125 41.0889 30.4853 41.0889C30.6581 41.0889 30.8249 41.1519 30.9546 41.2662C31.0842 41.3804 31.1678 41.538 31.1895 41.7095V45.394C31.1895 45.5803 31.1163 45.7592 30.9856 45.892C30.8549 46.0248 30.6772 46.1009 30.4909 46.1038Z" fill="#14202E"/>
<path d="M30.4909 51.1742C27.0072 51.1764 23.6012 50.1454 20.7035 48.2116C17.8059 46.2778 15.5469 43.5281 14.2122 40.3103C12.8775 37.0924 12.5271 33.5511 13.2054 30.1341C13.8836 26.7171 15.5601 23.578 18.0226 21.1139C20.4851 18.6498 23.6231 16.9713 27.0397 16.2909C30.4562 15.6104 33.9979 15.9585 37.2166 17.2912C40.4353 18.6238 43.1864 20.8811 45.1221 23.7775C47.0577 26.6739 48.0909 30.0793 48.0909 33.5629C48.0849 38.23 46.2291 42.7043 42.9301 46.0054C39.631 49.3066 35.1579 51.1653 30.4909 51.1742ZM30.4909 17.3714C27.2853 17.3692 24.1511 18.3178 21.4848 20.0974C18.8186 21.8769 16.7401 24.4073 15.5123 27.3684C14.2846 30.3296 13.9628 33.5884 14.5876 36.7324C15.2124 39.8765 16.7558 42.7646 19.0225 45.0313C21.2892 47.298 24.1773 48.8414 27.3214 49.4662C30.4655 50.0911 33.7242 49.7692 36.6854 48.5415C39.6465 47.3137 42.1769 45.2352 43.9565 42.569C45.736 39.9027 46.6847 36.7685 46.6824 33.5629C46.6765 29.2705 44.9687 25.1556 41.9335 22.1204C38.8983 19.0852 34.7833 17.3773 30.4909 17.3714Z" fill="#14202E"/>
</g>
<defs>
<clipPath id="clip0_59_4524">
<rect width="60" height="60" fill="white" transform="translate(0.48526 0.188477)"/>
</clipPath>
</defs>
</svg>
