<svg width="30" height="50" viewBox="0 0 30 50" fill="none" xmlns="http://www.w3.org/2000/svg">
<path d="M29.9732 16.4079C29.9124 18.5357 29.3653 21.2107 27.7238 23.5209C26.8119 24.7975 27.1159 25.5879 27.7846 26.743C32.709 34.5855 29.0613 45.3461 20.4285 48.629C14.7746 50.7568 7.90477 49.1762 3.95313 44.7382C-0.424082 39.8746 -1.27521 33.248 1.94691 27.4117C2.85883 25.7703 2.85882 24.5544 2.0077 22.8521C-2.06554 14.8272 0.791809 5.58646 8.81669 2.12117C19.8813 -2.62081 29.9124 5.28249 29.9732 16.4079ZM25.7176 15.496C25.7176 10.5108 22.7994 6.55917 18.1183 5.1001C13.5587 3.70183 8.63431 5.52567 5.89855 9.72049C3.40598 13.4898 3.58836 18.7789 6.56729 22.2442C8.81669 24.9191 11.3093 27.3509 13.6803 29.9043C14.1058 30.3298 14.5922 31.1202 15.1393 30.7554C17.6927 29.1748 17.4495 31.3026 17.7535 32.64C18.0575 33.7951 18.4907 35.4504 18.7339 36.6055C19.0987 38.5509 19.4253 38.7672 17.6014 38.2809C16.2032 37.9161 13.741 37.3212 12.4036 36.8957C11.3093 36.5309 9.66782 36.4093 11.2485 34.6463C11.7348 34.0991 11.2485 33.4912 10.8229 33.0656C9.8502 32.0321 8.87749 30.9378 7.84398 29.9043C6.26332 28.3236 5.89855 28.3844 5.04743 30.3906C3.04121 35.2542 4.74346 40.5433 9.18146 43.5831C13.3155 46.3796 19.4557 45.6501 22.921 41.8808C26.6295 37.8684 26.9335 31.9105 23.5898 27.9589C21.4012 25.3447 19.091 22.8521 16.7808 20.2987C16.112 19.5692 15.3825 18.9005 14.2274 19.63C13.2547 20.2987 12.8899 19.5692 12.6467 18.7181C12.5252 18.1101 12.2111 16.7954 12.0895 16.1875C11.1775 10.7768 9.96435 10.8901 15.3143 12.4708C16.591 12.8355 20.1853 13.3074 18.787 15.7392C18.483 16.2255 19.0302 16.7119 19.3949 17.1374C20.4892 18.2925 21.5228 19.5084 22.6171 20.6635C23.5898 21.697 24.3193 21.4538 24.8665 20.2987C25.6568 18.8397 25.7784 17.1374 25.7176 15.496Z" fill="url(#paint0_linear_1146_55)"/>
<defs>
<linearGradient id="paint0_linear_1146_55" x1="15" y1="12.4426" x2="15" y2="53.2468" gradientUnits="userSpaceOnUse">
<stop stop-color="#D8E28C"/>
<stop offset="1" stop-color="#B9C944"/>
</linearGradient>
</defs>
</svg>
