<svg width="120" height="39" viewBox="0 0 120 39" fill="none" xmlns="http://www.w3.org/2000/svg">
<path d="M36.2518 29.7176V8.50759H40.0018V26.2976H51.0418V29.7176H36.2518ZM60.6322 29.9276C58.9922 29.9276 57.5922 29.5876 56.4322 28.9076C55.2922 28.2276 54.4222 27.2876 53.8222 26.0876C53.2422 24.8676 52.9522 23.4576 52.9522 21.8576C52.9522 20.2576 53.2522 18.8476 53.8522 17.6276C54.4722 16.3876 55.3522 15.4176 56.4922 14.7176C57.6522 14.0176 59.0422 13.6676 60.6622 13.6676C61.8622 13.6676 62.9122 13.8876 63.8122 14.3276C64.7122 14.7476 65.4622 15.3276 66.0622 16.0676C66.6822 16.8076 67.1422 17.6476 67.4422 18.5876C67.7422 19.5276 67.8822 20.5176 67.8622 21.5576C67.8422 21.7976 67.8222 22.0376 67.8022 22.2776C67.7822 22.4976 67.7522 22.7376 67.7122 22.9976H56.6122C56.6722 23.6976 56.8522 24.3376 57.1522 24.9176C57.4722 25.4976 57.9122 25.9576 58.4722 26.2976C59.0522 26.6376 59.7722 26.8076 60.6322 26.8076C61.1322 26.8076 61.6122 26.7476 62.0722 26.6276C62.5322 26.4876 62.9322 26.2876 63.2722 26.0276C63.6322 25.7676 63.8722 25.4376 63.9922 25.0376H67.6522C67.3922 26.1776 66.9122 27.1076 66.2122 27.8276C65.5122 28.5476 64.6722 29.0776 63.6922 29.4176C62.7322 29.7576 61.7122 29.9276 60.6322 29.9276ZM56.6722 20.2676H64.2922C64.2922 19.6076 64.1422 19.0076 63.8422 18.4676C63.5422 17.9276 63.1122 17.5076 62.5522 17.2076C62.0122 16.8876 61.3522 16.7276 60.5722 16.7276C59.7322 16.7276 59.0322 16.8976 58.4722 17.2376C57.9122 17.5776 57.4822 18.0176 57.1822 18.5576C56.8822 19.0976 56.7122 19.6676 56.6722 20.2676ZM75.8188 29.9276C75.0788 29.9276 74.3788 29.8276 73.7188 29.6276C73.0588 29.4276 72.4688 29.1376 71.9488 28.7576C71.4288 28.3576 71.0088 27.8676 70.6888 27.2876C70.3888 26.6876 70.2388 25.9876 70.2388 25.1876C70.2388 24.1676 70.4388 23.3376 70.8388 22.6976C71.2388 22.0376 71.7788 21.5376 72.4588 21.1976C73.1588 20.8576 73.9488 20.6276 74.8288 20.5076C75.7088 20.3676 76.6288 20.2976 77.5888 20.2976H80.6788C80.6788 19.5976 80.5688 18.9976 80.3488 18.4976C80.1288 17.9776 79.7788 17.5676 79.2988 17.2676C78.8388 16.9676 78.2388 16.8176 77.4988 16.8176C77.0188 16.8176 76.5688 16.8776 76.1488 16.9976C75.7488 17.0976 75.3988 17.2676 75.0988 17.5076C74.8188 17.7276 74.6188 18.0176 74.4988 18.3776H70.7488C70.8888 17.5576 71.1688 16.8576 71.5888 16.2776C72.0288 15.6776 72.5588 15.1876 73.1788 14.8076C73.8188 14.4276 74.5188 14.1476 75.2788 13.9676C76.0388 13.7676 76.8088 13.6676 77.5888 13.6676C79.8888 13.6676 81.5588 14.3276 82.5988 15.6476C83.6588 16.9676 84.1888 18.8176 84.1888 21.1976V29.7176H80.9488L80.8588 27.6776C80.3988 28.3576 79.8488 28.8576 79.2088 29.1776C78.5688 29.4976 77.9488 29.6976 77.3488 29.7776C76.7488 29.8776 76.2388 29.9276 75.8188 29.9276ZM76.5388 26.9576C77.3388 26.9576 78.0488 26.8076 78.6688 26.5076C79.2888 26.2076 79.7788 25.7876 80.1388 25.2476C80.5188 24.7076 80.7088 24.0876 80.7088 23.3876V22.8776H77.8288C77.3488 22.8776 76.8688 22.8976 76.3888 22.9376C75.9288 22.9576 75.5088 23.0376 75.1288 23.1776C74.7488 23.2976 74.4388 23.4876 74.1988 23.7476C73.9788 24.0076 73.8688 24.3776 73.8688 24.8576C73.8688 25.3376 73.9888 25.7276 74.2288 26.0276C74.4888 26.3276 74.8188 26.5576 75.2188 26.7176C75.6388 26.8776 76.0788 26.9576 76.5388 26.9576ZM94.1331 29.9276C92.5331 29.9276 91.2131 29.5676 90.1731 28.8476C89.1331 28.1076 88.3531 27.1276 87.8331 25.9076C87.3331 24.6876 87.0831 23.3276 87.0831 21.8276C87.0831 20.2676 87.3531 18.8776 87.8931 17.6576C88.4331 16.4176 89.2431 15.4476 90.3231 14.7476C91.4031 14.0276 92.7531 13.6676 94.3731 13.6676C94.9731 13.6676 95.5531 13.7376 96.1131 13.8776C96.6931 13.9976 97.2331 14.1976 97.7331 14.4776C98.2531 14.7376 98.6831 15.0876 99.0231 15.5276V8.50759H102.683V29.7176H99.1431L99.0831 27.7376C98.7031 28.2376 98.2531 28.6476 97.7331 28.9676C97.2331 29.2876 96.6731 29.5276 96.0531 29.6876C95.4331 29.8476 94.7931 29.9276 94.1331 29.9276ZM94.8231 26.6276C95.7831 26.6276 96.5731 26.4076 97.1931 25.9676C97.8131 25.5076 98.2731 24.9076 98.5731 24.1676C98.8931 23.4076 99.0531 22.6076 99.0531 21.7676C99.0531 20.8876 98.8931 20.0876 98.5731 19.3676C98.2731 18.6476 97.8131 18.0676 97.1931 17.6276C96.5731 17.1876 95.7831 16.9676 94.8231 16.9676C93.8031 16.9676 92.9931 17.1976 92.3931 17.6576C91.8131 18.1176 91.3831 18.7276 91.1031 19.4876C90.8431 20.2276 90.7131 21.0276 90.7131 21.8876C90.7131 22.5276 90.7831 23.1376 90.9231 23.7176C91.0831 24.2776 91.3231 24.7776 91.6431 25.2176C91.9631 25.6576 92.3831 26.0076 92.9031 26.2676C93.4231 26.5076 94.0631 26.6276 94.8231 26.6276ZM105.628 29.7176V26.8976L113.968 17.1476H105.628V13.9076H118.678V16.6976L110.278 26.4776H118.678V29.7176H105.628Z" fill="white"/>
<path d="M23.3176 12.9233C23.2703 14.5786 22.8446 16.6595 21.5677 18.4566C20.8583 19.4498 21.0948 20.0646 21.615 20.9632C25.4458 27.064 22.6082 35.435 15.8925 37.9888C11.4942 39.6441 6.15003 38.4145 3.07596 34.962C-0.32917 31.1786 -0.991279 26.0236 1.51527 21.4834C2.22468 20.2065 2.22468 19.2606 1.56257 17.9364C-1.60609 11.6937 0.616699 4.50505 6.85943 1.80932C15.4668 -1.87957 23.2703 4.26858 23.3176 12.9233ZM20.007 12.2139C20.007 8.33582 17.7369 5.26175 14.0953 4.1267C10.5483 3.03895 6.71756 4.45776 4.58935 7.72101C2.65032 10.6532 2.7922 14.7677 5.10958 17.4635C6.85943 19.5444 8.79847 21.4361 10.6429 23.4224C10.974 23.7535 11.3523 24.3683 11.778 24.0845C13.7643 22.8549 13.5751 24.5102 13.8116 25.5506C14.048 26.4492 14.3851 27.7368 14.5743 28.6354C14.858 30.1488 15.1121 30.3171 13.6933 29.9388C12.6055 29.655 10.6902 29.1922 9.64975 28.8612C8.79846 28.5774 7.52154 28.4828 8.75117 27.1113C9.12952 26.6857 8.75117 26.2127 8.42012 25.8817C7.66342 25.0777 6.90673 24.2264 6.10274 23.4224C4.87311 22.1928 4.58935 22.2401 3.92724 23.8008C2.36656 27.5843 3.69077 31.6988 7.1432 34.0635C10.3592 36.239 15.1358 35.6714 17.8315 32.7392C20.7164 29.6179 20.9529 24.9831 18.3517 21.909C16.6492 19.8754 14.852 17.9364 13.0549 15.9501C12.5346 15.3825 11.9671 14.8623 11.0686 15.4298C10.3119 15.9501 10.0281 15.3825 9.83892 14.7204C9.74433 14.2475 9.49999 13.2248 9.4054 12.7518C8.696 8.54271 7.75222 8.63087 11.914 9.8605C12.9072 10.1443 15.7033 10.5113 14.6156 12.4031C14.3791 12.7814 14.8047 13.1598 15.0885 13.4908C15.9398 14.3894 16.7438 15.3353 17.595 16.2338C18.3517 17.0378 18.9193 16.8486 19.3449 15.9501C19.9597 14.815 20.0543 13.4908 20.007 12.2139Z" fill="url(#paint0_linear_70_8)"/>
<defs>
<linearGradient id="paint0_linear_70_8" x1="11.6696" y1="9.83859" x2="11.6696" y2="41.5811" gradientUnits="userSpaceOnUse">
<stop stop-color="#D8E28C"/>
<stop offset="1" stop-color="#B9C944"/>
</linearGradient>
</defs>
</svg>
