<svg width="223" height="60" viewBox="0 0 223 60" fill="none" xmlns="http://www.w3.org/2000/svg">
<path d="M82.5116 39V23.376H76.5476V19.176H93.0676V23.376H87.0476V39H82.5116ZM94.1038 39V24.244H98.0238L98.3318 25.812C98.7051 25.2707 99.1158 24.8693 99.5638 24.608C100.03 24.3467 100.497 24.1787 100.964 24.104C101.449 24.0107 101.916 23.964 102.364 23.964C102.644 23.964 102.896 23.9733 103.12 23.992C103.362 23.992 103.521 24.0013 103.596 24.02V28.276H102.672C101.888 28.276 101.178 28.3973 100.544 28.64C99.9278 28.8827 99.4424 29.284 99.0878 29.844C98.7331 30.404 98.5558 31.188 98.5558 32.196V39H94.1038ZM112.175 39.224C109.954 39.224 108.237 38.664 107.023 37.544C105.829 36.424 105.231 34.7347 105.231 32.476V24.244H109.683V32.14C109.683 32.7187 109.758 33.2413 109.907 33.708C110.075 34.156 110.346 34.52 110.719 34.8C111.093 35.0613 111.578 35.192 112.175 35.192C112.847 35.192 113.351 35.0427 113.687 34.744C114.023 34.4453 114.238 34.0627 114.331 33.596C114.443 33.1107 114.499 32.6253 114.499 32.14V24.244H118.923V32.476C118.923 34.8467 118.317 36.564 117.103 37.628C115.909 38.692 114.266 39.224 112.175 39.224ZM128.608 39.224C127.078 39.224 125.752 38.916 124.632 38.3C123.531 37.684 122.682 36.816 122.084 35.696C121.487 34.5573 121.188 33.2227 121.188 31.692C121.188 30.1613 121.496 28.8173 122.112 27.66C122.728 26.5027 123.587 25.5973 124.688 24.944C125.808 24.2907 127.124 23.964 128.636 23.964C129.738 23.964 130.708 24.1413 131.548 24.496C132.407 24.8507 133.135 25.3547 133.732 26.008C134.348 26.6613 134.806 27.436 135.104 28.332C135.422 29.228 135.58 30.208 135.58 31.272C135.562 31.552 135.543 31.832 135.524 32.112C135.506 32.3733 135.459 32.644 135.384 32.924H125.584C125.64 33.3907 125.78 33.82 126.004 34.212C126.228 34.604 126.546 34.912 126.956 35.136C127.367 35.36 127.89 35.472 128.524 35.472C128.972 35.472 129.374 35.4253 129.728 35.332C130.102 35.22 130.41 35.0707 130.652 34.884C130.895 34.6787 131.054 34.4547 131.128 34.212H135.496C135.254 35.388 134.787 36.3493 134.096 37.096C133.406 37.824 132.584 38.3653 131.632 38.72C130.68 39.056 129.672 39.224 128.608 39.224ZM125.668 29.928H131.352C131.352 29.536 131.25 29.1533 131.044 28.78C130.858 28.4067 130.559 28.108 130.148 27.884C129.738 27.6413 129.206 27.52 128.552 27.52C127.918 27.52 127.386 27.6413 126.956 27.884C126.527 28.1267 126.21 28.4347 126.004 28.808C125.799 29.1813 125.687 29.5547 125.668 29.928ZM146.426 39V19.176H150.822L159.586 31.552V19.176H164.15V39H159.865L150.962 26.764V39H146.426ZM174.632 39.224C173.158 39.224 171.842 38.9253 170.684 38.328C169.546 37.7307 168.65 36.872 167.996 35.752C167.343 34.6133 167.016 33.2507 167.016 31.664C167.016 30.04 167.343 28.6587 167.996 27.52C168.668 26.3627 169.574 25.4853 170.712 24.888C171.851 24.272 173.139 23.964 174.576 23.964C176.032 23.964 177.32 24.2813 178.44 24.916C179.56 25.532 180.447 26.4187 181.1 27.576C181.754 28.7147 182.08 30.096 182.08 31.72C182.08 33.3067 181.763 34.66 181.128 35.78C180.512 36.9 179.644 37.7587 178.524 38.356C177.404 38.9347 176.107 39.224 174.632 39.224ZM174.548 35.108C175.332 35.108 175.958 34.94 176.424 34.604C176.891 34.268 177.218 33.8387 177.404 33.316C177.61 32.7933 177.712 32.252 177.712 31.692C177.712 31.132 177.61 30.572 177.404 30.012C177.218 29.452 176.891 28.9947 176.424 28.64C175.976 28.2667 175.351 28.08 174.548 28.08C173.764 28.08 173.139 28.2667 172.672 28.64C172.206 28.9947 171.87 29.452 171.664 30.012C171.459 30.5533 171.356 31.1133 171.356 31.692C171.356 32.252 171.459 32.8027 171.664 33.344C171.888 33.8667 172.224 34.296 172.672 34.632C173.139 34.9493 173.764 35.108 174.548 35.108ZM184.366 39V24.244H188.286L188.594 25.812C188.967 25.2707 189.378 24.8693 189.826 24.608C190.292 24.3467 190.759 24.1787 191.226 24.104C191.711 24.0107 192.178 23.964 192.626 23.964C192.906 23.964 193.158 23.9733 193.382 23.992C193.624 23.992 193.783 24.0013 193.858 24.02V28.276H192.934C192.15 28.276 191.44 28.3973 190.806 28.64C190.19 28.8827 189.704 29.284 189.35 29.844C188.995 30.404 188.818 31.188 188.818 32.196V39H184.366ZM203.313 39C202.043 39 200.97 38.86 200.093 38.58C199.215 38.2813 198.543 37.7773 198.077 37.068C197.629 36.34 197.405 35.3227 197.405 34.016V28.192H195.277V24.244H197.405V20.436H201.857V24.244H204.797V28.192H201.857V33.372C201.857 33.8573 201.941 34.2587 202.109 34.576C202.277 34.8747 202.706 35.024 203.397 35.024H204.657V39H203.313ZM206.623 39V19.176H211.075V25.784C211.505 25.28 211.99 24.8973 212.531 24.636C213.073 24.3747 213.605 24.1973 214.127 24.104C214.669 24.0107 215.135 23.964 215.527 23.964C216.89 23.964 217.963 24.2813 218.747 24.916C219.531 25.532 220.082 26.3627 220.399 27.408C220.735 28.4533 220.903 29.6013 220.903 30.852V39H216.479V31.328C216.479 30.9733 216.442 30.6 216.367 30.208C216.293 29.816 216.153 29.4613 215.947 29.144C215.761 28.808 215.499 28.5373 215.163 28.332C214.827 28.1267 214.389 28.024 213.847 28.024C213.343 28.024 212.905 28.1267 212.531 28.332C212.177 28.5187 211.887 28.78 211.663 29.116C211.458 29.452 211.309 29.8347 211.215 30.264C211.122 30.6747 211.075 31.0947 211.075 31.524V39H206.623Z" fill="#14202E"/>
<path d="M38.2297 1.62571L32.3395 0.0474243L27.3757 18.5724L22.8944 1.84793L17.0041 3.42622L21.8459 21.4958L9.78604 9.43603L5.47408 13.748L18.7022 26.9762L2.22868 22.5621L0.650391 28.4523L18.6498 33.2753C18.4437 32.3864 18.3347 31.4603 18.3347 30.5087C18.3347 23.773 23.7951 18.3126 30.5308 18.3126C37.2665 18.3126 42.7269 23.773 42.7269 30.5087C42.7269 31.4541 42.6192 32.3746 42.4157 33.2582L58.7738 37.6413L60.352 31.7511L42.281 26.909L58.7557 22.4946L57.1774 16.6044L39.1071 21.4462L51.1669 9.38651L46.8549 5.07456L33.8103 18.1193L38.2297 1.62571Z" fill="#D8E28C"/>
<path d="M42.4012 33.3273C41.8962 35.4623 40.8301 37.3803 39.3672 38.917L51.2179 50.7679L55.5299 46.4559L42.4012 33.3273Z" fill="#D8E28C"/>
<path d="M39.2466 39.0414C37.766 40.5535 35.8951 41.682 33.7969 42.2635L38.1091 58.357L43.9993 56.7787L39.2466 39.0414Z" fill="#D8E28C"/>
<path d="M33.5773 42.3216C32.6039 42.5719 31.5835 42.7049 30.5321 42.7049C29.4055 42.7049 28.3147 42.5521 27.2791 42.2662L22.9629 58.3744L28.8531 59.9526L33.5773 42.3216Z" fill="#D8E28C"/>
<path d="M27.07 42.2073C25.0039 41.5968 23.1661 40.454 21.7158 38.9375L9.83594 50.8174L14.1479 55.1294L27.07 42.2073Z" fill="#D8E28C"/>
<path d="M21.6176 38.8317C20.1921 37.3056 19.1538 35.4132 18.6596 33.3112L2.24805 37.7086L3.82632 43.5988L21.6176 38.8317Z" fill="#D8E28C"/>
</svg>
