<svg width="233" height="60" viewBox="0 0 233 60" fill="none" xmlns="http://www.w3.org/2000/svg">
<path d="M78.1775 38.896V19.072H82.7135V34.724H92.4855V38.896H78.1775ZM101.295 39.12C99.0732 39.12 97.3558 38.56 96.1425 37.44C94.9478 36.32 94.3505 34.6307 94.3505 32.372V24.14H98.8025V32.036C98.8025 32.6147 98.8772 33.1374 99.0265 33.604C99.1945 34.052 99.4652 34.416 99.8385 34.696C100.212 34.9574 100.697 35.088 101.295 35.088C101.967 35.088 102.471 34.9387 102.807 34.64C103.143 34.3414 103.357 33.9587 103.451 33.492C103.563 33.0067 103.619 32.5214 103.619 32.036V24.14H108.043V32.372C108.043 34.7427 107.436 36.46 106.223 37.524C105.028 38.588 103.385 39.12 101.295 39.12ZM109.523 38.896L114.647 31.364L109.803 24.14H114.899L117.531 28.452L120.135 24.14H125.119L120.219 31.448L125.455 38.896H120.303L117.391 34.332L114.451 38.896H109.523ZM133.559 39.12C132.029 39.12 130.703 38.812 129.583 38.196C128.482 37.58 127.633 36.712 127.035 35.592C126.438 34.4534 126.139 33.1187 126.139 31.588C126.139 30.0574 126.447 28.7134 127.063 27.556C127.679 26.3987 128.538 25.4934 129.639 24.84C130.759 24.1867 132.075 23.86 133.587 23.86C134.689 23.86 135.659 24.0374 136.499 24.392C137.358 24.7467 138.086 25.2507 138.683 25.904C139.299 26.5574 139.757 27.332 140.055 28.228C140.373 29.124 140.531 30.104 140.531 31.168C140.513 31.448 140.494 31.728 140.475 32.008C140.457 32.2694 140.41 32.54 140.335 32.82H130.535C130.591 33.2867 130.731 33.716 130.955 34.108C131.179 34.5 131.497 34.808 131.907 35.032C132.318 35.256 132.841 35.368 133.475 35.368C133.923 35.368 134.325 35.3214 134.679 35.228C135.053 35.116 135.361 34.9667 135.603 34.78C135.846 34.5747 136.005 34.3507 136.079 34.108H140.447C140.205 35.284 139.738 36.2454 139.047 36.992C138.357 37.72 137.535 38.2614 136.583 38.616C135.631 38.952 134.623 39.12 133.559 39.12ZM130.619 29.824H136.303C136.303 29.432 136.201 29.0494 135.995 28.676C135.809 28.3027 135.51 28.004 135.099 27.78C134.689 27.5374 134.157 27.416 133.503 27.416C132.869 27.416 132.337 27.5374 131.907 27.78C131.478 28.0227 131.161 28.3307 130.955 28.704C130.75 29.0774 130.638 29.4507 130.619 29.824ZM151.377 38.896V19.072H157.257L162.297 28.2L167.337 19.072H172.993V38.896H168.429V25.344L163.137 34.724H161.317L155.913 25.344V38.896H151.377ZM183.27 39.12C181.74 39.12 180.414 38.812 179.294 38.196C178.193 37.58 177.344 36.712 176.746 35.592C176.149 34.4534 175.85 33.1187 175.85 31.588C175.85 30.0574 176.158 28.7134 176.774 27.556C177.39 26.3987 178.249 25.4934 179.35 24.84C180.47 24.1867 181.786 23.86 183.298 23.86C184.4 23.86 185.37 24.0374 186.21 24.392C187.069 24.7467 187.797 25.2507 188.394 25.904C189.01 26.5574 189.468 27.332 189.766 28.228C190.084 29.124 190.242 30.104 190.242 31.168C190.224 31.448 190.205 31.728 190.186 32.008C190.168 32.2694 190.121 32.54 190.046 32.82H180.246C180.302 33.2867 180.442 33.716 180.666 34.108C180.89 34.5 181.208 34.808 181.618 35.032C182.029 35.256 182.552 35.368 183.186 35.368C183.634 35.368 184.036 35.3214 184.39 35.228C184.764 35.116 185.072 34.9667 185.314 34.78C185.557 34.5747 185.716 34.3507 185.79 34.108H190.158C189.916 35.284 189.449 36.2454 188.758 36.992C188.068 37.72 187.246 38.2614 186.294 38.616C185.342 38.952 184.334 39.12 183.27 39.12ZM180.33 29.824H186.014C186.014 29.432 185.912 29.0494 185.706 28.676C185.52 28.3027 185.221 28.004 184.81 27.78C184.4 27.5374 183.868 27.416 183.214 27.416C182.58 27.416 182.048 27.5374 181.618 27.78C181.189 28.0227 180.872 28.3307 180.666 28.704C180.461 29.0774 180.349 29.4507 180.33 29.824ZM198.648 39.12C197.136 39.12 195.885 38.7747 194.896 38.084C193.907 37.3747 193.169 36.4507 192.684 35.312C192.199 34.1547 191.956 32.8854 191.956 31.504C191.956 30.0107 192.227 28.6947 192.768 27.556C193.309 26.3987 194.103 25.4934 195.148 24.84C196.193 24.1867 197.481 23.86 199.012 23.86C199.535 23.86 200.029 23.916 200.496 24.028C200.981 24.14 201.429 24.308 201.84 24.532C202.269 24.7374 202.624 25.008 202.904 25.344V19.072H207.356V38.896H203.016V37.412C202.661 37.804 202.251 38.1214 201.784 38.364C201.336 38.6067 200.851 38.7934 200.328 38.924C199.805 39.0547 199.245 39.12 198.648 39.12ZM199.6 35.088C200.384 35.088 201.019 34.92 201.504 34.584C201.989 34.2294 202.344 33.7814 202.568 33.24C202.811 32.68 202.932 32.1014 202.932 31.504C202.932 30.8694 202.811 30.2814 202.568 29.74C202.344 29.1987 201.989 28.76 201.504 28.424C201.019 28.088 200.384 27.92 199.6 27.92C198.797 27.92 198.153 28.1067 197.668 28.48C197.201 28.8347 196.865 29.292 196.66 29.852C196.473 30.412 196.38 30.9907 196.38 31.588C196.38 32.036 196.436 32.4747 196.548 32.904C196.66 33.3147 196.837 33.688 197.08 34.024C197.341 34.3414 197.677 34.6027 198.088 34.808C198.499 34.9947 199.003 35.088 199.6 35.088ZM210.207 38.896V24.14H214.659V38.896H210.207ZM212.447 22.908C211.626 22.908 210.963 22.6654 210.459 22.18C209.974 21.6947 209.731 21.06 209.731 20.276C209.731 19.4734 209.993 18.82 210.515 18.316C211.038 17.812 211.691 17.56 212.475 17.56C213.222 17.56 213.857 17.8027 214.379 18.288C214.902 18.7734 215.163 19.4267 215.163 20.248C215.163 21.0507 214.911 21.6947 214.407 22.18C213.903 22.6654 213.25 22.908 212.447 22.908ZM222.184 39.12C221.493 39.12 220.84 39.0267 220.224 38.84C219.608 38.6534 219.057 38.3734 218.572 38C218.087 37.6267 217.704 37.16 217.424 36.6C217.144 36.04 217.004 35.3867 217.004 34.64C217.004 33.576 217.219 32.736 217.648 32.12C218.096 31.4854 218.693 31.0187 219.44 30.72C220.205 30.4027 221.073 30.1974 222.044 30.104C223.015 30.0107 224.023 29.964 225.068 29.964H226.468C226.468 29.4974 226.375 29.096 226.188 28.76C226.02 28.4054 225.759 28.1254 225.404 27.92C225.049 27.7147 224.611 27.612 224.088 27.612C223.715 27.612 223.36 27.668 223.024 27.78C222.707 27.8734 222.436 28.0134 222.212 28.2C222.007 28.368 221.867 28.5827 221.792 28.844H217.34C217.471 27.9667 217.741 27.22 218.152 26.604C218.581 25.9694 219.104 25.456 219.72 25.064C220.355 24.672 221.064 24.3827 221.848 24.196C222.632 23.9907 223.435 23.888 224.256 23.888C226.421 23.888 228.036 24.4947 229.1 25.708C230.164 26.9214 230.696 28.676 230.696 30.972V38.896H226.636L226.608 36.964C226.141 37.6734 225.609 38.1774 225.012 38.476C224.415 38.7747 223.855 38.952 223.332 39.008C222.809 39.0827 222.427 39.12 222.184 39.12ZM223.304 35.676C223.864 35.676 224.387 35.5547 224.872 35.312C225.357 35.0507 225.749 34.724 226.048 34.332C226.365 33.9214 226.524 33.4827 226.524 33.016V32.792H223.78C223.481 32.792 223.183 32.8107 222.884 32.848C222.604 32.8854 222.352 32.96 222.128 33.072C221.904 33.1654 221.727 33.3054 221.596 33.492C221.465 33.6787 221.4 33.9214 221.4 34.22C221.4 34.5374 221.484 34.808 221.652 35.032C221.82 35.2374 222.044 35.396 222.324 35.508C222.623 35.62 222.949 35.676 223.304 35.676Z" fill="#14202E"/>
<path d="M38.0676 1.62571L32.1774 0.0474243L27.2136 18.5724L22.7323 1.84793L16.842 3.42622L21.6838 21.4958L9.62393 9.43603L5.31197 13.748L18.5401 26.9762L2.06657 22.5621L0.488281 28.4523L18.4877 33.2753C18.2816 32.3864 18.1726 31.4603 18.1726 30.5087C18.1726 23.773 23.633 18.3126 30.3687 18.3126C37.1044 18.3126 42.5648 23.773 42.5648 30.5087C42.5648 31.4541 42.4571 32.3746 42.2536 33.2582L58.6117 37.6413L60.1899 31.7511L42.1189 26.909L58.5936 22.4946L57.0152 16.6044L38.945 21.4462L51.0048 9.38651L46.6928 5.07456L33.6482 18.1193L38.0676 1.62571Z" fill="#D8E28C"/>
<path d="M42.2391 33.3272C41.7341 35.4623 40.668 37.3803 39.2051 38.917L51.0558 50.7679L55.3678 46.4559L42.2391 33.3272Z" fill="#D8E28C"/>
<path d="M39.0845 39.0414C37.6039 40.5535 35.7329 41.682 33.6348 42.2635L37.947 58.357L43.8372 56.7787L39.0845 39.0414Z" fill="#D8E28C"/>
<path d="M33.4152 42.3216C32.4418 42.5719 31.4214 42.7049 30.3699 42.7049C29.2434 42.7049 28.1526 42.5521 27.1169 42.2662L22.8008 58.3744L28.691 59.9526L33.4152 42.3216Z" fill="#D8E28C"/>
<path d="M26.9079 42.2073C24.8418 41.5968 23.004 40.454 21.5537 38.9375L9.67383 50.8174L13.9858 55.1294L26.9079 42.2073Z" fill="#D8E28C"/>
<path d="M21.4555 38.8317C20.03 37.3056 18.9917 35.4132 18.4975 33.3112L2.08594 37.7086L3.66421 43.5988L21.4555 38.8317Z" fill="#D8E28C"/>
</svg>
