<svg width="263" height="60" viewBox="0 0 263 60" fill="none" xmlns="http://www.w3.org/2000/svg">
<path d="M78.417 38.896V19.072H87.685C88.5624 19.072 89.365 19.1653 90.093 19.352C90.8397 19.52 91.4837 19.8093 92.025 20.22C92.585 20.612 93.0237 21.144 93.341 21.816C93.6584 22.4693 93.817 23.3 93.817 24.308C93.817 25.0733 93.6397 25.8013 93.285 26.492C92.9304 27.1827 92.4264 27.7147 91.773 28.088C92.6504 28.424 93.3504 28.9747 93.873 29.74C94.4144 30.5053 94.685 31.504 94.685 32.736C94.685 33.8933 94.461 34.864 94.013 35.648C93.5837 36.432 92.9864 37.0667 92.221 37.552C91.4744 38.0373 90.597 38.3827 89.589 38.588C88.581 38.7933 87.5077 38.896 86.369 38.896H78.417ZM82.953 34.724H87.041C87.5077 34.724 87.9277 34.6867 88.301 34.612C88.693 34.5187 89.0197 34.3973 89.281 34.248C89.561 34.08 89.7664 33.8653 89.897 33.604C90.0464 33.324 90.121 33.0067 90.121 32.652C90.121 32.2787 90.0557 31.9707 89.925 31.728C89.813 31.4853 89.6357 31.2893 89.393 31.14C89.1504 30.972 88.861 30.86 88.525 30.804C88.189 30.7293 87.8064 30.692 87.377 30.692H82.953V34.724ZM82.953 26.968H86.565C87.013 26.968 87.405 26.9213 87.741 26.828C88.0957 26.7347 88.385 26.604 88.609 26.436C88.833 26.2493 89.001 26.0347 89.113 25.792C89.2437 25.5307 89.309 25.232 89.309 24.896C89.309 24.448 89.197 24.112 88.973 23.888C88.7677 23.6453 88.469 23.4867 88.077 23.412C87.7037 23.3187 87.265 23.272 86.761 23.272H82.953V26.968ZM104.082 39.12C102.607 39.12 101.291 38.8213 100.134 38.224C98.995 37.6267 98.099 36.768 97.4457 35.648C96.7923 34.5093 96.4657 33.1467 96.4657 31.56C96.4657 29.936 96.7923 28.5547 97.4457 27.416C98.1177 26.2587 99.023 25.3813 100.162 24.784C101.3 24.168 102.588 23.86 104.026 23.86C105.482 23.86 106.77 24.1773 107.89 24.812C109.01 25.428 109.896 26.3147 110.55 27.472C111.203 28.6107 111.53 29.992 111.53 31.616C111.53 33.2027 111.212 34.556 110.578 35.676C109.962 36.796 109.094 37.6547 107.974 38.252C106.854 38.8307 105.556 39.12 104.082 39.12ZM103.998 35.004C104.782 35.004 105.407 34.836 105.874 34.5C106.34 34.164 106.667 33.7347 106.854 33.212C107.059 32.6893 107.162 32.148 107.162 31.588C107.162 31.028 107.059 30.468 106.854 29.908C106.667 29.348 106.34 28.8907 105.874 28.536C105.426 28.1627 104.8 27.976 103.998 27.976C103.214 27.976 102.588 28.1627 102.122 28.536C101.655 28.8907 101.319 29.348 101.114 29.908C100.908 30.4493 100.806 31.0093 100.806 31.588C100.806 32.148 100.908 32.6987 101.114 33.24C101.338 33.7627 101.674 34.192 102.122 34.528C102.588 34.8453 103.214 35.004 103.998 35.004ZM113.815 38.896V19.072H118.267V38.896H113.815ZM127.248 39.12C125.736 39.12 124.485 38.7747 123.496 38.084C122.506 37.3747 121.769 36.4507 121.284 35.312C120.798 34.1547 120.556 32.8853 120.556 31.504C120.556 30.0107 120.826 28.6947 121.368 27.556C121.909 26.3987 122.702 25.4933 123.748 24.84C124.793 24.1867 126.081 23.86 127.612 23.86C128.134 23.86 128.629 23.916 129.096 24.028C129.581 24.14 130.029 24.308 130.44 24.532C130.869 24.7373 131.224 25.008 131.504 25.344V19.072H135.956V38.896H131.616V37.412C131.261 37.804 130.85 38.1213 130.384 38.364C129.936 38.6067 129.45 38.7933 128.928 38.924C128.405 39.0547 127.845 39.12 127.248 39.12ZM128.2 35.088C128.984 35.088 129.618 34.92 130.104 34.584C130.589 34.2293 130.944 33.7813 131.168 33.24C131.41 32.68 131.532 32.1013 131.532 31.504C131.532 30.8693 131.41 30.2813 131.168 29.74C130.944 29.1987 130.589 28.76 130.104 28.424C129.618 28.088 128.984 27.92 128.2 27.92C127.397 27.92 126.753 28.1067 126.268 28.48C125.801 28.8347 125.465 29.292 125.26 29.852C125.073 30.412 124.98 30.9907 124.98 31.588C124.98 32.036 125.036 32.4747 125.148 32.904C125.26 33.3147 125.437 33.688 125.68 34.024C125.941 34.3413 126.277 34.6027 126.688 34.808C127.098 34.9947 127.602 35.088 128.2 35.088ZM147.379 38.896V19.072H151.775L160.539 31.448V19.072H165.103V38.896H160.819L151.915 26.66V38.896H147.379ZM175.39 39.12C173.859 39.12 172.534 38.812 171.414 38.196C170.312 37.58 169.463 36.712 168.866 35.592C168.268 34.4533 167.97 33.1187 167.97 31.588C167.97 30.0573 168.278 28.7133 168.894 27.556C169.51 26.3987 170.368 25.4933 171.47 24.84C172.59 24.1867 173.906 23.86 175.418 23.86C176.519 23.86 177.49 24.0373 178.33 24.392C179.188 24.7467 179.916 25.2507 180.514 25.904C181.13 26.5573 181.587 27.332 181.886 28.228C182.203 29.124 182.362 30.104 182.362 31.168C182.343 31.448 182.324 31.728 182.306 32.008C182.287 32.2693 182.24 32.54 182.166 32.82H172.366C172.422 33.2867 172.562 33.716 172.786 34.108C173.01 34.5 173.327 34.808 173.738 35.032C174.148 35.256 174.671 35.368 175.306 35.368C175.754 35.368 176.155 35.3213 176.51 35.228C176.883 35.116 177.191 34.9667 177.434 34.78C177.676 34.5747 177.835 34.3507 177.91 34.108H182.278C182.035 35.284 181.568 36.2453 180.878 36.992C180.187 37.72 179.366 38.2613 178.414 38.616C177.462 38.952 176.454 39.12 175.39 39.12ZM172.45 29.824H178.134C178.134 29.432 178.031 29.0493 177.826 28.676C177.639 28.3027 177.34 28.004 176.93 27.78C176.519 27.5373 175.987 27.416 175.334 27.416C174.699 27.416 174.167 27.5373 173.738 27.78C173.308 28.0227 172.991 28.3307 172.786 28.704C172.58 29.0773 172.468 29.4507 172.45 29.824ZM191.551 38.896C190.282 38.896 189.208 38.756 188.331 38.476C187.454 38.1773 186.782 37.6733 186.315 36.964C185.867 36.236 185.643 35.2187 185.643 33.912V28.088H183.515V24.14H185.643V20.332H190.095V24.14H193.035V28.088H190.095V33.268C190.095 33.7533 190.179 34.1547 190.347 34.472C190.515 34.7707 190.944 34.92 191.635 34.92H192.895V38.896H191.551ZM198.054 38.896L193.378 24.14H198.222L200.686 33.688L203.346 24.14H208.162L210.822 33.688L213.258 24.14H217.99L213.314 38.896H208.386L205.67 29.572L202.982 38.896H198.054ZM226.418 39.12C224.943 39.12 223.627 38.8213 222.47 38.224C221.331 37.6267 220.435 36.768 219.782 35.648C219.128 34.5093 218.802 33.1467 218.802 31.56C218.802 29.936 219.128 28.5547 219.782 27.416C220.454 26.2587 221.359 25.3813 222.498 24.784C223.636 24.168 224.924 23.86 226.362 23.86C227.818 23.86 229.106 24.1773 230.226 24.812C231.346 25.428 232.232 26.3147 232.886 27.472C233.539 28.6107 233.866 29.992 233.866 31.616C233.866 33.2027 233.548 34.556 232.914 35.676C232.298 36.796 231.43 37.6547 230.31 38.252C229.19 38.8307 227.892 39.12 226.418 39.12ZM226.334 35.004C227.118 35.004 227.743 34.836 228.21 34.5C228.676 34.164 229.003 33.7347 229.19 33.212C229.395 32.6893 229.498 32.148 229.498 31.588C229.498 31.028 229.395 30.468 229.19 29.908C229.003 29.348 228.676 28.8907 228.21 28.536C227.762 28.1627 227.136 27.976 226.334 27.976C225.55 27.976 224.924 28.1627 224.458 28.536C223.991 28.8907 223.655 29.348 223.45 29.908C223.244 30.4493 223.142 31.0093 223.142 31.588C223.142 32.148 223.244 32.6987 223.45 33.24C223.674 33.7627 224.01 34.192 224.458 34.528C224.924 34.8453 225.55 35.004 226.334 35.004ZM236.151 38.896V24.14H240.071L240.379 25.708C240.752 25.1667 241.163 24.7653 241.611 24.504C242.077 24.2427 242.544 24.0747 243.011 24C243.496 23.9067 243.963 23.86 244.411 23.86C244.691 23.86 244.943 23.8693 245.167 23.888C245.409 23.888 245.568 23.8973 245.643 23.916V28.172H244.719C243.935 28.172 243.225 28.2933 242.591 28.536C241.975 28.7787 241.489 29.18 241.135 29.74C240.78 30.3 240.603 31.084 240.603 32.092V38.896H236.151ZM247.334 38.896V19.072H251.786V29.572H253.466L256.826 24.14H261.81L257.162 31.168L262.174 38.896H257.05L253.606 33.52H251.786V38.896H247.334Z" fill="#14202E"/>
<path d="M38.3351 1.62571L32.445 0.0474243L27.4812 18.5724L22.9999 1.84793L17.1095 3.42622L21.9514 21.4958L9.89151 9.43603L5.57955 13.748L18.8077 26.9762L2.33415 22.5621L0.755859 28.4523L18.7553 33.2753C18.5492 32.3864 18.4402 31.4603 18.4402 30.5087C18.4402 23.773 23.9005 18.3126 30.6363 18.3126C37.372 18.3126 42.8324 23.773 42.8324 30.5087C42.8324 31.4541 42.7247 32.3746 42.5211 33.2582L58.8793 37.6413L60.4575 31.7511L42.3865 26.909L58.8612 22.4946L57.2828 16.6044L39.2126 21.4462L51.2724 9.38651L46.9604 5.07456L33.9158 18.1193L38.3351 1.62571Z" fill="#D8E28C"/>
<path d="M42.5067 33.3273C42.0017 35.4623 40.9355 37.3803 39.4727 38.917L51.3234 50.7679L55.6354 46.4559L42.5067 33.3273Z" fill="#D8E28C"/>
<path d="M39.3521 39.0414C37.8715 40.5535 36.0005 41.682 33.9023 42.2635L38.2146 58.357L44.1048 56.7787L39.3521 39.0414Z" fill="#D8E28C"/>
<path d="M33.6828 42.3216C32.7093 42.5719 31.689 42.7049 30.6375 42.7049C29.511 42.7049 28.4201 42.5521 27.3845 42.2662L23.0684 58.3744L28.9585 59.9526L33.6828 42.3216Z" fill="#D8E28C"/>
<path d="M27.1755 42.2073C25.1094 41.5968 23.2716 40.454 21.8213 38.9375L9.94141 50.8174L14.2534 55.1294L27.1755 42.2073Z" fill="#D8E28C"/>
<path d="M21.723 38.8317C20.2976 37.3056 19.2593 35.4132 18.7651 33.3112L2.35352 37.7086L3.93179 43.5988L21.723 38.8317Z" fill="#D8E28C"/>
</svg>
