<svg width="227" height="62" viewBox="0 0 227 62" fill="none" xmlns="http://www.w3.org/2000/svg">
<path d="M86.5135 40.12C85.0948 40.12 83.7788 39.896 82.5655 39.448C81.3522 38.9813 80.3442 38.2627 79.5415 37.292C78.7575 36.3027 78.2722 35.0427 78.0855 33.512H82.6775C82.8268 34.0907 83.0975 34.5573 83.4895 34.912C83.9002 35.2667 84.3948 35.528 84.9735 35.696C85.5522 35.8453 86.1682 35.92 86.8215 35.92C87.2695 35.92 87.7175 35.8733 88.1655 35.78C88.6135 35.668 88.9868 35.4813 89.2855 35.22C89.5842 34.9587 89.7335 34.5947 89.7335 34.128C89.7335 33.7733 89.6495 33.4933 89.4815 33.288C89.3135 33.064 89.0708 32.8867 88.7535 32.756C88.4548 32.6067 88.0815 32.476 87.6335 32.364C87.3535 32.2893 87.0642 32.224 86.7655 32.168C86.4668 32.112 86.1775 32.0467 85.8975 31.972C85.6175 31.8973 85.3375 31.8133 85.0575 31.72C84.2175 31.5147 83.4148 31.2813 82.6495 31.02C81.8842 30.74 81.2028 30.3853 80.6055 29.956C80.0268 29.5267 79.5695 28.9667 79.2335 28.276C78.8975 27.5853 78.7295 26.7267 78.7295 25.7C78.7295 24.7107 78.8975 23.8707 79.2335 23.18C79.5882 22.4707 80.0548 21.9013 80.6335 21.472C81.2308 21.024 81.8748 20.688 82.5655 20.464C83.2748 20.2213 83.9748 20.0533 84.6655 19.96C85.3748 19.8667 86.0282 19.82 86.6255 19.82C87.9508 19.82 89.1268 20.0627 90.1535 20.548C91.1988 21.0333 92.0388 21.752 92.6735 22.704C93.3268 23.6373 93.7188 24.7947 93.8495 26.176H89.4535C89.3788 25.6907 89.1828 25.2893 88.8655 24.972C88.5668 24.6547 88.1748 24.412 87.6895 24.244C87.2228 24.076 86.6815 23.992 86.0655 23.992C85.6922 23.992 85.3282 24.0293 84.9735 24.104C84.6375 24.16 84.3388 24.2533 84.0775 24.384C83.8348 24.5147 83.6295 24.692 83.4615 24.916C83.3122 25.1213 83.2375 25.3827 83.2375 25.7C83.2375 26.036 83.3495 26.3253 83.5735 26.568C83.7975 26.792 84.1148 26.988 84.5255 27.156C84.9548 27.324 85.4775 27.492 86.0935 27.66C86.5228 27.8093 86.9615 27.9307 87.4095 28.024C87.8762 28.0987 88.3242 28.2013 88.7535 28.332C89.5375 28.5187 90.2562 28.7427 90.9095 29.004C91.5815 29.2467 92.1695 29.564 92.6735 29.956C93.1775 30.3293 93.5695 30.8333 93.8495 31.468C94.1482 32.084 94.2975 32.868 94.2975 33.82C94.2975 34.9773 94.0828 35.9573 93.6535 36.76C93.2242 37.544 92.6362 38.188 91.8895 38.692C91.1428 39.196 90.3028 39.56 89.3695 39.784C88.4548 40.008 87.5028 40.12 86.5135 40.12ZM96.9046 39.896V20.072H101.357V30.572H103.037L106.397 25.14H111.381L106.733 32.168L111.745 39.896H106.621L103.177 34.52H101.357V39.896H96.9046ZM119.48 46.784C118.341 46.784 117.221 46.6347 116.12 46.336C115.037 46.0373 114.001 45.552 113.012 44.88L114.412 41.296C114.972 41.7067 115.616 42.0333 116.344 42.276C117.091 42.5187 117.94 42.64 118.892 42.64C120.292 42.64 121.347 42.3413 122.056 41.744C122.765 41.1467 123.12 40.232 123.12 39V38.552C122.803 38.944 122.411 39.252 121.944 39.476C121.477 39.7 120.992 39.8587 120.488 39.952C119.984 40.064 119.48 40.12 118.976 40.12C117.557 40.12 116.419 39.8213 115.56 39.224C114.701 38.6267 114.076 37.8053 113.684 36.76C113.292 35.7147 113.096 34.5387 113.096 33.232V25.14H117.492V32.364C117.492 32.7747 117.52 33.1947 117.576 33.624C117.632 34.0533 117.753 34.464 117.94 34.856C118.127 35.2293 118.407 35.5373 118.78 35.78C119.172 36.004 119.676 36.116 120.292 36.116C121.132 36.116 121.748 35.9107 122.14 35.5C122.532 35.0893 122.784 34.5853 122.896 33.988C123.008 33.372 123.064 32.756 123.064 32.14V25.14H127.516V37.068C127.516 38.5053 127.395 39.812 127.152 40.988C126.909 42.1827 126.489 43.2093 125.892 44.068C125.295 44.9267 124.473 45.5893 123.428 46.056C122.383 46.5413 121.067 46.784 119.48 46.784ZM138.917 39.896V20.072H148.185C149.062 20.072 149.865 20.1653 150.593 20.352C151.34 20.52 151.984 20.8093 152.525 21.22C153.085 21.612 153.524 22.144 153.841 22.816C154.158 23.4693 154.317 24.3 154.317 25.308C154.317 26.0733 154.14 26.8013 153.785 27.492C153.43 28.1827 152.926 28.7147 152.273 29.088C153.15 29.424 153.85 29.9747 154.373 30.74C154.914 31.5053 155.185 32.504 155.185 33.736C155.185 34.8933 154.961 35.864 154.513 36.648C154.084 37.432 153.486 38.0667 152.721 38.552C151.974 39.0373 151.097 39.3827 150.089 39.588C149.081 39.7933 148.008 39.896 146.869 39.896H138.917ZM143.453 35.724H147.541C148.008 35.724 148.428 35.6867 148.801 35.612C149.193 35.5187 149.52 35.3973 149.781 35.248C150.061 35.08 150.266 34.8653 150.397 34.604C150.546 34.324 150.621 34.0067 150.621 33.652C150.621 33.2787 150.556 32.9707 150.425 32.728C150.313 32.4853 150.136 32.2893 149.893 32.14C149.65 31.972 149.361 31.86 149.025 31.804C148.689 31.7293 148.306 31.692 147.877 31.692H143.453V35.724ZM143.453 27.968H147.065C147.513 27.968 147.905 27.9213 148.241 27.828C148.596 27.7347 148.885 27.604 149.109 27.436C149.333 27.2493 149.501 27.0347 149.613 26.792C149.744 26.5307 149.809 26.232 149.809 25.896C149.809 25.448 149.697 25.112 149.473 24.888C149.268 24.6453 148.969 24.4867 148.577 24.412C148.204 24.3187 147.765 24.272 147.261 24.272H143.453V27.968ZM157.526 39.896V25.14H161.446L161.754 26.708C162.127 26.1667 162.538 25.7653 162.986 25.504C163.452 25.2427 163.919 25.0747 164.386 25C164.871 24.9067 165.338 24.86 165.786 24.86C166.066 24.86 166.318 24.8693 166.542 24.888C166.784 24.888 166.943 24.8973 167.018 24.916V29.172H166.094C165.31 29.172 164.6 29.2933 163.966 29.536C163.35 29.7787 162.864 30.18 162.51 30.74C162.155 31.3 161.978 32.084 161.978 33.092V39.896H157.526ZM168.709 39.896V25.14H173.161V39.896H168.709ZM170.949 23.908C170.128 23.908 169.465 23.6653 168.961 23.18C168.476 22.6947 168.233 22.06 168.233 21.276C168.233 20.4733 168.495 19.82 169.017 19.316C169.54 18.812 170.193 18.56 170.977 18.56C171.724 18.56 172.359 18.8027 172.881 19.288C173.404 19.7733 173.665 20.4267 173.665 21.248C173.665 22.0507 173.413 22.6947 172.909 23.18C172.405 23.6653 171.752 23.908 170.949 23.908ZM182.142 40.12C180.63 40.12 179.379 39.7747 178.39 39.084C177.401 38.3747 176.663 37.4507 176.178 36.312C175.693 35.1547 175.45 33.8853 175.45 32.504C175.45 31.0107 175.721 29.6947 176.262 28.556C176.803 27.3987 177.597 26.4933 178.642 25.84C179.687 25.1867 180.975 24.86 182.506 24.86C183.029 24.86 183.523 24.916 183.99 25.028C184.475 25.14 184.923 25.308 185.334 25.532C185.763 25.7373 186.118 26.008 186.398 26.344V20.072H190.85V39.896H186.51V38.412C186.155 38.804 185.745 39.1213 185.278 39.364C184.83 39.6067 184.345 39.7933 183.822 39.924C183.299 40.0547 182.739 40.12 182.142 40.12ZM183.094 36.088C183.878 36.088 184.513 35.92 184.998 35.584C185.483 35.2293 185.838 34.7813 186.062 34.24C186.305 33.68 186.426 33.1013 186.426 32.504C186.426 31.8693 186.305 31.2813 186.062 30.74C185.838 30.1987 185.483 29.76 184.998 29.424C184.513 29.088 183.878 28.92 183.094 28.92C182.291 28.92 181.647 29.1067 181.162 29.48C180.695 29.8347 180.359 30.292 180.154 30.852C179.967 31.412 179.874 31.9907 179.874 32.588C179.874 33.036 179.93 33.4747 180.042 33.904C180.154 34.3147 180.331 34.688 180.574 35.024C180.835 35.3413 181.171 35.6027 181.582 35.808C181.993 35.9947 182.497 36.088 183.094 36.088ZM201.037 46.784C199.843 46.784 198.732 46.588 197.705 46.196C196.697 45.8227 195.848 45.2253 195.157 44.404C194.467 43.5827 194 42.5187 193.757 41.212H198.265C198.377 41.5293 198.555 41.8 198.797 42.024C199.059 42.248 199.376 42.416 199.749 42.528C200.123 42.6587 200.533 42.724 200.981 42.724C201.821 42.724 202.456 42.5467 202.885 42.192C203.333 41.8373 203.632 41.3613 203.781 40.764C203.949 40.1853 204.033 39.5693 204.033 38.916V38.188C203.679 38.7293 203.249 39.1307 202.745 39.392C202.26 39.6533 201.747 39.8307 201.205 39.924C200.683 40.036 200.197 40.092 199.749 40.092C198.181 40.092 196.903 39.7467 195.913 39.056C194.943 38.3653 194.233 37.46 193.785 36.34C193.356 35.2013 193.141 33.988 193.141 32.7C193.141 31.2627 193.403 29.956 193.925 28.78C194.448 27.5853 195.213 26.6427 196.221 25.952C197.248 25.2427 198.517 24.888 200.029 24.888C200.944 24.888 201.728 25.0373 202.381 25.336C203.053 25.616 203.632 26.008 204.117 26.512L204.509 25.14H208.541V37.432C208.541 39.3733 208.308 41.0347 207.841 42.416C207.393 43.816 206.619 44.8893 205.517 45.636C204.435 46.4013 202.941 46.784 201.037 46.784ZM200.785 36.116C201.551 36.116 202.176 35.948 202.661 35.612C203.147 35.276 203.511 34.828 203.753 34.268C203.996 33.708 204.117 33.1107 204.117 32.476C204.117 31.804 203.996 31.1973 203.753 30.656C203.529 30.1147 203.175 29.6853 202.689 29.368C202.223 29.032 201.616 28.864 200.869 28.864C200.029 28.864 199.367 29.06 198.881 29.452C198.396 29.844 198.051 30.3293 197.845 30.908C197.659 31.468 197.565 32.028 197.565 32.588C197.565 33.1853 197.668 33.7547 197.873 34.296C198.079 34.8373 198.415 35.276 198.881 35.612C199.367 35.948 200.001 36.116 200.785 36.116ZM218.253 40.12C216.722 40.12 215.397 39.812 214.277 39.196C213.176 38.58 212.326 37.712 211.729 36.592C211.132 35.4533 210.833 34.1187 210.833 32.588C210.833 31.0573 211.141 29.7133 211.757 28.556C212.373 27.3987 213.232 26.4933 214.333 25.84C215.453 25.1867 216.769 24.86 218.281 24.86C219.382 24.86 220.353 25.0373 221.193 25.392C222.052 25.7467 222.78 26.2507 223.377 26.904C223.993 27.5573 224.45 28.332 224.749 29.228C225.066 30.124 225.225 31.104 225.225 32.168C225.206 32.448 225.188 32.728 225.169 33.008C225.15 33.2693 225.104 33.54 225.029 33.82H215.229C215.285 34.2867 215.425 34.716 215.649 35.108C215.873 35.5 216.19 35.808 216.601 36.032C217.012 36.256 217.534 36.368 218.169 36.368C218.617 36.368 219.018 36.3213 219.373 36.228C219.746 36.116 220.054 35.9667 220.297 35.78C220.54 35.5747 220.698 35.3507 220.773 35.108H225.141C224.898 36.284 224.432 37.2453 223.741 37.992C223.05 38.72 222.229 39.2613 221.277 39.616C220.325 39.952 219.317 40.12 218.253 40.12ZM215.313 30.824H220.997C220.997 30.432 220.894 30.0493 220.689 29.676C220.502 29.3027 220.204 29.004 219.793 28.78C219.382 28.5373 218.85 28.416 218.197 28.416C217.562 28.416 217.03 28.5373 216.601 28.78C216.172 29.0227 215.854 29.3307 215.649 29.704C215.444 30.0773 215.332 30.4507 215.313 30.824Z" fill="#14202E"/>
<path fill-rule="evenodd" clip-rule="evenodd" d="M13.7189 6.37217C11.5708 7.87422 9.62826 9.65012 7.942 11.6492C14.8328 11.0095 23.5874 12.0541 33.7514 17.1362C44.6051 22.5629 53.3451 22.7464 59.4277 21.5731C58.8757 19.9021 58.1808 18.2961 57.3578 16.7693C50.3949 17.5037 41.4685 16.5317 31.0655 11.3303C24.4595 8.02729 18.6364 6.66668 13.7189 6.37217ZM53.2904 10.98C47.7918 4.83633 39.8009 0.969971 30.9069 0.969971C28.2951 0.969971 25.7608 1.30346 23.3449 1.93015C26.617 2.82295 30.093 4.12911 33.7514 5.95836C41.3679 9.76656 47.9436 10.9927 53.2904 10.98ZM60.7281 27.4386C53.3798 28.8896 43.2325 28.5916 31.0655 22.5081C19.6907 16.8207 10.6374 16.8923 4.53146 18.2492C4.21629 18.3192 3.90855 18.3928 3.60823 18.4693C2.80882 20.2079 2.1707 22.0362 1.71284 23.9347C2.20186 23.804 2.70718 23.6799 3.22855 23.5639C10.6361 21.9178 21.1023 21.9893 33.7514 28.3139C45.1263 34.0013 54.1796 33.9297 60.2856 32.5728C60.4948 32.5264 60.7009 32.4784 60.9036 32.4288C60.9259 31.9554 60.937 31.479 60.937 31C60.937 29.795 60.8661 28.6066 60.7281 27.4386ZM59.9232 38.7662C52.6461 40.0384 42.7943 39.5501 31.0655 33.6859C19.6907 27.9985 10.6374 28.0701 4.53146 29.427C3.17613 29.7281 1.95689 30.0949 0.881353 30.4821C0.87842 30.6543 0.876953 30.827 0.876953 31C0.876953 47.5851 14.3218 61.03 30.9069 61.03C44.8065 61.03 56.5005 51.5869 59.9232 38.7662Z" fill="#D8E28C"/>
</svg>
