<svg width="168" height="41" viewBox="0 0 168 41" fill="none" xmlns="http://www.w3.org/2000/svg">
<path d="M49.0938 28.4862H61.0457V24.8862H53.3418V11.3262H49.0938V28.4862Z" fill="#14202E"/>
<path d="M68.1272 26.0873C66.4232 26.0873 65.5352 24.5993 65.5352 22.3673C65.5352 20.1353 66.4232 18.6233 68.1272 18.6233C69.8312 18.6233 70.7432 20.1353 70.7432 22.3673C70.7432 24.5993 69.8312 26.0873 68.1272 26.0873ZM68.1512 28.8713C72.1112 28.8713 74.7032 26.0633 74.7032 22.3673C74.7032 18.6713 72.1112 15.8633 68.1512 15.8633C64.2152 15.8633 61.5752 18.6713 61.5752 22.3673C61.5752 26.0633 64.2152 28.8713 68.1512 28.8713Z" fill="#14202E"/>
<path d="M81.5579 32.7339C83.3819 32.7339 84.9899 32.3259 86.0699 31.3659C87.0539 30.4779 87.702 29.1339 87.702 27.2859V16.1979H83.9579V17.5179H83.91C83.1899 16.4859 82.0859 15.8379 80.4539 15.8379C77.4059 15.8379 75.2939 18.3819 75.2939 21.9819C75.2939 25.7499 77.8619 27.8139 80.6219 27.8139C82.1099 27.8139 83.0459 27.2139 83.7659 26.3979H83.8619V27.6219C83.8619 29.1099 83.1659 29.9739 81.5099 29.9739C80.2139 29.9739 79.5659 29.4219 79.3499 28.7739H75.5579C75.9419 31.3419 78.1739 32.7339 81.5579 32.7339ZM81.534 24.9099C80.07 24.9099 79.1099 23.7099 79.1099 21.8619C79.1099 19.9899 80.07 18.7899 81.534 18.7899C83.166 18.7899 84.0299 20.1819 84.0299 21.8379C84.0299 23.5659 83.238 24.9099 81.534 24.9099Z" fill="#14202E"/>
<path d="M95.3997 26.0873C93.6957 26.0873 92.8077 24.5993 92.8077 22.3673C92.8077 20.1353 93.6957 18.6233 95.3997 18.6233C97.1037 18.6233 98.0157 20.1353 98.0157 22.3673C98.0157 24.5993 97.1037 26.0873 95.3997 26.0873ZM95.4237 28.8713C99.3837 28.8713 101.975 26.0633 101.975 22.3673C101.975 18.6713 99.3837 15.8633 95.4237 15.8633C91.4877 15.8633 88.8477 18.6713 88.8477 22.3673C88.8477 26.0633 91.4877 28.8713 95.4237 28.8713Z" fill="#14202E"/>
<path d="M103.118 28.4862H107.03V16.1982H103.118V28.4862ZM103.118 14.4942H107.03V11.3262H103.118V14.4942Z" fill="#14202E"/>
<path d="M108.728 32.5419H112.64V27.2139H112.688C113.456 28.2459 114.584 28.8699 116.168 28.8699C119.384 28.8699 121.52 26.3259 121.52 22.3419C121.52 18.6459 119.528 15.8379 116.264 15.8379C114.584 15.8379 113.384 16.5819 112.544 17.6859H112.472V16.1979H108.728V32.5419ZM115.16 25.8459C113.48 25.8459 112.52 24.4779 112.52 22.4859C112.52 20.4939 113.384 18.9819 115.088 18.9819C116.768 18.9819 117.56 20.3739 117.56 22.4859C117.56 24.5739 116.648 25.8459 115.16 25.8459Z" fill="#14202E"/>
<path d="M127.888 28.8699C131.104 28.8699 133.48 27.4779 133.48 24.7899C133.48 21.6459 130.936 21.0939 128.776 20.7339C127.216 20.4459 125.824 20.3259 125.824 19.4619C125.824 18.6939 126.568 18.3339 127.528 18.3339C128.608 18.3339 129.352 18.6699 129.496 19.7739H133.096C132.904 17.3499 131.032 15.8379 127.552 15.8379C124.648 15.8379 122.248 17.1819 122.248 19.7739C122.248 22.6539 124.528 23.2299 126.664 23.5899C128.296 23.8779 129.784 23.9979 129.784 25.1019C129.784 25.8939 129.04 26.3259 127.864 26.3259C126.568 26.3259 125.752 25.7259 125.608 24.5019H121.912C122.032 27.2139 124.288 28.8699 127.888 28.8699Z" fill="#14202E"/>
<path d="M138.795 28.8472C140.499 28.8472 141.579 28.1752 142.467 26.9752H142.539V28.4872H146.283V16.1992H142.371V23.0632C142.371 24.5272 141.555 25.5352 140.211 25.5352C138.963 25.5352 138.363 24.7912 138.363 23.4472V16.1992H134.475V24.2632C134.475 26.9992 135.963 28.8472 138.795 28.8472Z" fill="#14202E"/>
<path d="M147.984 28.4859H151.896V21.5979C151.896 20.1339 152.616 19.1019 153.84 19.1019C155.016 19.1019 155.568 19.8699 155.568 21.1899V28.4859H159.48V21.5979C159.48 20.1339 160.176 19.1019 161.424 19.1019C162.6 19.1019 163.152 19.8699 163.152 21.1899V28.4859H167.064V20.4939C167.064 17.7339 165.672 15.8379 162.888 15.8379C161.304 15.8379 159.984 16.5099 159.024 17.9979H158.976C158.352 16.6779 157.128 15.8379 155.52 15.8379C153.744 15.8379 152.568 16.6779 151.8 17.9499H151.728V16.1979H147.984V28.4859Z" fill="#14202E"/>
<path d="M25.2263 1.51089L21.2933 0.457031L17.9789 12.8266L14.9866 1.65927L11.0535 2.71313L14.2865 14.7786L6.23387 6.72601L3.35468 9.6052L12.1874 18.438L1.18765 15.4906L0.133789 19.4236L12.1524 22.644C12.0148 22.0505 11.942 21.4321 11.942 20.7967C11.942 16.2991 15.588 12.6531 20.0856 12.6531C24.5832 12.6531 28.2292 16.2991 28.2292 20.7967C28.2292 21.428 28.1573 22.0426 28.0214 22.6326L38.9441 25.5593L39.9979 21.6263L27.9315 18.3931L38.932 15.4455L37.8781 11.5125L25.8122 14.7455L33.8648 6.69295L30.9856 3.81376L22.2754 12.524L25.2263 1.51089Z" fill="#D8E28C"/>
<path d="M28.0103 22.6787C27.6731 24.1043 26.9612 25.385 25.9844 26.4111L33.8974 34.3242L36.7766 31.445L28.0103 22.6787Z" fill="#D8E28C"/>
<path d="M25.9045 26.4941C24.9159 27.5038 23.6666 28.2573 22.2656 28.6456L25.145 39.3916L29.078 38.3377L25.9045 26.4941Z" fill="#D8E28C"/>
<path d="M22.1188 28.6845C21.4688 28.8516 20.7874 28.9404 20.0853 28.9404C19.3331 28.9404 18.6047 28.8384 17.9132 28.6475L15.0312 39.4033L18.9642 40.4571L22.1188 28.6845Z" fill="#D8E28C"/>
<path d="M17.7742 28.6081C16.3946 28.2005 15.1675 27.4374 14.1991 26.4248L6.2666 34.3573L9.14579 37.2365L17.7742 28.6081Z" fill="#D8E28C"/>
<path d="M14.1337 26.3542C13.1819 25.3352 12.4886 24.0716 12.1586 22.668L1.2002 25.6043L2.25405 29.5373L14.1337 26.3542Z" fill="#D8E28C"/>
</svg>
