<svg width="40" height="41" viewBox="0 0 40 41" fill="none" xmlns="http://www.w3.org/2000/svg">
<g clip-path="url(#clip0_146_4031)">
<path d="M26.6778 27.1825C30.9343 20.5034 30.3992 21.3367 30.5219 21.1625C32.0716 18.9767 32.8906 16.4042 32.8906 13.7227C32.8906 6.61181 27.1202 0.753998 20 0.753998C12.903 0.753998 7.10938 6.60025 7.10938 13.7227C7.10938 16.4024 7.94563 19.0424 9.54609 21.2576L13.322 27.1826C9.28492 27.803 2.42188 29.6518 2.42188 33.7227C2.42188 35.2067 3.39047 37.3216 8.00484 38.9695C11.2269 40.1202 15.4868 40.754 20 40.754C28.4395 40.754 37.5781 38.3734 37.5781 33.7227C37.5781 29.6511 30.7231 27.8042 26.6778 27.1825ZM11.5038 19.9685C11.4909 19.9483 11.4775 19.9286 11.4634 19.9092C10.1316 18.077 9.45312 15.9056 9.45312 13.7227C9.45312 7.86197 14.1723 3.09775 20 3.09775C25.8155 3.09775 30.5469 7.86408 30.5469 13.7227C30.5469 15.9092 29.8812 18.0069 28.6214 19.7908C28.5085 19.9397 29.0975 19.0247 20 33.3L11.5038 19.9685ZM20 38.4102C10.7817 38.4102 4.76562 35.7006 4.76562 33.7227C4.76562 32.3934 7.85687 30.2075 14.7069 29.3555L19.0117 36.1104C19.2269 36.4481 19.5995 36.6524 19.9999 36.6524C20.4003 36.6524 20.773 36.448 20.9881 36.1104L25.2929 29.3555C32.143 30.2075 35.2344 32.3934 35.2344 33.7227C35.2344 35.6838 29.2724 38.4102 20 38.4102Z" fill="#14202E"/>
<path d="M20 7.86337C16.7691 7.86337 14.1406 10.4919 14.1406 13.7227C14.1406 16.9536 16.7691 19.5821 20 19.5821C23.2309 19.5821 25.8594 16.9536 25.8594 13.7227C25.8594 10.4919 23.2309 7.86337 20 7.86337ZM20 17.2384C18.0615 17.2384 16.4844 15.6613 16.4844 13.7227C16.4844 11.7842 18.0615 10.2071 20 10.2071C21.9385 10.2071 23.5156 11.7842 23.5156 13.7227C23.5156 15.6613 21.9385 17.2384 20 17.2384Z" fill="#14202E"/>
</g>
<defs>
<clipPath id="clip0_146_4031">
<rect width="40" height="40" fill="white" transform="translate(0 0.753998)"/>
</clipPath>
</defs>
</svg>
