<svg width="41" height="40" viewBox="0 0 41 40" fill="none" xmlns="http://www.w3.org/2000/svg">
<path d="M12.2715 28.125H16.0215C16.1872 28.125 16.3462 28.0592 16.4634 27.9419C16.5806 27.8247 16.6465 27.6658 16.6465 27.5V22.8864L17.2715 22.5739L17.8965 22.8864V27.5C17.8965 27.6658 17.9623 27.8247 18.0795 27.9419C18.1968 28.0592 18.3557 28.125 18.5215 28.125H22.2715C22.4372 28.125 22.5962 28.0592 22.7134 27.9419C22.8306 27.8247 22.8965 27.6658 22.8965 27.5V22.8864L23.5215 22.5739L24.1465 22.8864V27.5C24.1465 27.6658 24.2123 27.8247 24.3295 27.9419C24.4468 28.0592 24.6057 28.125 24.7715 28.125H28.5215C28.6872 28.125 28.8462 28.0592 28.9634 27.9419C29.0806 27.8247 29.1465 27.6658 29.1465 27.5V22.8864L30.051 22.4341C30.1549 22.3822 30.2422 22.3024 30.3032 22.2036C30.3642 22.1049 30.3965 21.9911 30.3965 21.875V18.75C30.3949 18.1565 30.2241 17.5758 29.9043 17.0759C29.5844 16.5759 29.1287 16.1776 28.5905 15.9274C28.9478 15.4887 29.144 14.9408 29.1465 14.375C29.1465 13.712 28.8831 13.0761 28.4143 12.6072C27.9454 12.1384 27.3095 11.875 26.6465 11.875C25.9834 11.875 25.3476 12.1384 24.8787 12.6072C24.4099 13.0761 24.1465 13.712 24.1465 14.375C24.1489 14.9408 24.3452 15.4887 24.7025 15.9274C24.2351 16.1474 23.8294 16.4796 23.5215 16.8943C23.2136 16.4796 22.8079 16.1474 22.3405 15.9274C22.6978 15.4887 22.894 14.9408 22.8965 14.375C22.8965 13.712 22.6331 13.0761 22.1643 12.6072C21.6954 12.1384 21.0595 11.875 20.3965 11.875C19.7334 11.875 19.0976 12.1384 18.6287 12.6072C18.1599 13.0761 17.8965 13.712 17.8965 14.375C17.8989 14.9408 18.0952 15.4887 18.4525 15.9274C17.9851 16.1474 17.5794 16.4796 17.2715 16.8943C16.9636 16.4796 16.5579 16.1474 16.0905 15.9274C16.4478 15.4887 16.644 14.9408 16.6465 14.375C16.6465 13.712 16.3831 13.0761 15.9143 12.6072C15.4454 12.1384 14.8095 11.875 14.1465 11.875C13.4834 11.875 12.8476 12.1384 12.3787 12.6072C11.9099 13.0761 11.6465 13.712 11.6465 14.375C11.6489 14.9408 11.8452 15.4887 12.2025 15.9274C11.6643 16.1776 11.2086 16.5759 10.8887 17.0759C10.5688 17.5758 10.3981 18.1565 10.3965 18.75V21.875C10.3965 21.9911 10.4288 22.1049 10.4898 22.2036C10.5508 22.3024 10.6381 22.3822 10.7419 22.4341L11.6465 22.8864V27.5C11.6465 27.6658 11.7123 27.8247 11.8295 27.9419C11.9468 28.0592 12.1057 28.125 12.2715 28.125ZM26.6465 13.125C26.8937 13.125 27.1354 13.1983 27.3409 13.3357C27.5465 13.473 27.7067 13.6682 27.8013 13.8966C27.8959 14.1251 27.9207 14.3764 27.8725 14.6189C27.8242 14.8613 27.7052 15.0841 27.5304 15.2589C27.3556 15.4337 27.1328 15.5528 26.8903 15.601C26.6479 15.6492 26.3965 15.6245 26.1681 15.5298C25.9397 15.4352 25.7445 15.275 25.6071 15.0695C25.4698 14.8639 25.3965 14.6222 25.3965 14.375C25.3968 14.0436 25.5286 13.7258 25.763 13.4915C25.9973 13.2571 26.3151 13.1253 26.6465 13.125ZM26.0215 16.875H27.2715C27.7686 16.8755 28.2452 17.0733 28.5967 17.4248C28.9482 17.7763 29.1459 18.2529 29.1465 18.75V21.4886L28.2419 21.9409C28.1381 21.9928 28.0508 22.0726 27.9898 22.1714C27.9288 22.2701 27.8965 22.3839 27.8965 22.5V26.875H25.3965V22.5C25.3965 22.3839 25.3642 22.2701 25.3032 22.1714C25.2422 22.0726 25.1549 21.9928 25.051 21.9409L24.1465 21.4886V18.75C24.147 18.2529 24.3447 17.7763 24.6963 17.4248C25.0478 17.0733 25.5244 16.8755 26.0215 16.875ZM20.3965 13.125C20.6437 13.125 20.8854 13.1983 21.0909 13.3357C21.2965 13.473 21.4567 13.6682 21.5513 13.8966C21.6459 14.1251 21.6707 14.3764 21.6225 14.6189C21.5742 14.8613 21.4552 15.0841 21.2804 15.2589C21.1056 15.4337 20.8828 15.5528 20.6403 15.601C20.3979 15.6492 20.1465 15.6245 19.9181 15.5298C19.6897 15.4352 19.4945 15.275 19.3571 15.0695C19.2198 14.8639 19.1465 14.6222 19.1465 14.375C19.1468 14.0436 19.2786 13.7258 19.513 13.4915C19.7473 13.2571 20.0651 13.1253 20.3965 13.125ZM19.7715 16.875H21.0215C21.5186 16.8755 21.9952 17.0733 22.3467 17.4248C22.6982 17.7763 22.8959 18.2529 22.8965 18.75V21.4886L21.9919 21.9409C21.8881 21.9928 21.8008 22.0726 21.7398 22.1714C21.6788 22.2701 21.6465 22.3839 21.6465 22.5V26.875H19.1465V22.5C19.1465 22.3839 19.1142 22.2701 19.0532 22.1714C18.9922 22.0726 18.9049 21.9928 18.801 21.9409L17.8965 21.4886V18.75C17.897 18.2529 18.0947 17.7763 18.4463 17.4248C18.7978 17.0733 19.2744 16.8755 19.7715 16.875ZM14.1465 13.125C14.3937 13.125 14.6354 13.1983 14.8409 13.3357C15.0465 13.473 15.2067 13.6682 15.3013 13.8966C15.3959 14.1251 15.4207 14.3764 15.3725 14.6189C15.3242 14.8613 15.2052 15.0841 15.0304 15.2589C14.8556 15.4337 14.6328 15.5528 14.3903 15.601C14.1479 15.6492 13.8965 15.6245 13.6681 15.5298C13.4397 15.4352 13.2445 15.275 13.1071 15.0695C12.9698 14.8639 12.8965 14.6222 12.8965 14.375C12.8968 14.0436 13.0286 13.7258 13.263 13.4915C13.4973 13.2571 13.8151 13.1253 14.1465 13.125ZM11.6465 18.75C11.647 18.2529 11.8447 17.7763 12.1963 17.4248C12.5478 17.0733 13.0244 16.8755 13.5215 16.875H14.7715C15.2686 16.8755 15.7452 17.0733 16.0967 17.4248C16.4482 17.7763 16.6459 18.2529 16.6465 18.75V21.4886L15.7419 21.9409C15.6381 21.9928 15.5508 22.0726 15.4898 22.1714C15.4288 22.2701 15.3965 22.3839 15.3965 22.5V26.875H12.8965V22.5C12.8965 22.3839 12.8642 22.2701 12.8032 22.1714C12.7422 22.0726 12.6549 21.9928 12.551 21.9409L11.6465 21.4886V18.75Z" fill="#14202E"/>
<path d="M39.7391 4.87123C39.7026 4.76224 39.6368 4.66542 39.5489 4.5914C39.4609 4.51737 39.3543 4.46901 39.2407 4.45161L36.1157 3.97431L34.7122 0.984477C34.6618 0.877011 34.5818 0.786131 34.4816 0.72247C34.3814 0.658809 34.2651 0.625 34.1464 0.625C34.0277 0.625 33.9115 0.658809 33.8113 0.72247C33.7111 0.786131 33.6311 0.877011 33.5806 0.984477L32.1771 3.97428L29.0521 4.45158C28.9385 4.46895 28.8319 4.51728 28.744 4.59128C28.6561 4.66527 28.5903 4.76207 28.5538 4.87102C28.5174 4.97998 28.5116 5.09688 28.5372 5.20889C28.5628 5.3209 28.6188 5.42368 28.699 5.50595L30.9787 7.84238L30.4395 11.1493C30.4205 11.265 30.4346 11.3838 30.48 11.492C30.5254 11.6001 30.6003 11.6933 30.6962 11.7609C30.7921 11.8285 30.9051 11.8677 31.0223 11.874C31.1394 11.8804 31.256 11.8536 31.3586 11.7968L34.1464 10.256L36.9342 11.7969C37.0369 11.8537 37.1534 11.8804 37.2706 11.8741C37.3877 11.8677 37.5007 11.8285 37.5966 11.7609C37.6925 11.6934 37.7675 11.6002 37.8129 11.492C37.8583 11.3838 37.8723 11.265 37.8534 11.1493L37.3141 7.8424L39.5938 5.50597C39.6741 5.42377 39.7301 5.32102 39.7557 5.20903C39.7813 5.09704 39.7756 4.98015 39.7391 4.87123ZM36.199 7.19541C36.1307 7.26541 36.0798 7.35049 36.0504 7.44379C36.0209 7.53708 36.0138 7.63598 36.0297 7.73252L36.4127 10.0802L34.4489 8.99503C34.3563 8.94379 34.2522 8.91691 34.1464 8.91691C34.0406 8.91691 33.9366 8.94379 33.844 8.99503L31.8802 10.0802L32.2632 7.73252C32.279 7.63598 32.2719 7.53708 32.2425 7.44379C32.2131 7.35049 32.1621 7.26541 32.0938 7.19541L30.4434 5.50382L32.6956 5.15989C32.7971 5.14428 32.8932 5.10397 32.9754 5.0425C33.0576 4.98103 33.1234 4.90029 33.1671 4.80739L34.1464 2.72093L35.1257 4.80741C35.1694 4.90031 35.2353 4.98105 35.3175 5.04252C35.3997 5.10399 35.4958 5.1443 35.5972 5.15991L37.8494 5.50384L36.199 7.19541Z" fill="#14202E"/>
<path d="M1.34203 33.0432L1.90416 33.3572C1.89196 33.4893 1.88585 33.6196 1.88585 33.7499C1.88585 33.8803 1.89196 34.0106 1.90416 34.1427L1.34203 34.4567C1.22072 34.5245 1.12546 34.6308 1.0713 34.7588C1.01714 34.8868 1.00717 35.0292 1.04296 35.1635C1.30916 36.1573 1.84494 37.0581 2.59108 37.7664C2.6878 37.8583 2.81137 37.9168 2.94374 37.9335C3.07612 37.9502 3.21036 37.9241 3.32686 37.8591L3.86885 37.5564C3.88728 37.5451 3.90926 37.5411 3.9305 37.5451C4.16029 37.6966 4.39817 37.8355 4.64308 37.9611V38.5662C4.64307 38.7038 4.6885 38.8376 4.77233 38.9468C4.85615 39.0559 4.97368 39.1344 5.10664 39.1699C5.61004 39.3052 6.12898 39.3742 6.65026 39.3749C6.67376 39.3749 6.69725 39.3749 6.72075 39.3746C7.21602 39.3666 7.70838 39.2971 8.18651 39.1678C8.31948 39.1321 8.43698 39.0537 8.52079 38.9445C8.60461 38.8353 8.65005 38.7015 8.65008 38.5638L8.65496 37.9397C8.90127 37.8286 9.13772 37.6968 9.36174 37.5457C9.38296 37.5409 9.4052 37.5447 9.42369 37.5561L9.96355 37.8579C10.08 37.9232 10.2143 37.9494 10.3468 37.9326C10.4792 37.9159 10.6028 37.8571 10.6993 37.7649C11.4461 37.0572 11.9829 36.1572 12.2505 35.1639C12.2864 35.0295 12.2765 34.887 12.2223 34.7589C12.168 34.6308 12.0726 34.5245 11.9512 34.4568L11.389 34.1427C11.4012 34.0106 11.4073 33.8803 11.4073 33.75C11.4073 33.6197 11.4012 33.4893 11.389 33.3572L11.9512 33.0432C12.0725 32.9753 12.1678 32.869 12.2219 32.7409C12.2761 32.6129 12.2861 32.4704 12.2502 32.3361C11.9838 31.3425 11.448 30.4419 10.7021 29.7336C10.6053 29.6417 10.4818 29.5831 10.3494 29.5664C10.217 29.5497 10.0828 29.5758 9.9663 29.6408L9.42431 29.9435C9.40566 29.9542 9.3839 29.9582 9.36266 29.9548C9.13285 29.8033 8.89497 29.6645 8.65008 29.5389V28.9337C8.65009 28.7961 8.60466 28.6623 8.52084 28.5531C8.43701 28.444 8.31949 28.3656 8.18652 28.33C7.17815 28.0556 6.11467 28.0563 5.10668 28.3322C4.97372 28.3678 4.85621 28.4463 4.7724 28.5555C4.68859 28.6647 4.64314 28.7985 4.64312 28.9361L4.63824 29.5602C4.39192 29.6713 4.15548 29.8031 3.93145 29.9542C3.91024 29.959 3.88799 29.9553 3.8695 29.9438L3.32964 29.6423C3.21314 29.5773 3.0789 29.5512 2.94653 29.5679C2.81415 29.5846 2.69059 29.6432 2.59386 29.7351C1.84712 30.4427 1.31032 31.3428 1.04266 32.3361C1.00676 32.4705 1.01672 32.613 1.07094 32.741C1.12517 32.8691 1.22057 32.9754 1.34203 33.0432ZM3.19689 34.3624C3.1155 33.9581 3.1155 33.5415 3.19689 33.1372C3.22145 33.0082 3.20478 32.8748 3.14923 32.7559C3.09368 32.637 3.00208 32.5385 2.88744 32.4746L2.40038 32.2027C2.57755 31.7532 2.82861 31.3365 3.14318 30.9698L3.26005 31.0351C3.47051 31.1541 3.70964 31.2128 3.95127 31.205C4.1929 31.1971 4.4277 31.1229 4.62999 30.9906C4.7955 30.879 4.97018 30.7817 5.15214 30.6997C5.37413 30.5979 5.56208 30.4342 5.69348 30.2283C5.82489 30.0225 5.89419 29.7831 5.89311 29.5388V29.439C6.12273 29.3998 6.35506 29.3785 6.58799 29.3753C6.85998 29.3723 7.13171 29.3932 7.40007 29.4375V29.5389C7.39898 29.7831 7.46829 30.0225 7.59969 30.2284C7.7311 30.4342 7.91904 30.5979 8.14103 30.6998C8.32307 30.7817 8.49776 30.8791 8.66319 30.9909C8.86569 31.1229 9.10052 31.1968 9.34212 31.2046C9.58372 31.2124 9.82283 31.1538 10.0334 31.0351L10.1525 30.9686C10.4664 31.3357 10.7166 31.7527 10.8928 32.2024L10.4055 32.4746C10.2909 32.5386 10.1994 32.637 10.1439 32.756C10.0884 32.8749 10.0718 33.0082 10.0963 33.1371C10.1777 33.5415 10.1777 33.9581 10.0963 34.3624C10.0717 34.4914 10.0884 34.6249 10.1439 34.7439C10.1995 34.8628 10.2911 34.9613 10.4058 35.0253L10.8928 35.2972C10.7157 35.7467 10.4646 36.1634 10.15 36.5301L10.0329 36.4645C9.82245 36.3455 9.58334 36.2867 9.34174 36.2946C9.10015 36.3025 8.86539 36.3768 8.66323 36.5093C8.49772 36.6209 8.32304 36.7182 8.14107 36.8002C7.91908 36.902 7.73114 37.0657 7.59973 37.2715C7.46832 37.4774 7.39902 37.7168 7.40011 37.961V38.0608C6.90143 38.146 6.39199 38.1465 5.89314 38.0624V37.961C5.89423 37.7168 5.82493 37.4774 5.69352 37.2715C5.56211 37.0657 5.37417 36.902 5.15218 36.8002C4.97011 36.7181 4.79533 36.6207 4.62972 36.509C4.42727 36.377 4.19249 36.3031 3.95094 36.2953C3.70939 36.2875 3.47033 36.3461 3.25978 36.4648L3.14076 36.5313C2.8268 36.1643 2.57655 35.7472 2.40041 35.2975L2.88778 35.0253C3.00236 34.9612 3.09388 34.8627 3.14937 34.7438C3.20485 34.6248 3.22147 34.4914 3.19689 34.3624Z" fill="#14202E"/>
<path d="M6.64648 36.25C7.14094 36.25 7.62429 36.1034 8.03541 35.8287C8.44653 35.554 8.76696 35.1635 8.95618 34.7067C9.1454 34.2499 9.19491 33.7472 9.09845 33.2623C9.00198 32.7773 8.76388 32.3319 8.41425 31.9822C8.06462 31.6326 7.61916 31.3945 7.13421 31.298C6.64926 31.2016 6.14659 31.2511 5.68978 31.4403C5.23296 31.6295 4.84251 31.95 4.56781 32.3611C4.29311 32.7722 4.14648 33.2555 4.14648 33.75C4.14724 34.4128 4.41088 35.0483 4.87955 35.5169C5.34823 35.9856 5.98368 36.2492 6.64648 36.25ZM6.64648 32.5C6.89371 32.5 7.13539 32.5733 7.34095 32.7107C7.54651 32.848 7.70672 33.0432 7.80133 33.2716C7.89594 33.5001 7.9207 33.7514 7.87247 33.9939C7.82423 34.2363 7.70518 34.4591 7.53037 34.6339C7.35555 34.8087 7.13282 34.9278 6.89035 34.976C6.64787 35.0242 6.39654 34.9995 6.16813 34.9049C5.93972 34.8102 5.7445 34.65 5.60715 34.4445C5.4698 34.2389 5.39648 33.9972 5.39648 33.75C5.39682 33.4186 5.52862 33.1008 5.76297 32.8665C5.99732 32.6321 6.31507 32.5003 6.64648 32.5Z" fill="#14202E"/>
<path d="M20.3965 2.50001C22.8946 2.49422 25.3645 3.02749 27.6377 4.06342L28.1553 2.92572C24.7345 1.37425 20.9268 0.885363 17.2251 1.52236C13.5233 2.15935 10.098 3.89289 7.3926 6.49854C4.6872 9.1042 2.82626 12.462 2.05072 16.1372C1.27518 19.8124 1.62075 23.6358 3.04268 27.1124L4.19929 26.6376C3.11221 23.9793 2.6957 21.0944 2.98647 18.2371C3.27724 15.3799 4.26636 12.638 5.86667 10.2532C7.46698 7.86838 9.62933 5.9138 12.1632 4.56173C14.697 3.20967 17.5245 2.50163 20.3965 2.50001Z" fill="#14202E"/>
<path d="M37.8523 13.1439L36.689 13.6011C37.9396 16.7926 38.226 20.281 37.5127 23.6337C36.7993 26.9865 35.1176 30.0562 32.676 32.4621C30.2345 34.868 27.1404 36.5044 23.7775 37.1684C20.4146 37.8323 16.9308 37.4947 13.7581 36.1972L13.2832 37.3538C16.6826 38.7441 20.4153 39.1059 24.0184 38.3946C27.6215 37.6833 30.9366 35.93 33.5527 33.3523C36.1687 30.7745 37.9706 27.4855 38.7349 23.8933C39.4992 20.301 39.1923 16.5634 37.8523 13.1439Z" fill="#14202E"/>
</svg>
