<svg width="24" height="24" viewBox="0 0 24 24" fill="none" xmlns="http://www.w3.org/2000/svg">
<path fill-rule="evenodd" clip-rule="evenodd" d="M7.38476 2C7.59718 2 7.76937 2.17219 7.76937 2.38461V2.76923H16.2309V2.38461C16.2309 2.17219 16.4031 2 16.6155 2C16.8279 2 17.0001 2.17219 17.0001 2.38461V2.76923H19.6924C20.7545 2.76923 21.6155 3.63023 21.6155 4.6923V17.2884C21.6155 17.4062 21.5617 17.5174 21.4692 17.5903L15.9885 21.9173C15.8728 22.0086 15.7151 22.0257 15.5824 21.9615C15.4498 21.8973 15.3655 21.7627 15.3655 21.6154V18.8269C15.3655 17.7648 16.2265 16.9038 17.2886 16.9038H20.8463V8.15384H17.6732C17.4608 8.15384 17.2886 7.98165 17.2886 7.76922C17.2886 7.5568 17.4608 7.38461 17.6732 7.38461H20.8463V4.6923C20.8463 4.05506 20.3297 3.53846 19.6924 3.53846H17.0001V4.88461C17.0001 5.09703 16.8279 5.26923 16.6155 5.26923C16.4031 5.26923 16.2309 5.09703 16.2309 4.88461V3.53846H7.76937V4.88461C7.76937 5.09703 7.59718 5.26923 7.38476 5.26923C7.17234 5.26923 7.00014 5.09703 7.00014 4.88461V3.53846H4.30784C3.67059 3.53846 3.154 4.05506 3.154 4.6923V7.38461H14.0194C14.2318 7.38461 14.404 7.5568 14.404 7.76922C14.404 7.98165 14.2318 8.15384 14.0194 8.15384H3.154V20.0769C3.154 20.7142 3.67059 21.2307 4.30784 21.2307H14.2117C14.4241 21.2307 14.5963 21.4029 14.5963 21.6154C14.5963 21.8279 14.4241 22 14.2117 22H4.30784C3.24576 22 2.38477 21.139 2.38477 20.0769V4.6923C2.38477 3.63023 3.24576 2.76923 4.30784 2.76923H7.00014V2.38461C7.00014 2.17219 7.17234 2 7.38476 2ZM20.123 17.6731H17.2886C16.6513 17.6731 16.1347 18.1897 16.1347 18.8269V20.8217L20.123 17.6731Z" fill="#D8E28C"/>
<path d="M14.8848 7.76926C14.8848 7.55684 15.057 7.38464 15.2694 7.38464H16.3271C16.5395 7.38464 16.7117 7.55684 16.7117 7.76926C16.7117 7.98168 16.5395 8.15387 16.3271 8.15387H15.2694C15.057 8.15387 14.8848 7.98168 14.8848 7.76926Z" fill="#D8E28C"/>
<path fill-rule="evenodd" clip-rule="evenodd" d="M6.42142 9.88458C5.78417 9.88458 5.26758 10.4012 5.26758 11.0384V11.8077C5.26758 12.4449 5.78417 12.9615 6.42142 12.9615H7.19065C7.8279 12.9615 8.3445 12.4449 8.3445 11.8077V11.0384C8.3445 10.4012 7.8279 9.88458 7.19065 9.88458H6.42142ZM6.03681 11.0384C6.03681 10.826 6.209 10.6538 6.42142 10.6538H7.19065C7.40308 10.6538 7.57527 10.826 7.57527 11.0384V11.8077C7.57527 12.0201 7.40308 12.1923 7.19065 12.1923H6.42142C6.209 12.1923 6.03681 12.0201 6.03681 11.8077V11.0384Z" fill="#D8E28C"/>
<path fill-rule="evenodd" clip-rule="evenodd" d="M5.26758 16.2307C5.26758 15.5935 5.78417 15.0769 6.42142 15.0769H7.19065C7.8279 15.0769 8.3445 15.5935 8.3445 16.2307V17C8.3445 17.6372 7.8279 18.1538 7.19065 18.1538H6.42142C5.78417 18.1538 5.26758 17.6372 5.26758 17V16.2307ZM6.42142 15.8461C6.209 15.8461 6.03681 16.0183 6.03681 16.2307V17C6.03681 17.2124 6.209 17.3846 6.42142 17.3846H7.19065C7.40308 17.3846 7.57527 17.2124 7.57527 17V16.2307C7.57527 16.0183 7.40308 15.8461 7.19065 15.8461H6.42142Z" fill="#D8E28C"/>
<path fill-rule="evenodd" clip-rule="evenodd" d="M11.6128 9.88458C10.9756 9.88458 10.459 10.4012 10.459 11.0384V11.8077C10.459 12.4449 10.9756 12.9615 11.6128 12.9615H12.3821C13.0193 12.9615 13.5359 12.4449 13.5359 11.8077V11.0384C13.5359 10.4012 13.0193 9.88458 12.3821 9.88458H11.6128ZM11.2282 11.0384C11.2282 10.826 11.4004 10.6538 11.6128 10.6538H12.3821C12.5945 10.6538 12.7667 10.826 12.7667 11.0384V11.8077C12.7667 12.0201 12.5945 12.1923 12.3821 12.1923H11.6128C11.4004 12.1923 11.2282 12.0201 11.2282 11.8077V11.0384Z" fill="#D8E28C"/>
<path fill-rule="evenodd" clip-rule="evenodd" d="M10.459 16.2307C10.459 15.5935 10.9756 15.0769 11.6128 15.0769H12.3821C13.0193 15.0769 13.5359 15.5935 13.5359 16.2307V17C13.5359 17.6372 13.0193 18.1538 12.3821 18.1538H11.6128C10.9756 18.1538 10.459 17.6372 10.459 17V16.2307ZM11.6128 15.8461C11.4004 15.8461 11.2282 16.0183 11.2282 16.2307V17C11.2282 17.2124 11.4004 17.3846 11.6128 17.3846H12.3821C12.5945 17.3846 12.7667 17.2124 12.7667 17V16.2307C12.7667 16.0183 12.5945 15.8461 12.3821 15.8461H11.6128Z" fill="#D8E28C"/>
<path fill-rule="evenodd" clip-rule="evenodd" d="M16.8062 9.88458C16.1689 9.88458 15.6523 10.4012 15.6523 11.0384V11.8077C15.6523 12.4449 16.1689 12.9615 16.8062 12.9615H17.5754C18.2127 12.9615 18.7293 12.4449 18.7293 11.8077V11.0384C18.7293 10.4012 18.2127 9.88458 17.5754 9.88458H16.8062ZM16.4216 11.0384C16.4216 10.826 16.5938 10.6538 16.8062 10.6538H17.5754C17.7878 10.6538 17.96 10.826 17.96 11.0384V11.8077C17.96 12.0201 17.7878 12.1923 17.5754 12.1923H16.8062C16.5938 12.1923 16.4216 12.0201 16.4216 11.8077V11.0384Z" fill="#D8E28C"/>
</svg>
