<svg width="40" height="41" viewBox="0 0 40 41" fill="none" xmlns="http://www.w3.org/2000/svg">
<path d="M36.4844 6.6915H3.51562C1.5732 6.6915 0 8.27447 0 10.2071V31.3009C0 33.245 1.58477 34.8165 3.51562 34.8165H36.4844C38.4105 34.8165 40 33.2517 40 31.3009V10.2071C40 8.2779 38.433 6.6915 36.4844 6.6915ZM35.992 9.03525C35.2738 9.7497 22.9127 22.0456 22.4859 22.4702C21.8219 23.1342 20.9391 23.4999 20 23.4999C19.0609 23.4999 18.1781 23.1342 17.5119 22.468C17.2248 22.1824 5.00023 10.0223 4.00797 9.03525H35.992ZM2.34375 30.8238V10.6856L12.4717 20.7602L2.34375 30.8238ZM4.00945 32.4727L14.1334 22.4131L15.8568 24.1274C16.9635 25.2342 18.4349 25.8436 20 25.8436C21.5651 25.8436 23.0365 25.2342 24.141 24.1296L25.8666 22.4131L35.9905 32.4727H4.00945ZM37.6562 30.8238L27.5283 20.7602L37.6562 10.6856V30.8238Z" fill="#14202E"/>
</svg>
