<svg width="41" height="40" viewBox="0 0 41 40" fill="none" xmlns="http://www.w3.org/2000/svg">
<path fill-rule="evenodd" clip-rule="evenodd" d="M32.7371 35.0233C32.7371 35.3017 32.5112 35.5276 32.2328 35.5276H4.2601C3.9817 35.5276 3.75586 35.3017 3.75586 35.0233C3.75586 34.7443 3.9817 34.5191 4.2601 34.5191H5.67778V32.2774C5.67778 31.999 5.90362 31.7731 6.18202 31.7731C6.46042 31.7731 6.68626 31.999 6.68626 32.2774V34.5191H11.7098V24.0735C11.7098 23.7951 11.9356 23.5692 12.214 23.5692C12.4928 23.5692 12.7183 23.7951 12.7183 24.0735V34.5191H17.7422V27.5999C17.7422 27.3215 17.968 27.0956 18.2464 27.0956C18.5248 27.0956 18.7507 27.3215 18.7507 27.5999V34.5191H23.7746V22.3898C23.7746 22.1114 24.0004 21.8855 24.2788 21.8855C24.5572 21.8855 24.7831 22.1114 24.7831 22.3898V34.519H29.807V20.9166C29.807 20.6382 30.0328 20.4124 30.3112 20.4124C30.5896 20.4124 30.8155 20.6383 30.8155 20.9166V34.519H32.2327C32.5112 34.5191 32.7371 34.7444 32.7371 35.0233ZM31.0009 16.6795L29.3133 11.9488L35.2065 6.80253L31.0009 16.6795ZM26.8507 13.976L27.0656 11.5043L28.3149 12.1512L28.8556 13.666L26.8507 13.976ZM18.4569 23.7641C18.8831 23.7641 19.2303 23.4172 19.2303 22.9909C19.2303 22.5653 18.8831 22.2184 18.4569 22.2184C18.0307 22.2184 17.6843 22.5653 17.6843 22.9909C17.6843 23.4171 18.0307 23.7641 18.4569 23.7641ZM12.2141 20.1139C11.7883 20.1139 11.4415 19.7675 11.4415 19.3413C11.4415 18.915 11.7883 18.5681 12.2141 18.5681C12.6403 18.5681 12.9871 18.915 12.9871 19.3413C12.9871 19.7675 12.6402 20.1139 12.2141 20.1139ZM6.18202 28.318C6.60818 28.318 6.95498 27.9717 6.95498 27.5455C6.95498 27.1192 6.60818 26.7729 6.18202 26.7729C5.75586 26.7729 5.40906 27.1191 5.40906 27.5455C5.40906 27.9716 5.75586 28.318 6.18202 28.318ZM34.5436 6.04341L24.1903 8.87949L28.6504 11.1891L34.5436 6.04341ZM36.8298 4.56693C36.7027 4.47493 36.5449 4.45133 36.4008 4.49037L36.4 4.48893L22.6791 8.24741C22.2386 8.36773 22.1757 8.97165 22.5812 9.18141L26.0976 11.0027L25.8059 14.3451L19.2502 21.3968C18.5802 21.0621 17.7793 21.1849 17.238 21.694L13.9434 19.7684C14.2219 18.657 13.3751 17.5596 12.2141 17.5596C10.745 17.5596 9.90858 19.2487 10.7968 20.4185L6.78786 25.8706C5.64906 25.4534 4.40058 26.2983 4.40058 27.5455C4.40058 28.5278 5.19986 29.3264 6.18202 29.3264C7.6553 29.3264 8.48642 27.6332 7.5997 26.4683L11.6082 21.0161C12.2461 21.2467 12.9477 21.0948 13.4338 20.6383L16.7276 22.5639C16.4526 23.6868 17.3019 24.7726 18.4569 24.7726C19.8423 24.7726 20.6879 23.2568 19.9891 22.0837L26.5314 15.0456L29.2003 14.6328L30.4844 18.2333C30.6387 18.6649 31.2444 18.6826 31.4241 18.2615L36.9971 5.17285C37.0892 4.95629 37.02 4.70549 36.8298 4.56693Z" fill="#14202E"/>
</svg>
