<svg width="25" height="25" viewBox="0 0 25 25" fill="none" xmlns="http://www.w3.org/2000/svg">
<g clip-path="url(#clip0_57_3422)">
<path d="M9.84407 4.50457C9.43097 4.50546 9.02689 4.38372 8.68304 4.15477C8.33918 3.92581 8.07102 3.59995 7.91252 3.21846C7.75402 2.83697 7.71231 2.41702 7.79269 2.01181C7.87306 1.6066 8.0719 1.23436 8.36401 0.942254C8.65612 0.650144 9.02835 0.451307 9.43357 0.370933C9.83878 0.290559 10.2587 0.332263 10.6402 0.490763C11.0217 0.649264 11.3476 0.917427 11.5765 1.26128C11.8055 1.60514 11.9272 2.00921 11.9263 2.42232C11.9251 2.9742 11.7054 3.50314 11.3151 3.89338C10.9249 4.28362 10.396 4.50338 9.84407 4.50457ZM9.84407 0.898938C9.54258 0.898046 9.24761 0.986632 8.9965 1.15348C8.74539 1.32033 8.54943 1.55793 8.43344 1.83622C8.31745 2.1145 8.28664 2.42094 8.34491 2.71674C8.40318 3.01255 8.54791 3.28441 8.76078 3.49791C8.97365 3.71141 9.24508 3.85694 9.54071 3.91609C9.83633 3.97524 10.1429 3.94533 10.4215 3.83016C10.7001 3.715 10.9383 3.51974 11.1059 3.26913C11.2735 3.01851 11.3629 2.72381 11.3629 2.42232C11.3629 2.01907 11.2031 1.63228 10.9184 1.34672C10.6336 1.06116 10.2473 0.900131 9.84407 0.898938Z" fill="#114A43"/>
<path d="M9.84407 8.84476C10.0308 8.84476 10.1821 8.69342 10.1821 8.50673C10.1821 8.32004 10.0308 8.1687 9.84407 8.1687C9.65738 8.1687 9.50604 8.32004 9.50604 8.50673C9.50604 8.69342 9.65738 8.84476 9.84407 8.84476Z" fill="#114A43"/>
<path d="M9.84407 7.04202C10.0308 7.04202 10.1821 6.89068 10.1821 6.70399C10.1821 6.51731 10.0308 6.36597 9.84407 6.36597C9.65738 6.36597 9.50604 6.51731 9.50604 6.70399C9.50604 6.89068 9.65738 7.04202 9.84407 7.04202Z" fill="#114A43"/>
<path d="M9.84407 10.6477C10.0308 10.6477 10.1821 10.4964 10.1821 10.3097C10.1821 10.123 10.0308 9.97168 9.84407 9.97168C9.65738 9.97168 9.50604 10.123 9.50604 10.3097C9.50604 10.4964 9.65738 10.6477 9.84407 10.6477Z" fill="#114A43"/>
<path d="M9.84407 12.4505C10.0308 12.4505 10.1821 12.2991 10.1821 12.1124C10.1821 11.9258 10.0308 11.7744 9.84407 11.7744C9.65738 11.7744 9.50604 11.9258 9.50604 12.1124C9.50604 12.2991 9.65738 12.4505 9.84407 12.4505Z" fill="#114A43"/>
<path d="M11.1962 24.3356H10.9708C10.7521 24.3362 10.5362 24.2855 10.3406 24.1877C10.1449 24.0898 9.9749 23.9476 9.84407 23.7723C9.71276 23.9471 9.54261 24.0889 9.34707 24.1867C9.15153 24.2845 8.93593 24.3355 8.71731 24.3356H8.49196C8.11859 24.3357 7.76046 24.1876 7.49603 23.9241C7.2316 23.6605 7.08245 23.3028 7.08125 22.9295V9.29114C7.08165 9.1503 7.05396 9.01078 6.99978 8.88077C6.94561 8.75076 6.86605 8.63285 6.76576 8.53396L1.30322 3.07143C1.07073 2.83893 0.940117 2.5236 0.940117 2.19481C0.940117 1.86601 1.07073 1.55068 1.30322 1.31819C1.53572 1.08569 1.85105 0.955078 2.17984 0.955078C2.50864 0.955078 2.82397 1.08569 3.05646 1.31819L6.58548 4.84269C6.72573 4.98483 6.89271 5.09782 7.0768 5.17517C7.2609 5.25252 7.45847 5.2927 7.65815 5.2934H12.0255C12.2274 5.2945 12.4276 5.25519 12.6141 5.17779C12.8007 5.10038 12.9698 4.98645 13.1117 4.84269L16.6272 1.31819C16.8602 1.08672 17.1753 0.956814 17.5038 0.956814C17.8322 0.956814 18.1474 1.08672 18.3804 1.31819C18.6119 1.55122 18.7418 1.86635 18.7418 2.19481C18.7418 2.52326 18.6119 2.83839 18.3804 3.07143L12.9179 8.53396C12.8176 8.63285 12.738 8.75076 12.6838 8.88077C12.6297 9.01078 12.602 9.1503 12.6024 9.29114V22.9295C12.6024 23.3024 12.4542 23.6601 12.1905 23.9238C11.9268 24.1875 11.5691 24.3356 11.1962 24.3356ZM10.1235 15.0421V22.9295C10.1247 23.1534 10.2145 23.3678 10.3733 23.5257C10.532 23.6836 10.7469 23.7723 10.9708 23.7723H11.1962C11.4197 23.7723 11.6341 23.6835 11.7921 23.5254C11.9502 23.3674 12.039 23.153 12.039 22.9295V9.29114C12.0407 8.85743 12.2122 8.44162 12.5167 8.13283L17.9793 2.6703C18.0424 2.60822 18.0925 2.53421 18.1267 2.45258C18.1609 2.37094 18.1785 2.28332 18.1785 2.19481C18.1785 2.10629 18.1609 2.01867 18.1267 1.93703C18.0925 1.8554 18.0424 1.78139 17.9793 1.71931C17.9172 1.65622 17.8432 1.60611 17.7616 1.57191C17.6799 1.5377 17.5923 1.52009 17.5038 1.52009C17.4153 1.52009 17.3277 1.5377 17.246 1.57191C17.1644 1.60611 17.0904 1.65622 17.0283 1.71931L13.4993 5.24833C13.1074 5.6374 12.5777 5.85606 12.0255 5.85678H7.65815C7.1061 5.85509 6.57682 5.63657 6.18435 5.24833L2.65534 1.71931C2.59326 1.65622 2.51925 1.60611 2.43762 1.57191C2.35598 1.5377 2.26836 1.52009 2.17984 1.52009C2.09133 1.52009 2.00371 1.5377 1.92207 1.57191C1.84044 1.60611 1.76643 1.65622 1.70435 1.71931C1.64126 1.78139 1.59115 1.8554 1.55694 1.93703C1.52274 2.01867 1.50513 2.10629 1.50513 2.19481C1.50513 2.28332 1.52274 2.37094 1.55694 2.45258C1.59115 2.53421 1.64126 2.60822 1.70435 2.6703L7.16689 8.13283C7.47146 8.44162 7.64296 8.85743 7.64463 9.29114V22.9295C7.64582 23.1534 7.73562 23.3678 7.8944 23.5257C8.05317 23.6836 8.26801 23.7723 8.49196 23.7723H8.71731C8.94084 23.7723 9.15521 23.6835 9.31327 23.5254C9.47133 23.3674 9.56013 23.153 9.56013 22.9295V15.0421C9.55506 15.0021 9.55856 14.9615 9.5704 14.923C9.58224 14.8845 9.60214 14.8489 9.62879 14.8187C9.65543 14.7885 9.68821 14.7642 9.72494 14.7477C9.76167 14.7311 9.80151 14.7225 9.84182 14.7225C9.88212 14.7225 9.92196 14.7311 9.95869 14.7477C9.99542 14.7642 10.0282 14.7885 10.0548 14.8187C10.0815 14.8489 10.1014 14.8845 10.1132 14.923C10.1251 14.9615 10.1286 15.0021 10.1235 15.0421Z" fill="#114A43"/>
<path d="M12.3229 13.7846H7.36519C7.32521 13.7897 7.28461 13.7862 7.24608 13.7744C7.20756 13.7625 7.172 13.7426 7.14176 13.716C7.11152 13.6893 7.0873 13.6565 7.07072 13.6198C7.05413 13.5831 7.04555 13.5432 7.04555 13.5029C7.04555 13.4626 7.05413 13.4228 7.07072 13.3861C7.0873 13.3493 7.11152 13.3166 7.14176 13.2899C7.172 13.2633 7.20756 13.2434 7.24608 13.2315C7.28461 13.2197 7.32521 13.2162 7.36519 13.2212H12.3229C12.3915 13.2299 12.4546 13.2633 12.5003 13.3152C12.546 13.3671 12.5712 13.4338 12.5712 13.5029C12.5712 13.5721 12.546 13.6388 12.5003 13.6907C12.4546 13.7425 12.3915 13.7759 12.3229 13.7846Z" fill="#114A43"/>
<path d="M19.701 22.5507C19.2775 22.5507 18.8636 22.4252 18.5116 22.1899C18.1595 21.9547 17.8851 21.6203 17.7231 21.2292C17.561 20.838 17.5187 20.4075 17.6013 19.9922C17.6839 19.5769 17.8878 19.1955 18.1872 18.8961C18.4866 18.5967 18.868 18.3928 19.2833 18.3102C19.6986 18.2276 20.129 18.27 20.5202 18.432C20.9114 18.594 21.2458 18.8684 21.481 19.2205C21.7163 19.5726 21.8418 19.9865 21.8418 20.4099C21.8418 20.9777 21.6163 21.5222 21.2148 21.9237C20.8133 22.3252 20.2688 22.5507 19.701 22.5507ZM19.701 18.8324C19.389 18.8324 19.084 18.9249 18.8246 19.0983C18.5652 19.2716 18.363 19.518 18.2436 19.8062C18.1242 20.0945 18.0929 20.4116 18.1538 20.7176C18.2147 21.0236 18.3649 21.3047 18.5855 21.5253C18.8061 21.7459 19.0872 21.8962 19.3932 21.957C19.6992 22.0179 20.0164 21.9867 20.3046 21.8673C20.5929 21.7479 20.8392 21.5457 21.0126 21.2863C21.1859 21.0269 21.2784 20.7219 21.2784 20.4099C21.2808 20.2012 21.2418 19.9942 21.1636 19.8007C21.0854 19.6072 20.9695 19.4312 20.8228 19.2828C20.6761 19.1344 20.5014 19.0166 20.3088 18.9362C20.1163 18.8558 19.9096 18.8144 19.701 18.8144V18.8324Z" fill="#114A43"/>
<path d="M19.701 24.3355C18.5095 24.3337 17.3542 23.9261 16.4254 23.1798C15.4967 22.4335 14.8499 21.393 14.5916 20.2299C14.3334 19.0667 14.4791 17.8503 15.0048 16.7811C15.5305 15.7119 16.4047 14.8537 17.4835 14.3479V5.25715C17.4922 5.18858 17.5256 5.12553 17.5775 5.07983C17.6293 5.03413 17.6961 5.00891 17.7652 5.00891C17.8343 5.00891 17.9011 5.03413 17.9529 5.07983C18.0048 5.12553 18.0382 5.18858 18.0469 5.25715V14.5326C18.0473 14.5877 18.0312 14.6416 18.0007 14.6874C17.9702 14.7332 17.9266 14.7688 17.8756 14.7895C16.8825 15.211 16.0655 15.9628 15.5631 16.9176C15.0607 17.8723 14.9037 18.9714 15.1188 20.0286C15.3338 21.0859 15.9077 22.0363 16.7432 22.7189C17.5786 23.4015 18.6243 23.7744 19.7032 23.7744C20.7821 23.7744 21.8278 23.4015 22.6633 22.7189C23.4987 22.0363 24.0726 21.0859 24.2876 20.0286C24.5027 18.9714 24.3457 17.8723 23.8433 16.9176C23.3409 15.9628 22.524 15.211 21.5308 14.7895C21.4798 14.7688 21.4363 14.7332 21.4057 14.6874C21.3752 14.6416 21.3591 14.5877 21.3596 14.5326V13.0048L20.1517 11.7969C20.0974 11.7432 20.0666 11.6703 20.066 11.5941C20.0679 11.5203 20.0968 11.4497 20.1472 11.3957L21.2243 10.305L20.1336 9.20983C20.1065 9.18443 20.0849 9.15372 20.0702 9.11959C20.0554 9.08547 20.0479 9.04868 20.048 9.01152C20.0493 8.93671 20.0801 8.86545 20.1336 8.81321L21.2243 7.7225L20.1472 6.64532C20.0953 6.59235 20.0661 6.52117 20.066 6.44701C20.0662 6.40989 20.0738 6.37318 20.0886 6.33909C20.1033 6.30501 20.1247 6.27426 20.1517 6.2487L21.2243 5.13997L20.1472 4.04476C20.096 3.99127 20.0671 3.92042 20.066 3.84645C20.0659 3.80928 20.0735 3.77249 20.0882 3.73837C20.1029 3.70425 20.1245 3.67353 20.1517 3.64814L21.2243 2.55293L19.5027 0.817715C19.4506 0.76392 19.4215 0.692001 19.4215 0.617152C19.4215 0.542302 19.4506 0.470383 19.5027 0.416588C19.5564 0.364544 19.6284 0.335449 19.7032 0.335449C19.7781 0.335449 19.85 0.364544 19.9038 0.416588L21.8418 2.35462C21.8922 2.40858 21.921 2.47913 21.9229 2.55293C21.9223 2.62919 21.8915 2.70212 21.8373 2.75574L20.7466 3.84645L21.8418 4.93715C21.8932 4.99226 21.9221 5.06461 21.9229 5.13997C21.9216 5.21477 21.8909 5.28604 21.8373 5.33828L20.7466 6.42898L21.8418 7.51969C21.8932 7.5748 21.9221 7.64714 21.9229 7.7225C21.9216 7.79731 21.8909 7.86857 21.8373 7.92081L20.7466 9.01152L21.8373 10.1067C21.8644 10.1321 21.886 10.1628 21.9008 10.197C21.9155 10.2311 21.9231 10.2679 21.9229 10.305C21.921 10.3788 21.8922 10.4494 21.8418 10.5033L20.7466 11.6031L21.8373 12.6983C21.8644 12.7237 21.886 12.7544 21.9008 12.7885C21.9155 12.8226 21.9231 12.8594 21.9229 12.8966V14.3569C23.0021 14.8628 23.8765 15.7215 24.4021 16.7911C24.9278 17.8608 25.0731 19.0777 24.8143 20.2411C24.5555 21.4045 23.9079 22.445 22.9784 23.1909C22.0488 23.9368 20.8928 24.3437 19.701 24.3445V24.3355Z" fill="#114A43"/>
</g>
<defs>
<clipPath id="clip0_57_3422">
<rect width="24" height="24" fill="white" transform="translate(0.942657 0.335449)"/>
</clipPath>
</defs>
</svg>
