<svg width="40" height="41" viewBox="0 0 40 41" fill="none" xmlns="http://www.w3.org/2000/svg">
<g clip-path="url(#clip0_146_3974)">
<path d="M31.6128 25.5326C30.7939 24.6799 29.8062 24.224 28.7593 24.224C27.7209 24.224 26.7247 24.6715 25.8721 25.5241L23.2043 28.1835C22.9848 28.0653 22.7653 27.9555 22.5543 27.8458C22.2503 27.6938 21.9633 27.5503 21.7185 27.3983C19.2196 25.8112 16.9486 23.7428 14.7705 21.0666C13.7152 19.7327 13.006 18.6099 12.4911 17.4702C13.1833 16.837 13.8249 16.1785 14.4497 15.5454C14.6861 15.309 14.9224 15.0642 15.1588 14.8278C16.9317 13.0549 16.9317 10.7586 15.1588 8.98572L12.8541 6.68098C12.5924 6.41927 12.3222 6.14912 12.0689 5.87897C11.5624 5.35554 11.0305 4.81524 10.4818 4.3087C9.6629 3.49824 8.6836 3.06769 7.65364 3.06769C6.62368 3.06769 5.62749 3.49824 4.78327 4.3087C4.77482 4.31714 4.77482 4.31714 4.76638 4.32559L1.89601 7.22129C0.815398 8.3019 0.199112 9.61889 0.0640356 11.1469C-0.138579 13.6121 0.587457 15.9084 1.14465 17.4111C2.5123 21.1004 4.55533 24.5195 7.60299 28.1835C11.3007 32.5988 15.7498 36.0854 20.832 38.5421C22.7738 39.4623 25.3655 40.5514 28.2612 40.7371C28.4385 40.7456 28.6242 40.754 28.7931 40.754C30.7433 40.754 32.3811 40.0533 33.6643 38.6603C33.6727 38.6434 33.6896 38.635 33.6981 38.6181C34.1371 38.0862 34.6436 37.605 35.1755 37.09C35.5385 36.7439 35.9099 36.3809 36.2729 36.001C37.1087 35.1314 37.5477 34.1184 37.5477 33.08C37.5477 32.0331 37.1003 31.0285 36.2476 30.1843L31.6128 25.5326ZM34.6351 34.4223C34.6267 34.4223 34.6267 34.4307 34.6351 34.4223C34.3059 34.7769 33.9682 35.0977 33.6052 35.4523C33.0564 35.9757 32.4993 36.5244 31.9758 37.1407C31.1232 38.0525 30.1185 38.483 28.8015 38.483C28.6749 38.483 28.5398 38.483 28.4132 38.4746C25.9058 38.3142 23.5758 37.3349 21.8282 36.4991C17.0499 34.1859 12.8541 30.9019 9.36742 26.7398C6.48861 23.27 4.56377 20.062 3.28898 16.6175C2.50385 14.5154 2.21682 12.8776 2.34345 11.3327C2.42787 10.3449 2.80777 9.52603 3.50848 8.82532L6.3873 5.9465C6.80097 5.55816 7.23997 5.3471 7.67052 5.3471C8.20239 5.3471 8.63294 5.66791 8.9031 5.93806C8.91154 5.9465 8.91998 5.95495 8.92842 5.96339C9.4434 6.4446 9.93305 6.94269 10.448 7.47456C10.7097 7.74471 10.9799 8.01486 11.25 8.29346L13.5548 10.5982C14.4497 11.4931 14.4497 12.3204 13.5548 13.2153C13.31 13.4601 13.0736 13.705 12.8288 13.9413C12.1196 14.6674 11.4442 15.3428 10.7097 16.0013C10.6929 16.0181 10.676 16.0266 10.6675 16.0435C9.9415 16.7695 10.0766 17.4786 10.2285 17.9599C10.237 17.9852 10.2454 18.0105 10.2539 18.0358C10.8533 19.4879 11.6975 20.8556 12.9807 22.4849L12.9892 22.4934C15.3192 25.3637 17.7759 27.6009 20.4859 29.3147C20.832 29.5342 21.1866 29.7115 21.5243 29.8804C21.8282 30.0323 22.1153 30.1758 22.3601 30.3278C22.3938 30.3447 22.4276 30.37 22.4614 30.3869C22.7484 30.5304 23.0186 30.5979 23.2972 30.5979C23.9979 30.5979 24.4369 30.1589 24.5804 30.0154L27.4677 27.1282C27.7547 26.8411 28.2106 26.495 28.7424 26.495C29.2659 26.495 29.6964 26.8242 29.9581 27.1113C29.9666 27.1197 29.9666 27.1197 29.975 27.1282L34.6267 31.7799C35.4963 32.641 35.4963 33.5274 34.6351 34.4223Z" fill="#14202E"/>
<path d="M21.6173 10.269C23.8292 10.6404 25.8385 11.6873 27.4425 13.2913C29.0465 14.8953 30.0849 16.9046 30.4648 19.1165C30.5577 19.6737 31.0389 20.062 31.5876 20.062C31.6552 20.062 31.7143 20.0536 31.7818 20.0451C32.4065 19.9438 32.8202 19.3528 32.7189 18.7281C32.263 16.0519 30.9967 13.6121 29.0634 11.6788C27.1301 9.74554 24.6903 8.4792 22.0141 8.02332C21.3894 7.92201 20.8069 8.33568 20.6971 8.95197C20.5874 9.56825 20.9926 10.1677 21.6173 10.269Z" fill="#14202E"/>
<path d="M39.9537 18.3989C39.2024 13.992 37.1255 9.98192 33.9344 6.79074C30.7432 3.59957 26.7331 1.52277 22.3262 0.771404C21.71 0.661654 21.1274 1.08377 21.0177 1.70005C20.9164 2.32478 21.3301 2.9073 21.9548 3.01705C25.8889 3.68399 29.4768 5.54973 32.3303 8.39478C35.1838 11.2483 37.0411 14.8362 37.7081 18.7703C37.8009 19.3275 38.2821 19.7159 38.8309 19.7159C38.8984 19.7159 38.9575 19.7074 39.0251 19.699C39.6413 19.6061 40.0635 19.0152 39.9537 18.3989Z" fill="#14202E"/>
</g>
<defs>
<clipPath id="clip0_146_3974">
<rect width="40" height="40" fill="white" transform="translate(0 0.753998)"/>
</clipPath>
</defs>
</svg>
