<svg width="24" height="25" viewBox="0 0 24 25" fill="none" xmlns="http://www.w3.org/2000/svg">
<g clip-path="url(#clip0_202_3508)">
<path d="M23.2933 19.095V17.542C23.2933 17.3303 23.1521 17.1891 22.9404 17.1891H22.2345V5.25967H22.9404C23.1521 5.25967 23.2933 5.11849 23.2933 4.90673V3.38908C23.2933 3.17732 23.1521 3.03614 22.9404 3.03614H13.5168V2.01261C13.5168 1.80084 13.3757 1.65967 13.1639 1.65967H10.7992C10.5874 1.65967 10.4463 1.80084 10.4463 2.01261V3.03614H1.05802C0.846255 3.03614 0.705078 3.17732 0.705078 3.38908V4.94202C0.705078 5.15379 0.846255 5.29496 1.05802 5.29496H1.7639V17.1891H1.05802C0.846255 17.1891 0.705078 17.3303 0.705078 17.542V19.095C0.705078 19.3067 0.846255 19.4479 1.05802 19.4479H6.52861L4.37567 23.7538C4.30508 23.8597 4.34037 24.0008 4.37567 24.1067C4.44625 24.2126 4.55214 24.2832 4.69331 24.2832H6.70508C6.84625 24.2832 6.95214 24.2126 7.02273 24.0714L9.31684 19.4479H14.6463L16.9404 24.0714C17.011 24.1773 17.1168 24.2832 17.258 24.2832H19.2698C19.5521 24.2832 19.7286 23.9303 19.5521 23.7185L17.4345 19.4832H22.9404C23.1521 19.4479 23.2933 19.2714 23.2933 19.095ZM11.1874 2.36555H12.8463V3.03614H11.1874V2.36555ZM1.41096 4.55379V3.74202H22.5874V4.58908C20.3992 4.55379 3.5992 4.55379 1.41096 4.55379ZM21.5286 5.25967V17.1891H2.46978V5.25967H21.5286ZM6.49331 23.542H5.29331L7.34037 19.4479H8.57567L6.49331 23.542ZM18.7051 23.542H17.4698L15.4227 19.4479H16.658L18.7051 23.542ZM22.5874 18.742C17.4698 18.742 6.52861 18.742 1.41096 18.742V17.895H22.5874V18.742Z" fill="#D8E28C"/>
<path d="M4.16349 11.5773H8.82231C9.03408 11.5773 9.17525 11.4361 9.17525 11.2244C9.17525 11.0126 9.03408 10.8714 8.82231 10.8714H4.16349C3.95172 10.8714 3.81055 11.0126 3.81055 11.2244C3.81055 11.4361 3.98702 11.5773 4.16349 11.5773Z" fill="#D8E28C"/>
<path d="M11.8587 10.8714H10.3764C10.1646 10.8714 10.0234 11.0126 10.0234 11.2244C10.0234 11.4361 10.1646 11.5773 10.3764 11.5773H11.8587C12.0705 11.5773 12.2117 11.4361 12.2117 11.2244C12.2117 11.0126 12.0705 10.8714 11.8587 10.8714Z" fill="#D8E28C"/>
<path d="M11.8583 8.75378H6.98771C6.77594 8.75378 6.63477 8.89496 6.63477 9.10673C6.63477 9.31849 6.77594 9.45967 6.98771 9.45967H11.8583C12.0701 9.45967 12.2112 9.31849 12.2112 9.10673C12.2112 8.89496 12.0701 8.75378 11.8583 8.75378Z" fill="#D8E28C"/>
<path d="M4.16349 9.45967H5.43408C5.64584 9.45967 5.78702 9.31849 5.78702 9.10673C5.78702 8.89496 5.64584 8.75378 5.43408 8.75378H4.16349C3.95172 8.75378 3.81055 8.89496 3.81055 9.10673C3.81055 9.31849 3.98702 9.45967 4.16349 9.45967Z" fill="#D8E28C"/>
<path d="M4.16349 13.7303H5.53996C5.75172 13.7303 5.8929 13.5891 5.8929 13.3773C5.8929 13.1656 5.75172 13.0244 5.53996 13.0244H4.16349C3.95172 13.0244 3.81055 13.1656 3.81055 13.3773C3.81055 13.5891 3.98702 13.7303 4.16349 13.7303Z" fill="#D8E28C"/>
<path d="M11.8586 13.0244H6.91739C6.70563 13.0244 6.56445 13.1656 6.56445 13.3773C6.56445 13.5891 6.70563 13.7303 6.91739 13.7303H11.8586C12.0703 13.7303 12.2115 13.5891 12.2115 13.3773C12.2115 13.1656 12.0703 13.0244 11.8586 13.0244Z" fill="#D8E28C"/>
<path d="M4.16349 15.8479H8.85761C9.06937 15.8479 9.21055 15.7067 9.21055 15.495C9.21055 15.2832 9.06937 15.142 8.85761 15.142H4.16349C3.95172 15.142 3.81055 15.2832 3.81055 15.495C3.81055 15.7067 3.98702 15.8479 4.16349 15.8479Z" fill="#D8E28C"/>
<path d="M11.8573 15.142H10.2338C10.022 15.142 9.88086 15.2832 9.88086 15.495C9.88086 15.7067 10.022 15.8479 10.2338 15.8479H11.8926C12.1044 15.8479 12.2456 15.7067 12.2456 15.495C12.2456 15.2832 12.0691 15.142 11.8573 15.142Z" fill="#D8E28C"/>
<path d="M17.5404 7.30671H20.0463C20.2581 7.30671 20.3993 7.16554 20.3993 6.95377C20.3993 6.74201 20.2581 6.60083 20.0463 6.60083H17.5404C17.3287 6.60083 17.1875 6.74201 17.1875 6.95377C17.1875 7.16554 17.3287 7.30671 17.5404 7.30671Z" fill="#D8E28C"/>
<path d="M10.1635 7.30671H15.8811C16.0929 7.30671 16.2341 7.16554 16.2341 6.95377C16.2341 6.74201 16.0929 6.60083 15.8811 6.60083H10.1635C9.95172 6.60083 9.81055 6.74201 9.81055 6.95377C9.81055 7.16554 9.95172 7.30671 10.1635 7.30671Z" fill="#D8E28C"/>
<path d="M4.16349 7.30671H8.71643C8.92819 7.30671 9.06937 7.16554 9.06937 6.95377C9.06937 6.74201 8.92819 6.60083 8.71643 6.60083H4.16349C3.95172 6.60083 3.81055 6.74201 3.81055 6.95377C3.81055 7.16554 3.98702 7.30671 4.16349 7.30671Z" fill="#D8E28C"/>
<path d="M16.1281 8.96556L15.881 9.60085C15.8104 9.63614 15.7045 9.67144 15.634 9.70673L14.9987 9.42438C14.8575 9.35379 14.7163 9.38908 14.6104 9.49497L14.081 10.0244C13.9751 10.1303 13.9398 10.2714 14.0104 10.4126L14.2928 11.0479C14.2575 11.1185 14.2222 11.2244 14.1869 11.295L13.5516 11.542C13.4104 11.5773 13.3398 11.7185 13.3398 11.8597V12.6361C13.3398 12.7773 13.4457 12.9185 13.5516 12.9538L14.1869 13.2008C14.2222 13.2714 14.2575 13.3773 14.2928 13.4479L14.0104 14.0832C13.9398 14.2244 13.9751 14.3656 14.081 14.4714L14.6104 15.0008C14.7163 15.1067 14.8575 15.142 14.9987 15.0714L15.634 14.7891C15.7045 14.8244 15.8104 14.8597 15.881 14.895L16.1281 15.5303C16.1634 15.6714 16.3045 15.742 16.4457 15.742H17.2222C17.3634 15.742 17.5046 15.6361 17.5398 15.5303L17.7869 14.895C17.8575 14.8597 17.9634 14.8244 18.034 14.7891L18.6693 15.0714C18.8104 15.142 18.9516 15.1067 19.0575 15.0008L19.5869 14.4714C19.6928 14.3656 19.7281 14.2244 19.6575 14.0832L19.3751 13.4479C19.4104 13.3773 19.4457 13.2714 19.481 13.2008L20.1163 12.9538C20.2575 12.8832 20.3281 12.7773 20.3281 12.6361V11.895C20.3281 11.7538 20.2222 11.6126 20.1163 11.5773L19.481 11.3303C19.4457 11.2597 19.4104 11.1538 19.3751 11.0832L19.6575 10.4479C19.7281 10.3067 19.6928 10.1656 19.5869 10.0597L19.0575 9.53026C18.9516 9.42438 18.8104 9.38908 18.6693 9.45967L18.034 9.74203C17.9634 9.70673 17.8575 9.67144 17.7869 9.63614L17.5398 9.00085C17.5046 8.85967 17.3634 8.78908 17.2222 8.78908H16.4457C16.3045 8.75379 16.1987 8.82438 16.1281 8.96556ZM16.481 10.0244L16.6928 9.45967H16.9751L17.1869 10.0244C17.2222 10.1303 17.3281 10.2008 17.434 10.2361C17.5751 10.2714 17.7163 10.342 17.8575 10.4126C17.9634 10.4479 18.0693 10.4832 18.1751 10.4126L18.7398 10.1656L18.9516 10.3773L18.7046 10.942C18.6693 11.0479 18.6693 11.1538 18.7046 11.2597C18.7751 11.4008 18.8457 11.542 18.881 11.6832C18.9163 11.7891 18.9869 11.8597 19.0928 11.9303L19.6575 12.142V12.4244L19.0928 12.6361C18.9869 12.6714 18.9163 12.7773 18.881 12.8832C18.8457 13.0244 18.7751 13.1656 18.7046 13.3067C18.6693 13.4126 18.634 13.5185 18.7046 13.6244L18.9516 14.1891L18.7398 14.4008L18.1751 14.1538C18.0693 14.1185 17.9634 14.1185 17.8575 14.1538C17.7163 14.2244 17.5751 14.295 17.434 14.3303C17.3281 14.3656 17.2222 14.4361 17.1869 14.542L16.9751 15.1067H16.6928L16.481 14.542C16.4457 14.4714 16.3398 14.3656 16.234 14.3656C16.0928 14.3303 15.9516 14.2597 15.8104 14.1891C15.7045 14.1185 15.5987 14.1185 15.4928 14.1891L14.9281 14.4361L14.7163 14.2244L14.9634 13.6597C14.9987 13.5538 14.9987 13.4479 14.9634 13.342C14.8928 13.2008 14.8222 13.0597 14.7869 12.9185C14.7516 12.8126 14.681 12.742 14.5751 12.6714L14.0104 12.4597V12.1773L14.5751 11.9656C14.681 11.9303 14.7516 11.8244 14.7869 11.7185C14.8222 11.5773 14.8928 11.4361 14.9634 11.295C14.9987 11.1891 15.034 11.0832 14.9634 10.9773L14.7163 10.4126L14.9281 10.2008L15.4928 10.4479C15.5987 10.4832 15.7045 10.4832 15.8104 10.4479C15.9516 10.3773 16.0928 10.3067 16.234 10.2714C16.3398 10.2008 16.4457 10.1303 16.481 10.0244Z" fill="#D8E28C"/>
<path d="M15.5631 12.5656C15.6689 13.095 16.0925 13.5185 16.5866 13.5891C16.6572 13.5891 16.7631 13.6244 16.8336 13.6244C17.2219 13.6244 17.6101 13.4479 17.8572 13.1303C18.1042 12.8126 18.2101 12.4244 18.1395 12.0361C18.0336 11.5067 17.6101 11.0832 17.0807 11.0126C16.5866 10.9067 16.1278 11.1185 15.8101 11.4714C15.5631 11.7538 15.4925 12.1773 15.5631 12.5656ZM16.3748 11.895C16.4807 11.7538 16.6572 11.6832 16.8336 11.6832H16.9395C17.1866 11.7185 17.3631 11.9303 17.4336 12.1773C17.4689 12.3538 17.4336 12.5656 17.2925 12.7067C17.1513 12.8832 16.9395 12.9538 16.6925 12.9185C16.4454 12.8832 16.2689 12.6714 16.1983 12.4244C16.1983 12.2479 16.2689 12.0361 16.3748 11.895Z" fill="#D8E28C"/>
</g>
<defs>
<clipPath id="clip0_202_3508">
<rect width="24" height="24" fill="white" transform="translate(0 0.953796)"/>
</clipPath>
</defs>
</svg>
